<svg width="415" height="442" viewBox="0 0 415 442" fill="none" xmlns="http://www.w3.org/2000/svg">
<path d="M412.307 156.592C411.959 155.954 411.408 155.449 410.741 155.159C410.075 154.868 409.33 154.808 408.625 154.988C405.705 155.694 402.772 156.574 399.937 157.427C395.452 158.777 390.813 160.188 386.266 160.866C385.366 160.939 384.46 160.889 383.573 160.719C381.935 160.483 379.891 160.191 377.514 160.97C375.587 161.529 374.446 162.602 373.633 163.388C372.82 164.173 372.74 164.198 372.31 164.207C371.525 163.992 369.875 161.786 368.988 160.602C368.426 159.848 367.877 159.117 367.313 158.455C367.742 157.056 367.448 155.844 367.074 154.703C366.833 154.072 366.706 153.404 366.699 152.73C366.681 151.894 366.332 151.1 365.73 150.52C365.127 149.941 364.32 149.623 363.484 149.637C360.962 149.637 359.496 147.665 357.422 144.422C356.244 142.581 355.133 140.863 353.477 139.667C352.105 138.734 350.669 137.897 349.181 137.163C347.528 136.31 346.224 135.629 344.58 134.059C343.497 133.019 343.242 131.678 342.889 129.395C342.509 126.941 342.039 123.895 339.717 120.934C338.131 118.915 336.394 117.759 334.863 116.74C333.118 115.578 331.921 114.783 331.065 112.89V102.981C331.06 102.51 330.947 102.047 330.734 101.627C330.521 101.208 330.215 100.842 329.838 100.56C326.902 98.3236 322.147 90.7151 322.702 88.4602C322.89 87.7015 322.772 86.8995 322.374 86.2268L311.099 67.1106C311.799 67.1647 312.497 66.989 313.088 66.6103C313.679 66.2316 314.13 65.6705 314.373 65.0122C314.612 64.3311 315.066 63.2205 315.582 61.9442C317.76 56.5999 318.671 54.1119 318.671 52.5503C318.671 49.3014 317.22 46.8164 315.941 44.6228C315.328 43.6341 314.788 42.6027 314.324 41.5365C314.025 40.8328 313.488 40.2567 312.807 39.909C312.126 39.5613 311.345 39.4641 310.599 39.6344C309.55 39.8623 308.532 40.2167 307.568 40.6897C306.95 41.0331 306.245 41.1868 305.54 41.1315C303.822 41.1315 302.506 40.61 300.985 40.0117C299.267 39.3307 297.303 38.5637 294.781 38.5637C291.048 38.5637 288.52 39.4411 286.286 40.2142C284.246 40.9229 282.482 41.5334 279.721 41.5334C274.548 41.5334 267.348 39.8491 257.705 36.3793C255.825 35.7044 253.858 35.6829 252.122 35.6645C251.174 35.6645 249.591 35.6369 249.25 35.4467C248.795 34.8732 248.265 34.3634 247.673 33.9311C246.784 33.2286 246.784 33.1641 246.784 32.7469C246.765 31.909 246.415 31.1128 245.81 30.533C245.205 29.9531 244.394 29.6372 243.556 29.6545H239.964C239.179 29.2466 238.266 29.1628 237.42 29.4213C236.362 29.7496 235.34 30.0349 234.38 30.2742C229.425 31.5872 223.808 33.0782 223.808 40.6683V43.9325C223.545 44.1763 223.238 44.3678 222.903 44.497C216.227 44.497 211.813 40.8339 207.14 36.9561C202.231 32.8819 197.151 28.6727 189.454 28.6727H183.668C181.44 28.6727 177.602 25.6048 177.602 22.4602C177.602 21.8159 177.937 21.2177 178.523 20.2145C179.302 18.8891 180.271 17.2417 180.271 14.953C180.271 12.7871 178.845 11.4126 177.992 10.5904L177.927 10.5291C178.848 9.78664 180.495 8.42449 180.689 5.65416C180.718 5.18428 180.638 4.7139 180.455 4.28039C180.271 3.84688 179.989 3.46219 179.63 3.15688C179.261 2.84181 178.828 2.61127 178.36 2.48143C177.893 2.35158 177.403 2.32558 176.924 2.40524C176.018 2.56943 175.152 2.90806 174.375 3.40232L174.243 3.22438C173.491 2.17822 171.92 0 168.181 0C165.18 0 163.422 1.22717 162.26 2.04016C161.339 2.68136 160.962 2.9452 159.925 2.9452C159.449 2.9452 159.023 2.79487 158.247 2.50955C156.805 1.90746 155.262 1.58572 153.7 1.56157C151.246 1.56157 149.009 2.67522 147.215 3.57105C146.525 3.94285 145.807 4.25883 145.067 4.51597C144.76 4.43927 144.116 4.1785 143.634 3.98522C142.143 3.37164 140.1 2.55557 137.805 2.55557C127.899 2.55557 112.016 8.30177 103.751 12.1765C102.768 12.6751 101.85 13.2934 101.018 14.0173C99.8582 14.9561 99.2753 15.4285 97.5481 15.4285C90.9797 15.4285 86.295 14.1216 81.8833 11.0598C81.3057 10.6626 80.6177 10.4571 79.9168 10.4725C79.2158 10.4879 78.5375 10.7235 77.9779 11.1457C76.2507 12.4649 75.3824 13.8731 74.6032 15.1156C74.2246 15.7611 73.7969 16.3765 73.3239 16.9564C73.0284 17.3133 72.8185 17.733 72.7103 18.1835C70.5811 20.5949 68.1912 23.0186 65.6817 25.5649C62.442 28.8507 59.0887 32.2499 56.1896 35.7719C53.1677 39.4012 53.1217 42.4661 53.1002 45.4297C53.0756 47.4054 53.0511 49.4486 52.1123 52.2128C51.4987 54.0996 47.4614 57.5479 44.329 59.3304C43.3074 59.8765 41.933 60.2262 40.4788 60.5974C37.5152 61.3552 33.8214 62.2971 31.318 65.5552C26.3541 72.1021 19.8532 82.9871 17.0123 91.1753C16.7853 91.8779 15.8987 92.8504 15.0427 93.7923C13.2787 95.7312 11.082 98.1426 11.082 101.615C11.082 105.911 12.1589 109.5 13.1958 112.982C14.2328 116.464 15.2145 119.731 15.2145 123.766C15.2145 128.122 11.2937 137.384 8.31477 138.799C7.93954 138.975 7.60293 139.223 7.32438 139.53C7.04582 139.837 6.83084 140.197 6.69185 140.587C6.55798 140.971 6.50442 141.379 6.5345 141.785C6.56458 142.191 6.67765 142.586 6.86672 142.946C7.35583 143.863 7.90624 144.745 8.51419 145.588C9.37627 146.815 9.62477 147.223 9.62477 148.094C9.65623 149.151 9.83275 150.199 10.1494 151.208C10.2905 151.733 10.4286 152.245 10.5267 152.797C10.4627 152.896 10.4043 152.999 10.3519 153.104C10.0922 153.635 9.99536 154.23 10.0734 154.815C10.1515 155.4 10.401 155.949 10.7906 156.393C11.275 156.946 11.787 157.474 12.3245 157.976C12.6313 158.255 12.8768 158.504 13.1682 158.817C13.8186 159.866 15.4354 161.443 19.436 164.937C21.9915 167.168 25.3049 169.953 26.3848 170.717C29.3208 172.978 30.7811 175.583 32.628 178.872C33.5484 180.538 34.6221 182.421 35.9751 184.394C39.5922 189.68 47.4644 194.825 53.7935 198.982C55.6895 200.224 57.475 201.399 58.8464 202.381C60.3374 203.446 63.9575 204.587 66.9671 204.587C71.569 204.587 74.9161 203.433 77.8797 202.418C80.7022 201.448 83.1412 200.611 86.6079 200.611C88.2585 200.611 90.5502 201.393 92.5689 202.08C94.8422 202.857 96.9897 203.59 98.9839 203.59C101.871 203.59 103.696 202.206 105.028 201.2C105.816 200.602 106.439 200.129 107.203 199.887C109.574 199.169 111.934 198.258 114.219 197.377C119.665 195.273 125.3 193.082 132.041 193.082C134.756 193.082 136.416 195.021 138.83 198.215C141.085 201.194 143.64 204.572 148.147 204.572H156.839C160.901 204.572 163.797 206.139 166.042 209.609C164.815 212.112 164.573 215.708 164.561 219.371C164.272 220.099 164.152 220.882 164.208 221.663C162.06 224.074 159.802 228.124 159.802 230.56C159.802 238.447 166.282 244.384 171.994 249.621C174.142 251.597 176.188 253.465 177.596 255.18C178.679 256.536 178.961 258.413 179.293 260.589C179.563 262.359 179.866 264.365 180.686 266.335C180.992 267.071 181.299 267.764 181.584 268.439C183.21 272.213 184.493 275.189 185.656 282C185.939 283.811 186.425 285.584 187.107 287.286C187.779 289.111 188.309 290.553 188.309 292.875C188.309 296.655 186.054 299.318 183.201 302.711C179.679 306.88 175.298 312.071 175.298 320.576C175.298 332.516 180.167 340.066 185.321 348.058C186.119 349.285 186.923 350.54 187.693 351.779C188.394 352.89 189.217 353.919 190.147 354.847C191.23 356.01 191.423 356.295 191.423 356.765V362.103C191.423 377.795 198.535 388.818 205.413 399.482C206.566 401.268 207.711 403.044 208.766 404.753C209.387 405.719 210.074 406.642 210.822 407.514C211.987 408.968 215.092 412.831 215.172 414.153C215.172 415.073 214.884 415.889 213.408 417.331C213.113 417.611 212.879 417.948 212.719 418.322C212.559 418.695 212.476 419.097 212.476 419.503C212.476 419.91 212.559 420.312 212.719 420.685C212.879 421.059 213.113 421.396 213.408 421.676C214.356 422.596 216.197 426.133 216.197 429.379C216.201 429.913 216.345 430.436 216.615 430.897C216.884 431.358 217.268 431.741 217.731 432.008C218.137 432.248 218.589 432.399 219.057 432.451C219.525 432.504 220 432.458 220.449 432.315C222.421 434.386 224.986 435.432 228.119 435.432C232.653 435.432 236.261 433.837 239.752 432.294C242.998 430.858 246.066 429.502 249.796 429.502C250.057 429.502 250.523 429.766 251.06 430.069C252.116 430.665 253.564 431.481 255.567 431.481C256.852 431.436 258.121 431.183 259.325 430.732C260.196 430.409 261.104 430.196 262.028 430.097C262.697 430.049 263.333 429.794 263.851 429.368C264.368 428.942 264.74 428.366 264.915 427.719C265.639 427.563 266.373 427.461 267.112 427.413C268.765 427.25 270.643 427.069 272.49 426.234C279.678 422.881 282.884 418.473 286.28 413.803C287.289 412.417 288.332 410.984 289.492 409.56C291.146 407.578 292.14 405.544 293.1 403.581C294.238 401.249 295.315 399.05 297.515 396.951C297.822 396.644 298.202 396.316 298.607 395.951C301.644 393.211 306.731 388.631 306.731 382.52C306.725 381.584 306.53 380.659 306.157 379.801C305.784 378.942 305.241 378.168 304.562 377.525C306.298 374.988 308.412 373.626 311.925 371.92C312.185 371.886 312.716 371.868 313.078 371.856C314.959 371.791 317.803 371.693 319.499 369.512L319.588 369.392C321.693 366.395 321.8 357.86 321.8 356.179C321.8 352.019 319.69 349.098 317.993 346.751C316.922 345.266 315.996 343.99 315.99 343.017C316.155 342.174 318.116 340.232 319.444 340.041C320.107 339.958 320.727 339.667 321.215 339.21C321.702 338.752 322.032 338.152 322.156 337.495C322.942 333.004 328.599 330.537 334.615 327.929C342.248 324.61 351.746 320.48 351.746 310.301C351.804 308.46 351.219 306.656 350.093 305.199C350.133 302.659 350.301 300.521 350.452 298.606C350.59 296.854 350.709 295.345 350.709 293.866V289.89C351.323 288.985 352.157 287.595 352.157 285.997C352.157 283.236 350.225 281.113 348.359 279.064C346.377 276.888 344.503 274.836 344.503 272.142C344.503 268.918 344.064 266.571 343.638 264.301C343.233 262.153 342.852 260.131 342.852 257.33C342.852 255.49 343.748 254.44 345.463 252.615C346.917 251.081 348.727 249.145 349.565 246.28C352.94 234.723 360.566 230.17 370.218 224.406C374.028 222.129 377.971 219.776 381.876 216.816C387.398 212.683 390.491 207.962 393.761 202.961C395.35 200.528 396.995 198.012 399.023 195.417C400.557 193.41 414.114 175.377 414.114 160.955C414.114 159.237 413.31 158.074 412.776 157.304C412.605 157.077 412.448 156.839 412.307 156.592Z" fill="url(#paint0_radial_299_436)"/>
<path style="mix-blend-mode:color-dodge" d="M235.282 427.897C236.116 426.777 236.567 425.417 236.567 424.019C236.566 423.753 236.548 423.486 236.512 423.222C236.488 422.332 236.279 421.456 235.899 420.651C235.533 419.775 234.98 418.989 234.278 418.349C233.576 417.709 232.743 417.231 231.837 416.946C230.931 416.662 229.974 416.58 229.033 416.705C228.092 416.829 227.189 417.158 226.388 417.669C226.421 417.441 226.441 417.212 226.45 416.982C227.624 416.504 228.634 415.696 229.356 414.654C230.079 413.612 230.482 412.383 230.518 411.116C232.279 410.917 233.937 410.181 235.266 409.007C236.594 407.833 237.529 406.279 237.944 404.556C238.358 402.832 238.232 401.022 237.582 399.373C236.933 397.724 235.791 396.314 234.312 395.336C232.834 394.358 231.09 393.859 229.318 393.907C227.545 393.955 225.831 394.547 224.407 395.603C222.983 396.659 221.919 398.128 221.359 399.81C220.799 401.492 220.77 403.306 221.277 405.004C220.172 405.507 219.23 406.308 218.556 407.317C217.881 408.327 217.502 409.504 217.461 410.717C216.56 411.082 215.753 411.642 215.096 412.358C214.44 413.074 213.951 413.927 213.666 414.856C212.567 415.609 211.725 416.679 211.251 417.923C210.507 418.345 209.853 418.909 209.327 419.583C208.801 420.257 208.413 421.029 208.185 421.853C207.957 422.677 207.894 423.538 207.999 424.387C208.104 425.235 208.375 426.055 208.797 426.799C208.986 427.181 209.213 427.543 209.475 427.879C209.483 429.672 210.168 431.395 211.394 432.704C212.619 434.013 214.294 434.81 216.083 434.935C216.282 434.935 216.479 434.935 216.675 434.904C216.733 436.341 217.247 437.722 218.142 438.847C219.037 439.972 220.267 440.782 221.654 441.162C223.041 441.541 224.512 441.469 225.855 440.956C227.199 440.444 228.344 439.517 229.125 438.31C229.742 439.312 230.608 440.138 231.639 440.707C232.669 441.276 233.829 441.57 235.006 441.559C236.183 441.549 237.338 441.234 238.358 440.646C239.378 440.058 240.228 439.217 240.828 438.203C241.427 437.19 241.754 436.039 241.778 434.862C241.802 433.685 241.521 432.522 240.963 431.485C240.406 430.449 239.589 429.574 238.594 428.945C237.599 428.316 236.458 427.955 235.282 427.897ZM223.191 428.13C222.992 428.13 222.796 428.13 222.599 428.161C222.59 427.787 222.548 427.414 222.473 427.047C222.388 426.322 222.18 425.617 221.86 424.961C222.128 424.703 222.374 424.422 222.596 424.124C222.645 425.638 223.224 427.088 224.231 428.219C223.887 428.167 223.54 428.141 223.191 428.143V428.13ZM229.02 431.226C228.878 431.028 228.723 430.838 228.557 430.658C228.83 430.695 229.104 430.714 229.379 430.717C229.247 430.883 229.126 431.057 229.014 431.238L229.02 431.226Z" fill="url(#paint1_radial_299_436)"/>
<path style="mix-blend-mode:color-dodge" d="M213.524 402.335C213.468 400.687 212.854 399.107 211.784 397.852C210.713 396.597 209.25 395.742 207.631 395.426C207.698 395.21 207.752 394.99 207.794 394.767C208.607 394.026 209.218 393.09 209.569 392.048C209.92 391.005 210 389.891 209.8 388.809C210.032 388.738 210.259 388.654 210.481 388.557C212.087 388.055 213.462 386.997 214.359 385.574C215.257 384.151 215.619 382.455 215.382 380.789C215.144 379.123 214.321 377.596 213.061 376.481C211.8 375.366 210.185 374.736 208.502 374.703C208.147 374.705 207.792 374.736 207.441 374.795C206.047 374.809 204.694 375.27 203.58 376.109C202.467 376.948 201.651 378.122 201.253 379.458C200.583 378.596 199.708 377.915 198.708 377.476C197.709 377.037 196.615 376.854 195.527 376.944C194.439 377.034 193.391 377.393 192.477 377.99C191.562 378.587 190.812 379.403 190.292 380.363C189.772 381.323 189.499 382.397 189.499 383.489C189.499 384.581 189.771 385.655 190.291 386.616C190.81 387.576 191.561 388.391 192.475 388.989C193.389 389.586 194.437 389.946 195.525 390.036C195.021 390.995 194.752 392.059 194.739 393.143C194.727 394.226 194.972 395.296 195.454 396.266C195.937 397.236 196.642 398.078 197.513 398.721C198.384 399.365 199.396 399.793 200.464 399.97C200.151 400.885 200.039 401.856 200.136 402.818C200.233 403.78 200.536 404.71 201.025 405.544C201.515 406.377 202.179 407.096 202.971 407.649C203.764 408.203 204.667 408.579 205.618 408.751C206.57 408.923 207.547 408.888 208.483 408.648C209.42 408.407 210.293 407.967 211.044 407.358C211.795 406.749 212.405 405.985 212.833 405.118C213.261 404.251 213.497 403.302 213.524 402.335Z" fill="url(#paint2_radial_299_436)"/>
<path style="mix-blend-mode:color-dodge" d="M197.66 370.816C198.417 370.198 199.03 369.423 199.458 368.544C199.885 367.666 200.117 366.705 200.137 365.729C200.157 364.752 199.965 363.783 199.574 362.888C199.183 361.993 198.602 361.193 197.872 360.544C197.901 360.294 197.917 360.042 197.918 359.79C197.918 358.426 197.488 357.098 196.691 355.992C196.717 355.754 196.73 355.516 196.731 355.277C196.732 354.417 196.563 353.566 196.234 352.773C195.904 351.979 195.42 351.259 194.81 350.653C194.715 350.555 194.617 350.463 194.504 350.374C194.308 350.116 194.092 349.873 193.859 349.647C194.577 348.431 194.914 347.028 194.828 345.619C194.742 344.209 194.236 342.858 193.375 341.739C192.515 340.619 191.34 339.782 190 339.336C188.66 338.89 187.218 338.855 185.858 339.235L185.656 339.281C184.228 338.899 182.715 338.997 181.348 339.56C179.981 340.122 178.837 341.117 178.09 342.392C177.344 343.667 177.036 345.153 177.215 346.619C177.394 348.086 178.05 349.454 179.081 350.512C179.265 350.988 179.504 351.441 179.793 351.862C179.848 351.948 179.9 352.031 179.959 352.114C180.639 353.236 181.64 354.128 182.833 354.675C182.918 356.365 183.659 357.954 184.898 359.105C184.873 359.332 184.861 359.559 184.861 359.787C184.984 360.472 184.984 361.175 184.861 361.86C185.235 363.03 185.268 364.281 184.956 365.468C184.976 365.981 185.017 366.493 185.079 367.002C185.079 367.021 185.079 367.039 185.079 367.061C185.081 367.46 185.119 367.858 185.193 368.251C185.216 369.734 185.745 371.165 186.692 372.307C187.638 373.45 188.946 374.235 190.399 374.534C191.852 374.833 193.363 374.628 194.684 373.953C196.005 373.277 197.056 372.172 197.664 370.819L197.66 370.816Z" fill="url(#paint3_radial_299_436)"/>
<path style="mix-blend-mode:color-dodge" d="M216.193 343.26C216.077 343.748 216.018 344.248 216.015 344.751C216.015 345.668 216.208 346.575 216.582 347.412C216.955 348.25 217.501 348.999 218.184 349.612C218.866 350.224 219.67 350.686 220.543 350.967C221.416 351.248 222.339 351.342 223.251 351.242C224.162 351.143 225.043 350.853 225.835 350.391C226.627 349.928 227.313 349.304 227.847 348.559C228.382 347.814 228.754 346.965 228.939 346.067C229.123 345.168 229.117 344.241 228.919 343.345C229.613 342.359 230.025 341.201 230.111 339.998C230.197 338.795 229.954 337.59 229.407 336.515C228.86 335.44 228.03 334.534 227.007 333.894C225.984 333.255 224.805 332.907 223.599 332.887H223.584C221.601 332.698 219.625 333.302 218.087 334.567C216.549 335.832 215.574 337.655 215.377 339.636C215.377 339.771 215.359 339.906 215.359 340.044C215.353 341.17 215.641 342.278 216.193 343.26Z" fill="url(#paint4_radial_299_436)"/>
<path style="mix-blend-mode:color-dodge" d="M181.633 324.202C182.623 322.998 183.248 321.537 183.434 319.99C183.505 319.605 183.542 319.215 183.545 318.824C183.544 317.469 183.121 316.149 182.336 315.045C181.551 313.941 180.443 313.109 179.164 312.663C178.989 312.544 178.808 312.433 178.624 312.329C179.91 312.675 181.265 312.679 182.553 312.34C183.842 312.002 185.019 311.333 185.97 310.399C186.92 309.465 187.61 308.3 187.971 307.017C188.333 305.735 188.353 304.381 188.03 303.088C189.749 302.878 191.335 302.054 192.496 300.768C193.656 299.481 194.314 297.819 194.347 296.087C194.346 295.614 194.294 295.141 194.19 294.679C194.573 293.837 194.771 292.923 194.77 291.998C194.769 291.625 194.735 291.254 194.669 290.887C194.242 289.292 193.833 287.693 193.442 286.089C193.214 285.211 192.807 284.391 192.245 283.68C191.683 282.968 190.979 282.382 190.178 281.958C189.376 281.534 188.496 281.282 187.591 281.217C186.687 281.153 185.779 281.278 184.926 281.583C184.073 281.889 183.293 282.37 182.635 282.994C181.978 283.618 181.458 284.373 181.109 285.209C180.759 286.046 180.588 286.946 180.606 287.852C180.624 288.758 180.831 289.651 181.213 290.473C181.316 290.876 181.458 291.267 181.636 291.642C181.648 291.904 181.676 292.166 181.722 292.424C181.742 292.755 181.787 293.083 181.857 293.406C181.742 293.653 181.645 293.907 181.566 294.167C181.256 294.934 181.096 295.754 181.096 296.581C181.099 297.151 181.176 297.719 181.326 298.269C179.743 298.293 178.21 298.828 176.954 299.793C175.698 300.758 174.787 302.102 174.356 303.626C173.925 305.15 173.996 306.772 174.56 308.252C175.124 309.732 176.15 310.99 177.485 311.841C176.528 311.525 175.51 311.435 174.512 311.579C173.515 311.723 172.564 312.097 171.735 312.671C170.906 313.245 170.222 314.004 169.736 314.887C169.25 315.771 168.976 316.755 168.935 317.762C168.888 318.053 168.862 318.348 168.855 318.643C168.813 318.938 168.79 319.237 168.788 319.535C168.788 319.557 168.788 319.575 168.788 319.594C168.788 319.683 168.772 319.769 168.772 319.861C168.773 320.066 168.784 320.27 168.806 320.474C168.767 320.751 168.747 321.029 168.745 321.309C168.748 321.578 168.766 321.848 168.8 322.116C168.8 322.272 168.779 322.422 168.779 322.585C168.775 324.177 169.353 325.715 170.404 326.91C171.455 328.105 172.907 328.874 174.486 329.073C176.066 329.271 177.663 328.886 178.978 327.989C180.292 327.092 181.233 325.745 181.624 324.202H181.633Z" fill="url(#paint5_radial_299_436)"/>
<path style="mix-blend-mode:color-dodge" d="M195.325 270.538C196.614 270.536 197.873 270.152 198.944 269.435C200.015 268.718 200.849 267.7 201.341 266.509C201.833 265.318 201.962 264.008 201.71 262.744C201.458 261.481 200.837 260.32 199.926 259.409C199.015 258.497 197.854 257.877 196.59 257.625C195.327 257.373 194.017 257.501 192.826 257.994C191.635 258.486 190.617 259.32 189.9 260.391C189.182 261.461 188.799 262.721 188.797 264.009C188.792 264.868 188.958 265.719 189.284 266.513C189.61 267.308 190.091 268.029 190.698 268.637C191.305 269.244 192.027 269.724 192.821 270.051C193.616 270.377 194.467 270.543 195.325 270.538Z" fill="url(#paint6_radial_299_436)"/>
<path style="mix-blend-mode:color-dodge" d="M182.002 263.246C180.466 263.167 178.947 263.591 177.675 264.455C176.403 265.319 175.448 266.575 174.955 268.031C174.463 269.488 174.459 271.065 174.945 272.524C175.432 273.983 176.381 275.242 177.649 276.112C178.917 276.981 180.435 277.413 181.97 277.341C183.506 277.269 184.977 276.697 186.158 275.712C187.339 274.728 188.166 273.385 188.513 271.887C188.861 270.389 188.709 268.819 188.082 267.415C187.607 266.188 186.772 265.133 185.687 264.389C184.602 263.645 183.317 263.246 182.002 263.246Z" fill="url(#paint7_radial_299_436)"/>
<path style="mix-blend-mode:color-dodge" d="M170.267 257.226C170.631 257.622 171.044 257.97 171.494 258.263C171.744 258.682 172.04 259.072 172.375 259.426C173.257 260.649 174.536 261.529 175.994 261.916C177.452 262.302 178.999 262.171 180.371 261.545C181.743 260.918 182.856 259.835 183.519 258.481C184.182 257.126 184.355 255.583 184.008 254.115C185.046 252.77 185.582 251.106 185.525 249.408C185.467 247.71 184.82 246.085 183.693 244.813C182.567 243.542 181.032 242.703 179.354 242.441C177.676 242.178 175.958 242.51 174.498 243.378C173.729 242.867 172.86 242.524 171.95 242.372C171.039 242.219 170.106 242.261 169.213 242.493C168.319 242.726 167.485 243.145 166.764 243.722C166.044 244.299 165.453 245.022 165.031 245.843C164.609 246.664 164.365 247.565 164.314 248.487C164.264 249.409 164.409 250.332 164.74 251.194C165.07 252.056 165.579 252.838 166.233 253.49C166.887 254.142 167.671 254.649 168.534 254.977C168.939 255.845 169.531 256.613 170.267 257.226Z" fill="url(#paint8_radial_299_436)"/>
<path style="mix-blend-mode:color-dodge" d="M165.435 239.638C166.68 239.333 167.814 238.684 168.708 237.766C169.602 236.848 170.22 235.697 170.491 234.445C170.763 233.192 170.677 231.889 170.243 230.683C169.81 229.477 169.046 228.417 168.04 227.624C168.092 227.547 168.141 227.471 168.19 227.394C169.183 226.198 169.715 224.686 169.689 223.131C169.664 221.577 169.083 220.083 168.052 218.92C168.941 218.452 169.709 217.785 170.298 216.97C170.886 216.156 171.279 215.217 171.445 214.226C171.724 213.262 171.774 212.246 171.591 211.259C171.408 210.272 170.996 209.341 170.39 208.541C170.503 207.556 170.412 206.557 170.122 205.609C169.832 204.66 169.35 203.781 168.705 203.027C168.06 202.273 167.266 201.661 166.374 201.228C165.481 200.794 164.509 200.55 163.518 200.51C163.26 200.511 163.003 200.527 162.747 200.559C162.047 199.728 161.152 199.083 160.142 198.681C159.132 198.279 158.038 198.132 156.958 198.254C155.878 198.376 154.845 198.763 153.95 199.38C153.055 199.997 152.326 200.825 151.828 201.791C151.33 202.757 151.078 203.831 151.094 204.918C151.111 206.005 151.395 207.071 151.922 208.021C152.45 208.972 153.203 209.778 154.117 210.367C155.03 210.957 156.074 211.312 157.158 211.401C157.404 211.432 157.652 211.447 157.9 211.447C158.158 211.446 158.415 211.43 158.67 211.398L158.729 211.462C158.445 212.5 158.425 213.592 158.671 214.639C158.918 215.686 159.423 216.655 160.14 217.457C159.007 218.128 158.054 219.062 157.36 220.181C156.666 221.299 156.253 222.569 156.155 223.881C156.155 224.068 156.155 224.249 156.182 224.43C154.838 225.43 153.883 226.866 153.482 228.493C153.081 230.12 153.258 231.835 153.982 233.346C153.563 234.805 153.652 236.364 154.236 237.767C154.819 239.169 155.862 240.331 157.194 241.063C158.525 241.794 160.066 242.05 161.562 241.79C163.059 241.53 164.422 240.769 165.429 239.632L165.435 239.638Z" fill="url(#paint9_radial_299_436)"/>
<path style="mix-blend-mode:color-dodge" d="M170.598 198.948C170.906 198.945 171.214 198.921 171.519 198.878C173.174 198.631 174.669 197.751 175.689 196.424C176.708 195.097 177.174 193.426 176.986 191.763C176.799 190.1 175.973 188.575 174.683 187.508C173.394 186.442 171.741 185.917 170.072 186.045C168.403 186.173 166.849 186.943 165.737 188.194C164.625 189.445 164.042 191.078 164.11 192.751C164.178 194.423 164.893 196.003 166.103 197.159C167.313 198.315 168.925 198.957 170.598 198.948Z" fill="url(#paint10_radial_299_436)"/>
<path style="mix-blend-mode:color-dodge" d="M148.485 179.12C147.854 178.199 146.997 177.454 145.997 176.957C144.73 176.221 143.261 175.91 141.805 176.07C140.349 176.23 138.982 176.852 137.906 177.846C136.829 178.839 136.099 180.151 135.823 181.59C135.546 183.028 135.738 184.517 136.37 185.839C136.582 187.442 137.363 188.916 138.57 189.992C139.777 191.067 141.33 191.674 142.947 191.701C144.564 191.728 146.137 191.174 147.38 190.139C148.622 189.104 149.452 187.658 149.718 186.063C149.949 185.391 150.067 184.685 150.068 183.974C150.065 183.58 150.028 183.188 149.957 182.802C149.862 181.451 149.347 180.164 148.485 179.12Z" fill="url(#paint11_radial_299_436)"/>
<path style="mix-blend-mode:color-dodge" d="M146.285 197.337C145.168 196.349 143.746 195.774 142.256 195.708C140.766 195.641 139.299 196.087 138.098 196.972C136.897 197.857 136.037 199.127 135.659 200.569C135.281 202.012 135.41 203.541 136.023 204.9C136.636 206.26 137.696 207.368 139.028 208.04C140.359 208.712 141.881 208.908 143.339 208.593C144.797 208.279 146.103 207.475 147.039 206.314C147.976 205.154 148.486 203.707 148.485 202.215C148.485 201.293 148.289 200.381 147.91 199.54C147.53 198.699 146.977 197.948 146.285 197.337Z" fill="url(#paint12_radial_299_436)"/>
<path style="mix-blend-mode:color-dodge" d="M121.113 188.711C121.075 186.901 120.341 185.175 119.063 183.893C117.785 182.611 116.062 181.871 114.253 181.827C112.443 181.784 110.687 182.439 109.348 183.658C108.01 184.876 107.193 186.564 107.068 188.37C107.068 188.444 107.068 188.514 107.068 188.585C107.068 188.655 107.068 188.76 107.068 188.849C107.063 190.428 107.633 191.955 108.672 193.144C107.089 193.235 105.569 193.798 104.308 194.761C103.048 195.724 102.105 197.042 101.601 198.546C100.663 197.857 99.5562 197.433 98.3977 197.319C97.9434 197.218 97.4795 197.167 97.0141 197.166C96.1848 197.167 95.3633 197.327 94.5935 197.635C95.0561 196.962 95.3872 196.207 95.5691 195.411C95.8127 194.378 95.8203 193.304 95.5912 192.268C95.3621 191.231 94.9023 190.26 94.246 189.427C93.5897 188.593 92.7538 187.918 91.8005 187.452C90.8472 186.986 89.8011 186.741 88.7399 186.735C86.9085 186.828 85.1754 187.592 83.8708 188.881C82.5662 190.17 81.7812 191.893 81.6653 193.724C81.6642 193.948 81.6755 194.172 81.6991 194.395C81.7518 195.174 81.944 195.937 82.2666 196.647C81.2819 197.763 80.7101 199.183 80.6468 200.669C79.9751 199.523 78.9867 198.596 77.8005 197.998C76.6144 197.4 75.2808 197.158 73.9601 197.3C72.6394 197.442 71.3878 197.962 70.3557 198.798C69.3236 199.634 68.5549 200.751 68.142 202.013C67.6458 200.536 66.6371 199.285 65.2984 198.487C63.9596 197.689 62.3794 197.397 60.8439 197.663C59.3083 197.929 57.9189 198.737 56.9273 199.939C55.9356 201.141 55.4072 202.659 55.4378 204.217C55.4684 205.776 56.0559 207.271 57.0939 208.434C58.132 209.596 59.552 210.349 61.0968 210.555C62.6417 210.761 64.2092 210.407 65.5156 209.557C66.822 208.707 67.7809 207.417 68.2187 205.922C68.6522 207.219 69.4826 208.348 70.5924 209.148C71.7023 209.947 73.0355 210.378 74.4036 210.379C75.109 210.379 75.8097 210.263 76.4775 210.036C77.8348 209.692 79.0452 208.919 79.9293 207.834C80.8134 206.748 81.3243 205.406 81.3862 204.007C81.8968 204.973 82.6419 205.796 83.5532 206.399C84.4645 207.002 85.5127 207.366 86.6016 207.459C86.8791 207.498 87.1589 207.518 87.4391 207.52C88.733 207.522 89.9979 207.137 91.0716 206.415C91.5481 207.442 92.2834 208.327 93.2053 208.984C94.1272 209.641 95.2039 210.046 96.33 210.161C96.7854 210.262 97.2503 210.312 97.7167 210.312C99.204 210.311 100.647 209.803 101.805 208.871C102.964 207.938 103.77 206.638 104.089 205.185C105.15 205.872 106.37 206.272 107.632 206.348C108.893 206.423 110.152 206.17 111.287 205.614C112.422 205.058 113.394 204.218 114.107 203.175C114.821 202.132 115.253 200.922 115.36 199.663C115.971 200.381 116.731 200.957 117.587 201.353C118.443 201.748 119.375 201.952 120.318 201.952C121.201 202.026 122.089 201.924 122.932 201.65C123.774 201.376 124.553 200.936 125.223 200.356C125.893 199.777 126.44 199.069 126.832 198.274C127.224 197.48 127.453 196.615 127.506 195.731C127.558 194.846 127.433 193.961 127.138 193.125C126.843 192.29 126.384 191.522 125.788 190.867C125.191 190.212 124.47 189.683 123.666 189.311C122.862 188.939 121.992 188.732 121.106 188.701L121.113 188.711Z" fill="url(#paint13_radial_299_436)"/>
<path style="mix-blend-mode:color-dodge" d="M64.731 193.693C65.7477 194.312 66.9152 194.639 68.1057 194.639C69.2961 194.639 70.4636 194.312 71.4804 193.693C72.3842 193.255 73.1794 192.622 73.8085 191.839C74.4376 191.056 74.8849 190.144 75.118 189.167C75.3511 188.19 75.3642 187.174 75.1564 186.191C74.9486 185.209 74.525 184.285 73.9163 183.486C73.5294 182.892 73.0499 182.363 72.4959 181.921C71.4543 181.128 70.2151 180.637 68.9133 180.5C67.6116 180.363 66.2972 180.586 65.1134 181.144C63.9296 181.703 62.9218 182.575 62.1998 183.667C61.4778 184.759 61.0693 186.028 61.0188 187.336C61.0223 187.693 61.0541 188.049 61.1139 188.401C61.2099 189.52 61.5934 190.595 62.2271 191.522C62.8608 192.449 63.7233 193.197 64.731 193.693Z" fill="url(#paint14_radial_299_436)"/>
<path style="mix-blend-mode:color-dodge" d="M37.4783 175.509C38.1842 174.48 38.6015 173.28 38.6867 172.035C38.772 170.79 38.5221 169.545 37.9631 168.429C37.4041 167.313 36.5563 166.368 35.508 165.69C34.4597 165.013 33.2491 164.629 32.0021 164.578C31.1089 164.577 30.2252 164.761 29.4066 165.118C28.7361 164.499 27.9432 164.028 27.0791 163.735C26.2151 163.442 25.2992 163.333 24.3905 163.416C23.4819 163.499 22.6007 163.772 21.8041 164.216C21.0074 164.661 20.3129 165.268 19.7654 165.998C19.218 166.728 18.8298 167.565 18.6259 168.454C18.422 169.343 18.407 170.266 18.5818 171.161C18.7566 172.057 19.1173 172.906 19.6407 173.653C20.1641 174.4 20.8385 175.03 21.6202 175.5C22.1954 176.081 22.8738 176.549 23.6205 176.881C23.8424 177.396 24.1301 177.881 24.4765 178.323C25.1327 179.307 26.0442 180.094 27.1133 180.601C28.1825 181.108 29.3692 181.314 30.5466 181.198C31.724 181.083 32.8479 180.649 33.7981 179.944C34.7482 179.24 35.489 178.29 35.9413 177.197C36.5482 176.728 37.0683 176.157 37.4783 175.509Z" fill="url(#paint15_radial_299_436)"/>
<path style="mix-blend-mode:color-dodge" d="M20.8042 160.464C20.8053 159.601 20.6345 158.746 20.3015 157.95C19.9686 157.153 19.4804 156.431 18.8653 155.826C18.2883 155.164 17.5837 154.626 16.7938 154.243C16.0039 153.86 15.1448 153.641 14.2681 153.597C13.3914 153.554 12.515 153.689 11.6913 153.992C10.8677 154.296 10.1137 154.762 9.47464 155.364C8.83554 155.966 8.32441 156.69 7.97185 157.494C7.61928 158.298 7.43253 159.165 7.42277 160.042C7.41301 160.92 7.58043 161.791 7.91503 162.602C8.24963 163.414 8.74452 164.15 9.37008 164.765C10.2444 165.764 11.4023 166.471 12.6893 166.795C13.9762 167.118 15.3312 167.041 16.5734 166.574C17.8156 166.108 18.886 165.274 19.6419 164.183C20.3978 163.092 20.8033 161.797 20.8042 160.47V160.464Z" fill="url(#paint16_radial_299_436)"/>
<path style="mix-blend-mode:color-dodge" d="M23.8386 150.742C24.3192 150.855 24.8113 150.913 25.3051 150.914H25.3971H25.6088C27.1494 150.918 28.6411 150.374 29.818 149.38C30.6679 148.884 31.3946 148.203 31.9436 147.386C32.4925 146.57 32.8494 145.64 32.9876 144.665C33.1257 143.691 33.0415 142.699 32.7412 141.762C32.441 140.825 31.9324 139.968 31.2538 139.256C30.6901 138.518 29.9753 137.91 29.1573 137.471C28.3392 137.033 27.4369 136.774 26.5108 136.712C26.0993 136.633 25.6813 136.592 25.2621 136.59C24.1166 136.59 22.9913 136.892 21.9997 137.466C21.0081 138.039 20.1853 138.864 19.6141 139.857C18.908 140.79 18.4524 141.888 18.2906 143.047C18.1287 144.206 18.266 145.387 18.6894 146.478C19.1127 147.569 19.8081 148.534 20.7094 149.28C21.6107 150.026 22.6879 150.529 23.8386 150.742Z" fill="url(#paint17_radial_299_436)"/>
<path style="mix-blend-mode:color-dodge" d="M13.024 142.232C13.1434 140.921 12.8638 139.605 12.2219 138.456C11.58 137.308 10.6058 136.38 9.42721 135.795C8.24857 135.21 6.92056 134.994 5.61746 135.177C4.31436 135.361 3.09706 135.933 2.12533 136.821C1.15359 137.708 0.472825 138.868 0.172372 140.15C-0.128081 141.431 -0.0341826 142.773 0.441745 144C0.917672 145.226 1.75339 146.281 2.83922 147.024C3.92504 147.767 5.21024 148.165 6.52615 148.165C8.15398 148.164 9.72277 147.555 10.9249 146.457C12.1269 145.36 12.8756 143.853 13.024 142.232Z" fill="url(#paint18_radial_299_436)"/>
<path style="mix-blend-mode:color-dodge" d="M8.5633 121.943C8.64268 123.256 9.11718 124.514 9.92447 125.552C10.7318 126.59 11.8341 127.36 13.0868 127.76C14.3394 128.16 15.6838 128.172 16.9434 127.794C18.203 127.417 19.319 126.667 20.1447 125.643C20.6081 125.448 21.0476 125.199 21.4547 124.904C22.0462 124.532 22.5753 124.069 23.0224 123.533C23.4751 123.08 23.8586 122.563 24.1606 121.999C24.664 121.206 24.9902 120.315 25.117 119.385C25.2438 118.455 25.1681 117.509 24.8951 116.611C24.6221 115.713 24.1582 114.884 23.5353 114.182C22.9123 113.48 22.145 112.921 21.2859 112.543C20.1224 111.892 18.7865 111.616 17.4602 111.752C16.3389 111.143 15.0634 110.877 13.7923 110.988C12.5211 111.098 11.3105 111.579 10.3106 112.372C9.31079 113.165 8.5659 114.233 8.16853 115.446C7.77115 116.658 7.7388 117.961 8.0755 119.191C8.16694 119.69 8.3173 120.176 8.52341 120.64C8.52341 120.787 8.50194 120.946 8.50194 121.081C8.50293 121.37 8.52343 121.658 8.5633 121.943Z" fill="url(#paint19_radial_299_436)"/>
<path style="mix-blend-mode:color-dodge" d="M14.3557 101.33C15.3255 101.331 16.2832 101.115 17.1589 100.698C18.0347 100.281 18.8064 99.6746 19.4178 98.9218C19.5589 98.7715 19.6969 98.615 19.8258 98.4493C20.0668 98.2197 20.2894 97.9714 20.4915 97.7069C21.1071 97.0899 21.6244 96.3822 22.0255 95.6084C22.5064 95.0283 22.8832 94.3691 23.1391 93.6603C23.4868 92.8639 23.6719 92.0061 23.6836 91.1372C23.6954 90.2682 23.5336 89.4057 23.2076 88.6002C22.8817 87.7946 22.3982 87.0622 21.7856 86.446C21.1729 85.8297 20.4434 85.3419 19.6397 85.0113C18.8361 84.6807 17.9746 84.5138 17.1056 84.5205C16.2366 84.5271 15.3777 84.7072 14.5793 85.0502C13.7808 85.3931 13.0589 85.892 12.4557 86.5176C11.8526 87.1432 11.3804 87.8829 11.0669 88.6934C11.0516 88.7148 11.0331 88.7363 11.0178 88.7609C10.9319 88.859 10.8521 88.9572 10.7724 89.0677C10.5676 89.2688 10.3759 89.483 10.1987 89.7089C10 89.8962 9.81351 90.096 9.64032 90.3071C8.7521 91.2303 8.15541 92.3946 7.92473 93.6548C7.69405 94.9149 7.83958 96.2151 8.34316 97.3931C8.84675 98.5711 9.68608 99.5747 10.7564 100.279C11.8268 100.983 13.0807 101.356 14.3618 101.352L14.3557 101.33Z" fill="url(#paint20_radial_299_436)"/>
<defs>
<radialGradient id="paint0_radial_299_436" cx="0" cy="0" r="1" gradientUnits="userSpaceOnUse" gradientTransform="translate(232.23 149.067) scale(287.534 287.534)">
<stop offset="0.09" stop-color="#FC2A58" stop-opacity="0.71"/>
<stop offset="0.47" stop-color="#767676"/>
<stop offset="0.75" stop-color="#626262"/>
<stop offset="0.89" stop-color="#434343"/>
<stop offset="1" stop-color="#F67C7C"/>
</radialGradient>
<radialGradient id="paint1_radial_299_436" cx="0" cy="0" r="1" gradientUnits="userSpaceOnUse" gradientTransform="translate(224.873 418.678) scale(20.0243 20.0243)">
<stop stop-color="white"/>
<stop offset="1"/>
</radialGradient>
<radialGradient id="paint2_radial_299_436" cx="0" cy="0" r="1" gradientUnits="userSpaceOnUse" gradientTransform="translate(202.639 391.782) scale(15.312 15.312)">
<stop stop-color="white"/>
<stop offset="1"/>
</radialGradient>
<radialGradient id="paint3_radial_299_436" cx="0" cy="0" r="1" gradientUnits="userSpaceOnUse" gradientTransform="translate(188.506 356.768) scale(15.0911)">
<stop stop-color="white"/>
<stop offset="1"/>
</radialGradient>
<radialGradient id="paint4_radial_299_436" cx="0" cy="0" r="1" gradientUnits="userSpaceOnUse" gradientTransform="translate(222.743 342.051) scale(8.357 8.35698)">
<stop stop-color="white"/>
<stop offset="1"/>
</radialGradient>
<radialGradient id="paint5_radial_299_436" cx="0" cy="0" r="1" gradientUnits="userSpaceOnUse" gradientTransform="translate(181.759 305.153) scale(19.2788 19.2788)">
<stop stop-color="white"/>
<stop offset="1"/>
</radialGradient>
<radialGradient id="paint6_radial_299_436" cx="0" cy="0" r="1" gradientUnits="userSpaceOnUse" gradientTransform="translate(195.939 263.448) scale(7.11755 7.11756)">
<stop stop-color="white"/>
<stop offset="1"/>
</radialGradient>
<radialGradient id="paint7_radial_299_436" cx="0" cy="0" r="1" gradientUnits="userSpaceOnUse" gradientTransform="translate(182.081 269.964) scale(6.66351 6.6635)">
<stop stop-color="white"/>
<stop offset="1"/>
</radialGradient>
<radialGradient id="paint8_radial_299_436" cx="0" cy="0" r="1" gradientUnits="userSpaceOnUse" gradientTransform="translate(174.403 251.879) scale(10.5628 10.5628)">
<stop stop-color="white"/>
<stop offset="1"/>
</radialGradient>
<radialGradient id="paint9_radial_299_436" cx="0" cy="0" r="1" gradientUnits="userSpaceOnUse" gradientTransform="translate(161.385 220.132) scale(17.03 17.03)">
<stop stop-color="white"/>
<stop offset="1"/>
</radialGradient>
<radialGradient id="paint10_radial_299_436" cx="0" cy="0" r="1" gradientUnits="userSpaceOnUse" gradientTransform="translate(170.795 191.772) scale(7.14517 7.14517)">
<stop stop-color="white"/>
<stop offset="1"/>
</radialGradient>
<radialGradient id="paint11_radial_299_436" cx="0" cy="0" r="1" gradientUnits="userSpaceOnUse" gradientTransform="translate(142.883 183.811) scale(7.51639)">
<stop stop-color="white"/>
<stop offset="1"/>
</radialGradient>
<radialGradient id="paint12_radial_299_436" cx="0" cy="0" r="1" gradientUnits="userSpaceOnUse" gradientTransform="translate(141.726 201.988) scale(6.75555)">
<stop stop-color="white"/>
<stop offset="1"/>
</radialGradient>
<radialGradient id="paint13_radial_299_436" cx="0" cy="0" r="1" gradientUnits="userSpaceOnUse" gradientTransform="translate(91.1851 196.092) scale(27.645 27.645)">
<stop stop-color="white"/>
<stop offset="1"/>
</radialGradient>
<radialGradient id="paint14_radial_299_436" cx="0" cy="0" r="1" gradientUnits="userSpaceOnUse" gradientTransform="translate(68.1394 187.416) scale(7.17585 7.17585)">
<stop stop-color="white"/>
<stop offset="1"/>
</radialGradient>
<radialGradient id="paint15_radial_299_436" cx="0" cy="0" r="1" gradientUnits="userSpaceOnUse" gradientTransform="translate(28.6335 172.312) scale(9.56575 9.56576)">
<stop stop-color="white"/>
<stop offset="1"/>
</radialGradient>
<radialGradient id="paint16_radial_299_436" cx="0" cy="0" r="1" gradientUnits="userSpaceOnUse" gradientTransform="translate(14.1192 160.295) scale(6.69112 6.69112)">
<stop stop-color="white"/>
<stop offset="1"/>
</radialGradient>
<radialGradient id="paint17_radial_299_436" cx="0" cy="0" r="1" gradientUnits="userSpaceOnUse" gradientTransform="translate(25.6426 143.763) scale(7.28323)">
<stop stop-color="white"/>
<stop offset="1"/>
</radialGradient>
<radialGradient id="paint18_radial_299_436" cx="0" cy="0" r="1" gradientUnits="userSpaceOnUse" gradientTransform="translate(6.55069 141.44) scale(6.63896 6.63897)">
<stop stop-color="white"/>
<stop offset="1"/>
</radialGradient>
<radialGradient id="paint19_radial_299_436" cx="0" cy="0" r="1" gradientUnits="userSpaceOnUse" gradientTransform="translate(16.5123 119.529) scale(8.60243)">
<stop stop-color="white"/>
<stop offset="1"/>
</radialGradient>
<radialGradient id="paint20_radial_299_436" cx="0" cy="0" r="1" gradientUnits="userSpaceOnUse" gradientTransform="translate(15.7363 92.9608) scale(8.14224 8.14224)">
<stop stop-color="white"/>
<stop offset="1"/>
</radialGradient>
</defs>
</svg>
