<svg width="297" height="296" viewBox="0 0 297 296" fill="none" xmlns="http://www.w3.org/2000/svg">
<path d="M255.966 71.0222C264.607 71.0222 271.612 64.017 271.612 55.3757C271.612 46.7343 264.607 39.7291 255.966 39.7291C247.324 39.7291 240.319 46.7343 240.319 55.3757C240.319 64.017 247.324 71.0222 255.966 71.0222Z" fill="#EBEBEB"/>
<path d="M256.682 70.6552C264.928 70.6552 271.612 63.9707 271.612 55.725C271.612 47.4792 264.928 40.7947 256.682 40.7947C248.436 40.7947 241.752 47.4792 241.752 55.725C241.752 63.9707 248.436 70.6552 256.682 70.6552Z" fill="#DBDBDB"/>
<path d="M270.609 56.8735C271.243 49.1769 265.518 42.4236 257.822 41.7895C250.125 41.1554 243.372 46.8806 242.738 54.5771C242.103 62.2737 247.829 69.027 255.525 69.6611C263.222 70.2952 269.975 64.57 270.609 56.8735Z" fill="white"/>
<path opacity="0.5" d="M270.351 52.7591C263.987 56.613 253.521 62.9474 247.666 66.4165C246.014 65.0206 244.707 63.2621 243.847 61.2779L263.194 43.3463C265.002 44.2971 266.58 45.6326 267.817 47.2588C269.053 48.8851 269.918 50.7625 270.351 52.7591Z" fill="#EBEBEB"/>
<path opacity="0.5" d="M270.659 56.24C270.61 57.7968 270.298 59.334 269.736 60.7866L252.295 69.0331C251.535 68.7854 250.798 68.4704 250.093 68.0918C255.362 65.0134 264.988 59.4723 270.659 56.24Z" fill="#EBEBEB"/>
<path d="M256.824 42.7543H256.552V44.8736H256.824V42.7543Z" fill="#C7C7C7"/>
<path d="M250.318 44.4134L250.082 44.5496L251.142 46.385L251.378 46.2488L250.318 44.4134Z" fill="#C7C7C7"/>
<path d="M245.506 49.1083L245.37 49.3441L247.205 50.4038L247.341 50.168L245.506 49.1083Z" fill="#C7C7C7"/>
<path d="M245.837 55.5888H243.717V55.8611H245.837V55.5888Z" fill="#C7C7C7"/>
<path d="M247.215 61.0216L245.379 62.0813L245.516 62.3171L247.351 61.2575L247.215 61.0216Z" fill="#C7C7C7"/>
<path d="M251.154 65.0655L250.096 66.9015L250.332 67.0375L251.39 65.2015L251.154 65.0655Z" fill="#C7C7C7"/>
<path d="M256.824 66.5764H256.552V68.6957H256.824V66.5764Z" fill="#C7C7C7"/>
<path d="M262.231 65.0519L261.996 65.188L263.055 67.0235L263.291 66.8873L262.231 65.0519Z" fill="#C7C7C7"/>
<path d="M266.137 61.0187L266.001 61.2546L267.836 62.3143L267.972 62.0784L266.137 61.0187Z" fill="#C7C7C7"/>
<path d="M269.653 55.5888H267.533V55.8611H269.653V55.5888Z" fill="#C7C7C7"/>
<path d="M267.848 49.1135L266.013 50.1735L266.149 50.4093L267.985 49.3493L267.848 49.1135Z" fill="#C7C7C7"/>
<path d="M263.05 44.4253L261.991 46.2613L262.227 46.3973L263.286 44.5614L263.05 44.4253Z" fill="#C7C7C7"/>
<path d="M256.889 43.7133L257.351 56.6663L256.019 56.6485L256.528 43.7074L256.889 43.7133Z" fill="#C7C7C7"/>
<path d="M264.958 51.208L256.244 56.7669L255.611 55.6065L264.787 50.8883L264.958 51.208Z" fill="#A6A6A6"/>
<path d="M257.138 55.7249C257.138 55.8151 257.111 55.9032 257.061 55.9782C257.011 56.0532 256.94 56.1116 256.857 56.1461C256.773 56.1806 256.682 56.1896 256.593 56.172C256.505 56.1544 256.424 56.111 256.36 56.0473C256.296 55.9835 256.253 55.9023 256.235 55.8139C256.217 55.7254 256.227 55.6338 256.261 55.5505C256.296 55.4672 256.354 55.396 256.429 55.3459C256.504 55.2958 256.592 55.2691 256.682 55.2691C256.803 55.2691 256.919 55.3171 257.004 55.4026C257.09 55.4881 257.138 55.604 257.138 55.7249Z" fill="#C7C7C7"/>
<path d="M204.053 196.728C204.053 196.728 213.324 194.626 218.403 189.949C223.483 185.272 226.318 176.884 226.318 176.884C222.795 177.557 219.322 178.469 215.923 179.613C214.65 180.922 213.59 182.422 212.779 184.059C212.701 183 212.701 181.938 212.779 180.88C211.594 181.393 210.484 182.066 209.482 182.881C205.243 186.569 204.053 196.728 204.053 196.728Z" fill="#DBDBDB"/>
<path d="M220.534 180.957C221.795 180.081 223.08 179.24 224.341 178.358C224.358 178.348 224.369 178.331 224.374 178.312C224.378 178.293 224.375 178.274 224.365 178.257C224.355 178.241 224.338 178.229 224.319 178.224C224.3 178.22 224.281 178.223 224.264 178.233C221.896 179.66 219.528 181.193 217.243 182.78C216.45 183.336 215.668 183.917 214.875 184.509L215.035 184.23C215.313 183.769 215.627 183.313 215.899 182.857C216.481 181.927 217.14 181.047 217.87 180.228C217.87 180.199 217.87 180.152 217.823 180.187C217.101 181.016 216.379 181.839 215.722 182.721C215.408 183.141 215.13 183.579 214.839 184.023C214.697 184.254 214.555 184.485 214.425 184.722L214.283 184.959C213.099 185.9 211.915 186.883 210.808 187.919C210.121 188.562 209.456 189.225 208.813 189.908C209.174 188.789 209.488 187.652 209.902 186.551C209.902 186.543 209.899 186.536 209.893 186.53C209.888 186.525 209.88 186.521 209.873 186.521C209.865 186.521 209.857 186.525 209.852 186.53C209.846 186.536 209.843 186.543 209.843 186.551C209.44 187.735 208.996 188.872 208.659 190.068C207.949 190.833 207.274 191.623 206.634 192.436C206.634 192.388 206.634 192.335 206.664 192.288C206.77 191.849 206.883 191.411 206.995 190.979C207.22 190.139 207.469 189.31 207.753 188.487C208.286 186.779 209.129 185.183 210.24 183.78C210.269 183.751 210.24 183.709 210.198 183.739C208.459 185.903 207.244 188.44 206.646 191.151C206.544 191.546 206.449 191.94 206.362 192.335C206.315 192.542 206.261 192.761 206.226 192.974C205.942 193.369 205.669 193.754 205.409 194.129C203.827 196.545 202.511 199.125 201.484 201.825C200.331 204.855 199.343 207.946 198.524 211.084C198.524 211.096 198.529 211.108 198.538 211.117C198.547 211.126 198.559 211.131 198.571 211.131C198.584 211.131 198.596 211.126 198.605 211.117C198.614 211.108 198.619 211.096 198.619 211.084C200.436 205.661 202.283 200.161 205.385 195.313C206.042 194.291 206.749 193.303 207.505 192.353C209.039 192.249 210.553 191.947 212.01 191.453C213.601 190.917 215.119 190.183 216.527 189.268C217.331 188.731 218.104 188.148 218.841 187.522C218.877 187.492 218.841 187.445 218.806 187.475C217.51 188.517 216.081 189.381 214.555 190.044C213.056 190.731 211.489 191.257 209.878 191.613C209.198 191.761 208.505 191.873 207.806 191.968C208.665 190.91 209.578 189.899 210.542 188.937C210.855 188.623 211.175 188.345 211.501 188.025C212.58 187.27 213.725 186.614 214.922 186.066C216.444 185.332 217.936 184.55 219.439 183.786C220.292 183.354 221.132 182.916 221.985 182.496C222.02 182.496 221.985 182.425 221.955 182.443C220.428 183.177 218.883 183.869 217.344 184.574C215.899 185.231 214.437 185.9 213.046 186.681L212.868 186.782C214.123 185.693 215.426 184.651 216.758 183.644C218.009 182.733 219.268 181.837 220.534 180.957Z" fill="#A6A6A6"/>
<path d="M220.008 185.734C219.25 186.066 218.486 186.356 217.74 186.705C216.994 187.054 216.243 187.486 215.514 187.919C215.485 187.919 215.514 187.978 215.544 187.966C216.284 187.611 217.03 187.279 217.764 186.912C218.498 186.545 219.256 186.131 220.025 185.793C220.061 185.781 220.043 185.716 220.008 185.734Z" fill="#A6A6A6"/>
<path d="M173.956 150.025C175.667 152.234 176.635 154.928 176.721 157.721C176.756 158.549 176.62 159.71 176.525 161.071C178.839 162.413 180.889 164.164 182.576 166.24C180.724 165.165 178.598 164.657 176.46 164.777C176.512 165.708 176.631 166.634 176.815 167.548C178.164 167.546 179.5 167.809 180.746 168.323C179.526 168.308 178.316 168.548 177.194 169.028C178.846 174.285 183.76 179.684 197.322 181.975C198.758 175.529 197.908 168.784 194.919 162.895C190.858 154.903 173.956 150.025 173.956 150.025Z" fill="#DBDBDB"/>
<path d="M202.011 204.465C201.782 202.219 201.49 199.982 201.135 197.752C200.449 193.284 199.536 188.854 198.4 184.479C197.873 182.425 197.222 180.404 196.452 178.429C196.493 178.069 196.511 177.707 196.505 177.345C196.505 176.907 196.505 176.475 196.505 176.037C196.505 175.173 196.458 174.303 196.381 173.438C196.242 171.723 195.963 170.022 195.546 168.353C195.298 167.388 195.013 166.435 194.729 165.482C194.729 165.474 194.726 165.466 194.721 165.461C194.715 165.455 194.708 165.452 194.7 165.452C194.692 165.452 194.684 165.455 194.679 165.461C194.673 165.466 194.67 165.474 194.67 165.482C195.119 167.148 195.453 168.843 195.671 170.555C195.911 172.243 196.063 173.943 196.126 175.646C196.126 176.114 196.126 176.576 196.126 177.044C196.126 177.239 196.126 177.44 196.126 177.636C195.463 176.012 194.702 174.431 193.847 172.9C192.467 170.476 190.914 168.155 189.2 165.955C189.197 165.699 189.161 165.445 189.093 165.198C189.028 164.896 188.963 164.606 188.892 164.292C188.754 163.672 188.6 163.057 188.43 162.445C188.093 161.213 187.649 160.029 187.246 158.816C187.246 158.808 187.243 158.8 187.238 158.795C187.232 158.789 187.225 158.786 187.217 158.786C187.209 158.786 187.201 158.789 187.196 158.795C187.19 158.8 187.187 158.808 187.187 158.816C187.548 160 187.779 161.261 188.057 162.48C188.194 163.072 188.33 163.664 188.46 164.298L188.655 165.209C188.653 165.231 188.653 165.253 188.655 165.275C188.105 164.582 187.548 163.901 186.974 163.232C184.387 160.195 181.545 157.395 178.686 154.613C178.337 154.269 177.976 153.938 177.62 153.6C177.591 153.571 177.549 153.6 177.579 153.648C180.308 156.495 182.996 159.378 185.541 162.392C186.133 163.108 186.725 163.836 187.317 164.57C187.01 164.357 186.725 164.156 186.394 163.978C185.607 163.463 184.807 162.96 183.984 162.498C183.162 162.036 182.333 161.586 181.486 161.172C180.64 160.758 179.71 160.385 178.846 159.899C178.81 159.899 178.781 159.941 178.816 159.952C179.673 160.351 180.5 160.81 181.291 161.326C182.114 161.817 182.943 162.309 183.748 162.824C184.553 163.339 185.346 163.824 186.116 164.339C186.779 164.771 187.424 165.239 188.111 165.63C189.682 167.652 191.133 169.765 192.456 171.958C193.275 173.339 194.024 174.759 194.7 176.215L194.214 176.002L192.971 175.451L190.573 174.403C189.052 173.746 187.507 173.136 186.015 172.408C185.174 172.014 184.361 171.563 183.582 171.058C183.546 171.058 183.517 171.088 183.552 171.112C186.329 173.03 189.472 174.38 192.527 175.741L193.859 176.333C194.226 176.493 194.593 176.676 194.972 176.819C195.883 178.856 196.648 180.955 197.263 183.1C198.48 187.418 199.468 191.797 200.223 196.218C200.999 200.647 201.525 205.098 201.934 209.586C201.981 210.142 202.035 210.705 202.094 211.261C202.094 211.308 202.112 211.353 202.146 211.387C202.179 211.42 202.224 211.439 202.271 211.439C202.318 211.439 202.364 211.42 202.397 211.387C202.43 211.353 202.449 211.308 202.449 211.261C202.484 208.976 202.248 206.726 202.011 204.465Z" fill="#A6A6A6"/>
<path d="M193.764 167.015C193.516 165.642 193.172 164.292 192.776 162.942C192.776 162.934 192.773 162.927 192.767 162.921C192.762 162.916 192.754 162.912 192.746 162.912C192.738 162.912 192.731 162.916 192.725 162.921C192.72 162.927 192.717 162.934 192.717 162.942C193.06 164.268 193.309 165.618 193.551 166.962C193.794 168.306 194.031 169.709 194.226 171.106H194.262C194.173 169.734 194.007 168.368 193.764 167.015Z" fill="#A6A6A6"/>
<path d="M187.921 170.756C186.973 170.137 185.984 169.583 184.961 169.099C184.464 168.844 183.961 168.602 183.463 168.359C182.966 168.116 182.41 167.897 181.901 167.643C181.865 167.643 181.83 167.678 181.871 167.696C182.362 167.944 182.836 168.246 183.321 168.513L184.825 169.336C185.801 169.903 186.805 170.421 187.832 170.887C187.85 170.898 187.871 170.903 187.891 170.899C187.912 170.895 187.93 170.883 187.942 170.866C187.954 170.849 187.958 170.827 187.954 170.807C187.95 170.786 187.938 170.768 187.921 170.756Z" fill="#A6A6A6"/>
<path opacity="0.1" d="M204.225 180.672C204.225 180.672 212.797 178.624 216.734 172.87C220.499 167.376 221.713 158.011 221.807 157.188C221.653 157.946 219.883 166.127 214.046 169.94C209.577 172.864 205.255 175.268 204.225 180.672Z" fill="#A6A6A6"/>
<path d="M212.14 165.855C210.615 167.257 209.519 169.064 208.979 171.064C209.611 169.113 210.701 167.341 212.158 165.896C212.211 165.873 212.17 165.825 212.14 165.855Z" fill="#A6A6A6"/>
<path d="M204.225 180.672C204.225 180.672 212.797 178.624 216.734 172.87C220.499 167.376 221.713 158.011 221.807 157.188C221.81 157.168 221.81 157.148 221.807 157.129C221.807 157.129 217.663 162.978 213.371 164.469C209.079 165.961 202.964 171.118 204.225 180.672Z" fill="#DBDBDB"/>
<path d="M220.298 160.355C219.531 161.932 218.644 163.448 217.646 164.89C216.638 166.26 215.442 167.482 214.094 168.519C212.91 169.442 211.726 170.295 210.542 171.189L210.571 171.147C210.79 170.816 211.027 170.502 211.276 170.188C211.761 169.561 212.3 168.969 212.838 168.383C213.904 167.228 214.993 166.092 215.946 164.831C216.478 164.138 216.94 163.394 217.326 162.611C217.326 162.575 217.284 162.557 217.267 162.611C215.875 165.511 213.093 167.347 211.116 169.809C210.832 170.156 210.568 170.518 210.322 170.893C210.125 171.165 209.958 171.459 209.825 171.769C208.74 172.64 207.759 173.633 206.901 174.729C206.976 174.167 207.091 173.611 207.244 173.065C207.442 172.301 207.749 171.57 208.156 170.893C208.156 170.857 208.12 170.822 208.102 170.857C207.686 171.536 207.35 172.261 207.102 173.018C206.921 173.62 206.816 174.243 206.788 174.871C206.367 175.438 205.981 176.031 205.634 176.647L205.74 176.096C205.906 175.244 206.096 174.391 206.332 173.545C206.736 171.828 207.433 170.194 208.393 168.714C208.393 168.714 208.363 168.649 208.339 168.679C207.358 170.142 206.589 171.736 206.054 173.415C205.782 174.255 205.563 175.114 205.373 175.972C205.279 176.398 205.19 176.819 205.113 177.245C205.071 177.464 205.024 177.689 204.989 177.914C204.139 179.782 203.474 181.729 203.005 183.727C202.168 187.304 201.561 190.93 201.188 194.584C200.742 198.406 200.544 202.252 200.596 206.099C200.596 206.578 200.631 207.064 200.655 207.543C200.655 207.668 200.85 207.685 200.856 207.543C200.939 205.637 200.987 203.737 201.099 201.836C201.212 199.936 201.377 198.03 201.585 196.136C201.969 192.409 202.562 188.707 203.361 185.047C204.053 181.916 204.953 178.754 206.67 176.008C207.523 174.642 208.565 173.404 209.766 172.331C210.95 171.254 212.282 170.307 213.549 169.306C214.832 168.331 215.999 167.211 217.024 165.967C218.07 164.581 218.982 163.098 219.747 161.539L220.339 160.355C220.369 160.355 220.315 160.32 220.298 160.355Z" fill="#A6A6A6"/>
<path d="M172.772 176.884C172.772 176.884 172.636 189.067 179.923 192.584C187.211 196.1 191.112 193.176 196.067 194.36C195.878 194.069 192.343 188.99 186.719 187.587C180.912 186.137 174.506 181.957 172.772 176.884Z" fill="#DBDBDB"/>
<path opacity="0.1" d="M172.772 176.884C172.772 176.884 172.636 189.067 179.923 192.584C187.211 196.1 191.112 193.176 196.067 194.36C193.451 193.111 190.654 192.286 187.779 191.915C183.162 191.352 174.382 188.357 172.772 176.884Z" fill="#A6A6A6"/>
<path d="M196.529 194.567C195.661 193.778 194.684 193.118 193.628 192.607C193.474 192.53 193.314 192.471 193.155 192.406C192.995 192.341 192.995 192.216 192.912 192.122C192.693 191.897 192.462 191.678 192.225 191.471C191.768 191.077 191.276 190.724 190.757 190.417C189.573 189.706 188.229 189.233 186.992 188.552C186.956 188.552 186.927 188.588 186.992 188.605C187.584 188.919 188.176 189.268 188.768 189.618C189.36 189.967 189.952 190.275 190.496 190.636C191.005 190.959 191.488 191.322 191.941 191.719C192.071 191.832 192.19 191.956 192.314 192.08C191.509 191.805 190.686 191.586 189.851 191.423C188.519 191.151 187.169 190.961 185.837 190.677C185.183 190.538 184.537 190.364 183.902 190.156C183.31 189.671 182.718 189.185 182.126 188.659C181.432 188.023 180.8 187.323 180.237 186.569C180.237 186.569 180.16 186.569 180.184 186.604C181.069 187.8 182.07 188.904 183.173 189.902C182.86 189.777 182.546 189.653 182.244 189.511C179.74 188.391 177.592 186.606 176.034 184.349C176.034 184.313 175.957 184.349 175.981 184.378C177.302 186.317 179.012 187.959 181.001 189.203C181.996 189.826 183.061 190.331 184.174 190.707C185.468 191.106 186.787 191.416 188.123 191.636C189.429 191.85 190.719 192.157 191.982 192.554C193.144 192.95 194.237 193.525 195.221 194.259C197.078 195.701 198.574 197.555 199.59 199.676C200.889 202.478 201.702 205.481 201.993 208.556C201.993 208.686 202.212 208.686 202.2 208.556C201.845 203.459 200.478 198.125 196.529 194.567Z" fill="#A6A6A6"/>
<path d="M188.069 190.624C187.69 190.055 187.175 189.59 186.572 189.268C185.883 188.906 185.278 188.404 184.796 187.794C184.796 187.759 184.719 187.794 184.742 187.824C185.181 188.382 185.714 188.859 186.317 189.233C186.98 189.585 187.564 190.069 188.034 190.654L188.069 190.624Z" fill="#A6A6A6"/>
<path d="M191.941 203.565L192.272 210.267L193.285 230.744H208.57L209.588 210.267L209.92 203.565H191.941Z" fill="#EBEBEB"/>
<path d="M191.941 203.565L192.272 210.267H209.588L209.92 203.565H191.941Z" fill="#DBDBDB"/>
<path d="M190.87 207.164H210.998V200.771H190.87V207.164Z" fill="#EBEBEB"/>
<path d="M47.8599 99.6513L45.2314 105.447L47.0074 106.246C47.2619 106.364 47.4786 106.551 47.6333 106.785C47.788 107.019 47.8747 107.292 47.8836 107.572C47.8836 107.886 47.931 108.2 47.9783 108.519C48.0221 108.794 47.99 109.075 47.8857 109.333C47.7814 109.591 47.6087 109.815 47.3863 109.982L45.7998 111.112L49.5057 116.287L51.0922 115.156C51.32 114.993 51.5884 114.897 51.8675 114.879C52.1466 114.86 52.4254 114.919 52.6729 115.049C52.9536 115.197 53.2422 115.329 53.5372 115.446C53.7988 115.546 54.0279 115.715 54.1992 115.937C54.3705 116.158 54.4774 116.423 54.5081 116.701L54.6975 118.643L61.026 118.015L60.8366 116.067C60.8111 115.79 60.8635 115.51 60.9879 115.26C61.1123 115.01 61.3039 114.8 61.541 114.653L61.9318 114.386C62.0561 114.297 62.1863 114.203 62.3047 114.102C62.5199 113.925 62.78 113.812 63.056 113.774C63.3319 113.736 63.6129 113.776 63.8676 113.889L65.6436 114.7L68.2721 108.904L66.4961 108.099C66.2417 107.98 66.0249 107.793 65.8694 107.56C65.7138 107.326 65.6255 107.054 65.614 106.773C65.602 106.458 65.5724 106.144 65.5252 105.832C65.4808 105.557 65.5125 105.276 65.6169 105.018C65.7213 104.76 65.8943 104.536 66.1172 104.37L67.7038 103.233L63.9978 98.0589L62.4113 99.1955C62.183 99.357 61.9143 99.452 61.6352 99.4698C61.3561 99.4875 61.0776 99.4274 60.8306 99.2961C60.5512 99.1534 60.2647 99.025 59.9722 98.9113C59.7161 98.8126 59.4919 98.6457 59.3239 98.4286C59.1559 98.2116 59.0505 97.9527 59.0191 97.68L58.8238 95.7382L52.4953 96.3657L52.6847 98.3075C52.707 98.5784 52.6555 98.8502 52.5356 99.0942C52.4158 99.3381 52.232 99.545 52.0039 99.6928C51.8691 99.7747 51.7387 99.8636 51.6132 99.9592C51.483 100.048 51.3586 100.143 51.2343 100.237C51.0194 100.417 50.7586 100.533 50.4813 100.571C50.204 100.61 49.9214 100.57 49.6655 100.456L47.8599 99.6513ZM53.7148 102.937C54.5516 102.333 55.5489 101.99 56.5804 101.953C57.6119 101.916 58.6312 102.186 59.5093 102.729C60.3873 103.271 61.0847 104.062 61.513 105.001C61.9414 105.94 62.0815 106.985 61.9156 108.004C61.7496 109.023 61.2852 109.969 60.581 110.724C59.8768 111.478 58.9645 112.007 57.9597 112.243C56.9548 112.479 55.9026 112.411 54.9362 112.049C53.9698 111.686 53.1327 111.045 52.5308 110.207C51.7248 109.085 51.3973 107.689 51.6204 106.325C51.8436 104.962 52.5991 103.743 53.7207 102.937H53.7148Z" fill="#EBEBEB"/>
<path d="M258.612 157.934L254.752 160.16L255.433 161.344C255.531 161.514 255.579 161.709 255.573 161.905C255.567 162.102 255.506 162.293 255.397 162.457C255.279 162.64 255.167 162.836 255.066 163.049C254.979 163.224 254.845 163.373 254.679 163.477C254.512 163.582 254.321 163.638 254.125 163.641H252.757V168.098H254.125C254.321 168.101 254.512 168.157 254.679 168.262C254.845 168.366 254.979 168.515 255.066 168.69C255.165 168.894 255.276 169.091 255.397 169.282C255.506 169.446 255.567 169.637 255.573 169.834C255.579 170.03 255.531 170.225 255.433 170.395L254.752 171.579L258.612 173.805L259.299 172.621C259.399 172.452 259.543 172.314 259.717 172.222C259.89 172.13 260.086 172.088 260.281 172.1H260.607H260.939C261.133 172.089 261.327 172.131 261.499 172.221C261.671 172.312 261.815 172.448 261.915 172.615L262.602 173.799L266.462 171.573L265.781 170.389C265.683 170.219 265.634 170.024 265.642 169.827C265.649 169.63 265.712 169.439 265.823 169.276C265.944 169.086 266.055 168.888 266.154 168.684C266.24 168.508 266.374 168.359 266.54 168.254C266.707 168.15 266.899 168.094 267.095 168.092H268.457V163.635H267.095C266.899 163.634 266.707 163.578 266.54 163.473C266.374 163.368 266.24 163.219 266.154 163.043C266.053 162.847 265.941 162.658 265.823 162.451C265.712 162.289 265.65 162.099 265.642 161.903C265.635 161.707 265.683 161.513 265.781 161.344L266.462 160.16L262.602 157.934L261.921 159.118C261.821 159.287 261.677 159.425 261.503 159.517C261.33 159.609 261.134 159.651 260.939 159.639H260.607H260.281C260.086 159.651 259.89 159.609 259.717 159.517C259.543 159.425 259.399 159.287 259.299 159.118L258.612 157.934ZM260.607 162.196C261.33 162.196 262.036 162.411 262.637 162.812C263.238 163.214 263.706 163.785 263.982 164.452C264.258 165.12 264.33 165.855 264.189 166.564C264.048 167.272 263.699 167.923 263.188 168.434C262.676 168.944 262.025 169.292 261.316 169.432C260.607 169.572 259.872 169.499 259.205 169.222C258.538 168.944 257.968 168.475 257.567 167.874C257.166 167.272 256.953 166.566 256.954 165.843C256.956 165.363 257.052 164.887 257.238 164.444C257.424 164.001 257.695 163.599 258.037 163.261C258.379 162.924 258.784 162.657 259.229 162.476C259.674 162.295 260.15 162.204 260.631 162.208L260.607 162.196Z" fill="#EBEBEB"/>
<path d="M33.3974 88.3856L36.1029 91.9376L37.1862 91.1088C37.3418 90.9883 37.5284 90.9143 37.7243 90.8954C37.9203 90.8766 38.1175 90.9136 38.2933 91.0022C38.4945 91.0969 38.7017 91.1798 38.8853 91.2568C39.0703 91.3213 39.2339 91.4355 39.3582 91.587C39.4824 91.7384 39.5626 91.9212 39.5897 92.1152L39.7673 93.4709L44.1896 92.8789L44.012 91.5291C43.9875 91.3341 44.0178 91.1362 44.0993 90.9575C44.1809 90.7787 44.3105 90.6261 44.4737 90.5168C44.6573 90.3925 44.8289 90.2563 45.0006 90.1142C45.1483 89.9853 45.3289 89.8999 45.5223 89.8675C45.7156 89.8351 45.9142 89.857 46.0958 89.9307L47.3568 90.4576L49.0677 86.3136L47.8245 85.84C47.645 85.7622 47.4905 85.6366 47.3777 85.4768C47.2649 85.317 47.1983 85.1293 47.1851 84.9342C47.1851 84.8217 47.1851 84.7152 47.1496 84.6027C47.1141 84.4902 47.1496 84.3896 47.1022 84.283C47.0623 84.0907 47.0772 83.8911 47.1452 83.7069C47.2133 83.5227 47.3317 83.3613 47.487 83.2411L48.5763 82.4064L45.8709 78.8544L44.7816 79.6832C44.6254 79.8024 44.4389 79.8756 44.2433 79.8944C44.0476 79.9132 43.8507 79.877 43.6745 79.7897C43.4823 79.6934 43.2847 79.6084 43.0825 79.5352C42.8976 79.4707 42.7339 79.3564 42.6097 79.205C42.4854 79.0536 42.4052 78.8708 42.3781 78.6768L42.2005 77.3211L37.7782 77.9131L37.9558 79.2688C37.9795 79.4631 37.9496 79.6601 37.8692 79.8386C37.7889 80.017 37.6612 80.1701 37.5 80.2811C37.317 80.4053 37.1411 80.5397 36.9731 80.6837C36.8242 80.8125 36.6426 80.8978 36.4483 80.9301C36.2541 80.9625 36.0547 80.9407 35.872 80.8672L34.611 80.3403L32.9001 84.4843L34.1611 85.0112C34.3273 85.0841 34.4719 85.1987 34.5808 85.3439C34.6897 85.4891 34.7592 85.66 34.7827 85.84L34.8182 86.1656C34.8182 86.2781 34.8478 86.3846 34.8715 86.4912C34.9094 86.684 34.8929 86.8836 34.8239 87.0676C34.7549 87.2516 34.6361 87.4127 34.4808 87.5331L33.3974 88.3856ZM37.3638 85.8518C37.2714 85.1354 37.3936 84.4076 37.7148 83.7606C38.036 83.1135 38.5418 82.5762 39.1683 82.2167C39.7949 81.8571 40.514 81.6914 41.2347 81.7405C41.9554 81.7896 42.6454 82.0512 43.2174 82.4925C43.7894 82.9337 44.2177 83.5346 44.4482 84.2192C44.6787 84.9038 44.701 85.6414 44.5123 86.3387C44.3236 87.036 43.9324 87.6617 43.3881 88.1367C42.8439 88.6117 42.171 88.9146 41.4545 89.0072C40.9778 89.0694 40.4934 89.0367 40.0293 88.9109C39.5652 88.7852 39.1305 88.569 38.7503 88.2746C38.3701 87.9802 38.0519 87.6136 37.8139 87.1958C37.576 86.7779 37.423 86.3172 37.3638 85.84V85.8518Z" fill="#EBEBEB"/>
<path d="M22.1553 230.744L53.7444 230.596L85.3276 230.548L148.5 230.448L211.672 230.543L243.255 230.596L274.845 230.744L243.255 230.886L211.672 230.939L148.5 231.04L85.3276 230.939L53.7444 230.886L22.1553 230.744Z" fill="#263238"/>
<path d="M229.657 255.845C256.863 255.845 278.918 252.341 278.918 248.018C278.918 243.696 256.863 240.192 229.657 240.192C202.452 240.192 180.397 243.696 180.397 248.018C180.397 252.341 202.452 255.845 229.657 255.845Z" fill="#EBEBEB"/>
<path d="M130.977 277.802C189.08 277.802 236.181 271.287 236.181 263.251C236.181 255.214 189.08 248.699 130.977 248.699C72.874 248.699 25.7725 255.214 25.7725 263.251C25.7725 271.287 72.874 277.802 130.977 277.802Z" fill="#EBEBEB"/>
<path d="M228.852 38.6813H68.053V144.963H228.852V38.6813Z" fill="#EBEBEB"/>
<path d="M232.777 33.4717H64.2288V38.6754H232.777V33.4717Z" fill="#455A64"/>
<path d="M101.193 53.2386H75.8022V83.324H101.193V53.2386Z" fill="white"/>
<path d="M89.4123 55.2869C89.4135 55.4689 89.3605 55.6471 89.2602 55.7989C89.1598 55.9507 89.0165 56.0692 88.8486 56.1394C88.6807 56.2096 88.4957 56.2283 88.3172 56.193C88.1386 56.1578 87.9746 56.0703 87.8459 55.9416C87.7172 55.8129 87.6297 55.6489 87.5945 55.4704C87.5593 55.2918 87.5779 55.1068 87.6481 54.9389C87.7183 54.771 87.8368 54.6278 87.9886 54.5274C88.1405 54.427 88.3187 54.374 88.5006 54.3752C88.6204 54.3752 88.7389 54.3988 88.8495 54.4446C88.9601 54.4904 89.0606 54.5576 89.1453 54.6422C89.23 54.7269 89.2971 54.8274 89.3429 54.938C89.3887 55.0486 89.4123 55.1672 89.4123 55.2869Z" fill="#455A64"/>
<path d="M80.6331 59.2651C83.2023 59.0697 85.7716 59.0579 88.3291 59.0283C90.8865 58.9987 93.4617 59.0697 96.0251 59.2651C93.4558 59.4664 90.8924 59.4782 88.3291 59.5078C85.7657 59.5374 83.2023 59.4664 80.6331 59.2651Z" fill="#EBEBEB"/>
<path d="M80.6331 61.6449C83.4159 61.3213 86.227 61.3213 89.0099 61.6449C86.2265 61.9607 83.4164 61.9607 80.6331 61.6449Z" fill="#EBEBEB"/>
<path d="M80.6331 64.0189C82.4091 63.8354 84.1851 63.7939 85.9611 63.7821C87.7371 63.7703 89.5131 63.8354 91.2891 64.0189C89.5131 64.2084 87.7371 64.2498 85.9611 64.2616C84.1851 64.2735 82.4209 64.2084 80.6331 64.0189Z" fill="#EBEBEB"/>
<path d="M80.6331 66.3987C82.8649 66.2152 85.0967 66.1679 87.3286 66.1619C89.5604 66.156 91.7923 66.2093 94.0182 66.3987C91.7923 66.5882 89.5604 66.6296 87.3286 66.6355C85.0967 66.6415 82.8649 66.5823 80.6331 66.3987Z" fill="#EBEBEB"/>
<path d="M80.6331 68.7786C82.5748 68.5891 84.5107 68.5477 86.4465 68.5358C88.3823 68.524 90.3241 68.5891 92.2659 68.7786C90.3241 68.9621 88.3883 69.0094 86.4465 69.0154C84.5047 69.0213 82.5748 68.9621 80.6331 68.7786Z" fill="#EBEBEB"/>
<path d="M80.6331 71.1525C83.1135 70.9571 85.594 70.9453 88.0745 70.9157C90.555 70.8861 93.0414 70.9571 95.5219 71.1525C93.0414 71.3538 90.5609 71.3656 88.0745 71.3952C85.5881 71.4248 83.1135 71.3538 80.6331 71.1525Z" fill="#EBEBEB"/>
<path d="M80.6331 73.5323C83.8296 73.2087 87.0506 73.2087 90.2471 73.5323C87.0502 73.8481 83.83 73.8481 80.6331 73.5323Z" fill="#EBEBEB"/>
<path d="M80.6331 75.9062C83.2023 75.7109 85.7716 75.699 88.3291 75.6694C90.8865 75.6398 93.4617 75.7109 96.0251 75.9062C93.4558 76.1075 90.8924 76.1193 88.3291 76.1489C85.7657 76.1785 83.2023 76.1075 80.6331 75.9062Z" fill="#EBEBEB"/>
<path d="M80.6331 78.2861C83.2023 78.0907 85.7716 78.0789 88.3291 78.0493C90.8865 78.0197 93.4617 78.0848 96.0251 78.2861C93.4558 78.4874 90.8924 78.4992 88.3291 78.5229C85.7657 78.5465 83.2023 78.4814 80.6331 78.2861Z" fill="#EBEBEB"/>
<path d="M221.346 79.0853H201.466V102.641H221.346V79.0853Z" fill="white"/>
<path d="M212.093 81.1454C212.094 81.2815 212.055 81.4148 211.98 81.5285C211.905 81.6423 211.798 81.7312 211.673 81.7841C211.547 81.837 211.409 81.8514 211.276 81.8256C211.142 81.7998 211.019 81.7348 210.922 81.639C210.826 81.5432 210.76 81.4209 210.733 81.2875C210.706 81.1541 210.719 81.0158 210.771 80.8899C210.823 80.7641 210.911 80.6565 211.024 80.5808C211.137 80.5051 211.27 80.4646 211.406 80.4646C211.496 80.4638 211.585 80.4809 211.668 80.5147C211.752 80.5486 211.827 80.5986 211.891 80.6619C211.955 80.7252 212.006 80.8005 212.04 80.8835C212.075 80.9665 212.093 81.0555 212.093 81.1454Z" fill="#455A64"/>
<path d="M204.651 85.5085C206.026 85.3141 207.421 85.3141 208.795 85.5085C207.421 85.7028 206.026 85.7028 204.651 85.5085Z" fill="#EBEBEB"/>
<path d="M204.651 87.1897C206.445 86.9845 208.256 86.9845 210.05 87.1897C208.256 87.3871 206.445 87.3871 204.651 87.1897Z" fill="#EBEBEB"/>
<path d="M204.651 88.8651C206.313 88.6678 207.992 88.6678 209.654 88.8651C207.992 89.0704 206.312 89.0704 204.651 88.8651Z" fill="#EBEBEB"/>
<path d="M204.651 90.576C206.313 90.3787 207.992 90.3787 209.654 90.576C207.992 90.7733 206.313 90.7733 204.651 90.576Z" fill="#EBEBEB"/>
<path d="M204.651 92.2277C206.092 92.0222 207.555 92.0222 208.996 92.2277C207.555 92.425 206.093 92.425 204.651 92.2277Z" fill="#EBEBEB"/>
<path d="M204.651 93.903C206.501 93.7057 208.366 93.7057 210.216 93.903C208.367 94.1083 206.5 94.1083 204.651 93.903Z" fill="#EBEBEB"/>
<path d="M204.651 95.5843C206.176 95.3869 207.72 95.3869 209.245 95.5843C207.72 95.7817 206.176 95.7817 204.651 95.5843Z" fill="#EBEBEB"/>
<path d="M204.651 97.2656C206.564 97.0604 208.493 97.0604 210.405 97.2656C208.492 97.463 206.564 97.463 204.651 97.2656Z" fill="#EBEBEB"/>
<path d="M204.651 98.941C206.564 98.7436 208.492 98.7436 210.405 98.941C208.493 99.1462 206.564 99.1462 204.651 98.941Z" fill="#EBEBEB"/>
<path d="M212.868 85.5085C214.682 85.3111 216.512 85.3111 218.326 85.5085C216.512 85.7058 214.682 85.7058 212.868 85.5085Z" fill="#EBEBEB"/>
<path d="M212.868 87.1898C214.055 86.9846 215.269 86.9846 216.456 87.1898C215.268 87.3871 214.056 87.3871 212.868 87.1898Z" fill="#EBEBEB"/>
<path d="M212.868 88.8651C214.575 88.6678 216.3 88.6678 218.007 88.8651C216.3 89.0704 214.575 89.0704 212.868 88.8651Z" fill="#EBEBEB"/>
<path d="M212.868 90.576C214.528 90.3786 216.205 90.3786 217.865 90.576C216.205 90.7733 214.528 90.7733 212.868 90.576Z" fill="#EBEBEB"/>
<path d="M212.868 92.2276C214.682 92.0224 216.513 92.0224 218.326 92.2276C216.512 92.425 214.682 92.425 212.868 92.2276Z" fill="#EBEBEB"/>
<path d="M212.868 93.903C214.31 93.7057 215.772 93.7057 217.213 93.903C215.772 94.1085 214.309 94.1085 212.868 93.903Z" fill="#EBEBEB"/>
<path d="M212.868 95.5843C214.575 95.387 216.3 95.387 218.007 95.5843C216.3 95.7816 214.575 95.7816 212.868 95.5843Z" fill="#EBEBEB"/>
<path d="M212.868 97.2656C214.184 97.0604 215.524 97.0604 216.84 97.2656C215.524 97.4629 214.185 97.4629 212.868 97.2656Z" fill="#EBEBEB"/>
<path d="M212.868 98.941C214.131 98.7436 215.417 98.7436 216.681 98.941C215.418 99.1462 214.131 99.1462 212.868 98.941Z" fill="#EBEBEB"/>
<path d="M111.861 71.78H96.5874V87.0536H111.861V71.78Z" fill="#FC2A58"/>
<path d="M105.136 73.3311C105.136 73.5114 105.082 73.6876 104.982 73.8376C104.882 73.9875 104.74 74.1043 104.573 74.1733C104.406 74.2423 104.223 74.2604 104.046 74.2252C103.869 74.19 103.707 74.1032 103.58 73.9757C103.452 73.8482 103.365 73.6858 103.33 73.5089C103.295 73.3321 103.313 73.1488 103.382 72.9822C103.451 72.8156 103.568 72.6732 103.718 72.573C103.868 72.4728 104.044 72.4194 104.224 72.4194C104.344 72.4194 104.462 72.443 104.573 72.4888C104.684 72.5346 104.784 72.6017 104.869 72.6864C104.953 72.7711 105.021 72.8716 105.066 72.9822C105.112 73.0928 105.136 73.2113 105.136 73.3311Z" fill="#455A64"/>
<path d="M228.852 38.6813H68.053V45.4419H228.852V38.6813Z" fill="#DBDBDB"/>
<path d="M119.018 53.8187L144.8 53.7654L170.587 53.8187L144.8 53.872L119.018 53.8187Z" fill="#C7C7C7"/>
<path d="M119.018 55.9203L144.8 55.8671L170.587 55.9203L144.8 55.9795L119.018 55.9203Z" fill="#C7C7C7"/>
<path d="M119.018 58.0278L144.8 57.9686L170.587 58.0278L144.8 58.0811L119.018 58.0278Z" fill="#C7C7C7"/>
<path d="M119.018 60.1295L144.8 60.0703L170.587 60.1295L144.8 60.1827L119.018 60.1295Z" fill="#C7C7C7"/>
<path d="M119.018 62.231L144.8 62.1777L170.587 62.231L144.8 62.2843L119.018 62.231Z" fill="#C7C7C7"/>
<path d="M119.018 64.3326L144.8 64.2794L170.587 64.3326L144.8 64.3918L119.018 64.3326Z" fill="#C7C7C7"/>
<path d="M119.018 66.4343L144.8 66.381L170.587 66.4343L144.8 66.4935L119.018 66.4343Z" fill="#C7C7C7"/>
<path d="M119.018 68.5417L144.8 68.4825L170.587 68.5417L144.8 68.595L119.018 68.5417Z" fill="#C7C7C7"/>
<path d="M119.018 70.6434L144.8 70.5842L170.587 70.6434L144.8 70.6966L119.018 70.6434Z" fill="#C7C7C7"/>
<path d="M119.018 72.7449L144.8 72.6917L170.587 72.7449L144.8 72.7982L119.018 72.7449Z" fill="#C7C7C7"/>
<path d="M119.018 74.8466L144.8 74.7933L170.587 74.8466L144.8 74.9058L119.018 74.8466Z" fill="#C7C7C7"/>
<path d="M119.018 76.9541L144.8 76.8949L170.587 76.9541L144.8 77.0074L119.018 76.9541Z" fill="#C7C7C7"/>
<path d="M119.018 79.0557L144.8 78.9965L170.587 79.0557L144.8 79.1089L119.018 79.0557Z" fill="#C7C7C7"/>
<path d="M119.018 81.1573L144.8 81.104L170.587 81.1573L144.8 81.2106L119.018 81.1573Z" fill="#C7C7C7"/>
<path d="M119.018 83.2589L144.8 83.2056L170.587 83.2589L144.8 83.3181L119.018 83.2589Z" fill="#C7C7C7"/>
<path d="M128.384 68.5417H124.471V85.7157H128.384V68.5417Z" fill="#FC2A58"/>
<path d="M135.636 61.2779H131.723V85.7156H135.636V61.2779Z" fill="white"/>
<path d="M142.894 57.9805H138.981V85.7157H142.894V57.9805Z" fill="#FC2A58"/>
<path d="M150.146 62.2784H146.233V85.7097H150.146V62.2784Z" fill="white"/>
<path d="M157.404 63.5571H153.49V85.7098H157.404V63.5571Z" fill="#FC2A58"/>
<path d="M164.656 76.1135H160.742V85.7157H164.656V76.1135Z" fill="white"/>
<path d="M120.415 52.3447L120.504 60.6859L120.563 69.0272C120.603 74.592 120.623 80.1529 120.623 85.7098L120.415 85.5085H132.96H145.498L158.043 85.5795L170.587 85.6979L158.043 85.8223L145.498 85.8933H132.96H120.415H120.208V85.6861C120.208 80.1253 120.228 74.5644 120.267 69.0035L120.327 60.6623L120.415 52.3447Z" fill="#C7C7C7"/>
<path d="M128.384 87.4739H124.471V87.8291H128.384V87.4739Z" fill="#C7C7C7"/>
<path d="M135.636 87.4739H131.723V87.8291H135.636V87.4739Z" fill="#C7C7C7"/>
<path d="M142.894 87.4739H138.981V87.8291H142.894V87.4739Z" fill="#C7C7C7"/>
<path d="M150.146 87.4739H146.233V87.8291H150.146V87.4739Z" fill="#C7C7C7"/>
<path d="M157.404 87.4739H153.49V87.8291H157.404V87.4739Z" fill="#C7C7C7"/>
<path d="M164.656 87.4739H160.742V87.8291H164.656V87.4739Z" fill="#C7C7C7"/>
<path d="M98.0438 131.596H82.5156V132.928H98.0438V131.596Z" fill="#C7C7C7"/>
<path d="M103.496 134.378H82.5156V135.71H103.496V134.378Z" fill="#C7C7C7"/>
<path d="M93.6512 137.166H82.5156V138.498H93.6512V137.166Z" fill="#C7C7C7"/>
<path d="M79.0524 131.596H75.8142V134.834H79.0524V131.596Z" fill="#FC2A58"/>
<path d="M198.317 53.7595H182.789V55.0915H198.317V53.7595Z" fill="#C7C7C7"/>
<path d="M203.769 56.5419H182.789V57.8739H203.769V56.5419Z" fill="#C7C7C7"/>
<path d="M193.924 59.3303H182.789V60.6623H193.924V59.3303Z" fill="#C7C7C7"/>
<path d="M179.325 53.7595H176.087V56.9978H179.325V53.7595Z" fill="#FC2A58"/>
<path d="M201.247 64.5399H182.789V65.8719H201.247V64.5399Z" fill="#C7C7C7"/>
<path d="M197.387 67.3223H182.789V68.6543H197.387V67.3223Z" fill="#C7C7C7"/>
<path d="M203.769 70.1105H182.789V71.4425H203.769V70.1105Z" fill="#C7C7C7"/>
<path d="M179.325 64.5399H176.087V67.7781H179.325V64.5399Z" fill="white"/>
<path d="M145.398 97.3899H75.8022V127.831H145.398V97.3899Z" fill="#DBDBDB"/>
<path d="M141.704 101.232H79.5024V103.86H141.704V101.232Z" fill="white"/>
<path d="M111.305 101.232H79.5024V103.86H111.305V101.232Z" fill="#FC2A58"/>
<path d="M141.704 106.264H79.5024V108.892H141.704V106.264Z" fill="white"/>
<path d="M136.559 106.264H79.5024V108.892H136.559V106.264Z" fill="#FC2A58"/>
<path d="M141.704 111.296H79.5024V113.925H141.704V111.296Z" fill="white"/>
<path d="M97.9077 111.296H79.5024V113.925H97.9077V111.296Z" fill="#FC2A58"/>
<path d="M141.704 116.328H79.5024V118.956H141.704V116.328Z" fill="white"/>
<path d="M128.384 116.328H79.5024V118.956H128.384V116.328Z" fill="#FC2A58"/>
<path d="M141.704 121.36H79.5024V123.988H141.704V121.36Z" fill="white"/>
<path d="M115.443 121.36H79.5024V123.988H115.443V121.36Z" fill="#FC2A58"/>
<path d="M190.496 113.978C190.28 116.89 189.349 119.704 187.785 122.171L183.227 119.537C184.316 117.865 184.997 115.961 185.216 113.978H190.496Z" fill="#455A64"/>
<path d="M190.532 112.604C190.532 112.8 190.532 112.989 190.532 113.196H185.263C185.263 113.007 185.263 112.817 185.263 112.604C185.265 110.504 184.743 108.435 183.746 106.587C182.748 104.738 181.307 103.166 179.55 102.013L182.191 97.4491C184.746 99.0676 186.85 101.306 188.308 103.955C189.766 106.605 190.531 109.58 190.532 112.604Z" fill="#A6A6A6"/>
<path d="M181.528 97.0347L178.899 101.599C177.094 100.564 175.06 99.9925 172.979 99.9355V94.6726C175.982 94.7272 178.923 95.5397 181.528 97.0347Z" fill="#455A64"/>
<path d="M172.209 94.6726V99.9355C170.07 100.002 167.982 100.609 166.141 101.701C164.301 102.794 162.767 104.335 161.684 106.181L157.119 103.553C158.665 100.905 160.864 98.6989 163.506 97.1441C166.148 95.5894 169.145 94.7385 172.209 94.6726Z" fill="#FC2A58"/>
<path d="M161.299 106.88C160.429 108.586 159.963 110.47 159.937 112.385H154.675C154.698 109.546 155.405 106.754 156.735 104.245L161.299 106.88Z" fill="#A6A6A6"/>
<path d="M165.544 123.136L162.909 127.7C160.461 126.131 158.431 123.988 156.997 121.458C155.564 118.927 154.768 116.086 154.68 113.179H159.943C160.031 115.161 160.583 117.095 161.556 118.825C162.529 120.555 163.895 122.031 165.544 123.136Z" fill="#455A64"/>
<path d="M187.341 122.834C184.77 126.54 180.898 129.141 176.495 130.12C172.093 131.098 167.483 130.382 163.584 128.115L166.219 123.556C168.912 125.134 172.092 125.663 175.151 125.042C178.209 124.42 180.931 122.692 182.795 120.188L187.341 122.834Z" fill="#DBDBDB"/>
<path d="M181.989 113.179C181.988 114.811 181.506 116.408 180.604 117.769C179.702 119.13 178.419 120.196 176.916 120.833L173.666 113.179H181.989Z" fill="#FC2A58"/>
<path d="M172.612 112.61L175.856 120.265C175.602 120.365 175.347 120.466 175.093 120.543C174.293 120.79 173.461 120.916 172.624 120.916C171.787 120.915 170.955 120.789 170.155 120.543C168.45 120.029 166.956 118.98 165.894 117.551C164.831 116.122 164.258 114.388 164.258 112.607C164.258 110.826 164.831 109.093 165.894 107.664C166.956 106.234 168.45 105.185 170.155 104.672C171.763 104.174 173.484 104.174 175.093 104.672C176.38 105.069 177.551 105.775 178.504 106.727C179.457 107.679 180.164 108.849 180.563 110.136C180.808 110.936 180.933 111.768 180.936 112.604L172.612 112.61Z" fill="#FC2A58"/>
<path d="M172.612 112.61L175.856 120.265C175.602 120.365 175.347 120.466 175.093 120.543C174.293 120.79 173.461 120.916 172.624 120.916C170.851 120.919 169.123 120.353 167.695 119.301C166.267 118.249 165.214 116.767 164.691 115.073C164.186 113.466 164.186 111.743 164.691 110.136C165.215 108.442 166.269 106.962 167.697 105.911C169.124 104.86 170.851 104.295 172.624 104.299C174.822 104.299 176.93 105.172 178.485 106.726C180.039 108.28 180.912 110.388 180.912 112.587L172.612 112.61Z" fill="#DBDBDB"/>
<path d="M172.612 112.61L167.195 118.909C166.15 118 165.35 116.843 164.867 115.544C164.385 114.246 164.235 112.847 164.432 111.476C164.63 110.105 165.168 108.805 165.997 107.695C166.826 106.586 167.921 105.702 169.18 105.124C170.439 104.546 171.823 104.293 173.205 104.388C174.587 104.483 175.923 104.923 177.091 105.668C178.259 106.413 179.222 107.438 179.892 108.651C180.561 109.864 180.916 111.225 180.924 112.61H172.612Z" fill="#A6A6A6"/>
<path d="M196.416 132.43H184.831L170.481 118.08L170.694 117.873L184.955 132.134H196.416V132.43Z" fill="#263238"/>
<path d="M171.399 117.169H169.782V118.785H171.399V117.169Z" fill="#263238"/>
<path d="M196.416 121.33H183.363L177.165 115.132L177.372 114.919L183.481 121.034H196.416V121.33Z" fill="#263238"/>
<path d="M178.07 114.22H176.46V115.837H178.07V114.22Z" fill="#263238"/>
<path d="M196.417 110.343H176.673V110.639H196.417V110.343Z" fill="#263238"/>
<path d="M177.271 109.686H175.655V111.302H177.271V109.686Z" fill="#263238"/>
<path d="M217.03 108.875H201.502V110.207H217.03V108.875Z" fill="#DBDBDB"/>
<path d="M222.482 111.657H201.502V112.989H222.482V111.657Z" fill="#DBDBDB"/>
<path d="M212.637 114.445H201.502V115.777H212.637V114.445Z" fill="#DBDBDB"/>
<path d="M198.039 108.875H194.8V112.113H198.039V108.875Z" fill="#FC2A58"/>
<path d="M219.96 119.655H201.502V120.987H219.96V119.655Z" fill="#DBDBDB"/>
<path d="M216.1 122.437H201.502V123.769H216.1V122.437Z" fill="#DBDBDB"/>
<path d="M222.482 125.226H201.502V126.558H222.482V125.226Z" fill="#DBDBDB"/>
<path d="M198.039 119.655H194.8V122.893H198.039V119.655Z" fill="#A6A6A6"/>
<path d="M219.96 130.435H201.502V131.767H219.96V130.435Z" fill="#DBDBDB"/>
<path d="M216.1 133.218H201.502V134.55H216.1V133.218Z" fill="#DBDBDB"/>
<path d="M222.482 136.006H201.502V137.338H222.482V136.006Z" fill="#DBDBDB"/>
<path d="M198.039 130.435H194.8V133.674H198.039V130.435Z" fill="#C7C7C7"/>
<path d="M152.005 200.463L153.153 207.372L160.962 249.516H162.217L156.539 207.372L155.705 200.463H152.005Z" fill="#DBDBDB"/>
<path d="M155.705 200.463H152.005L153.153 207.372H156.539L155.705 200.463Z" fill="#A6A6A6"/>
<path d="M127.496 249.516H128.757L136.559 207.372L137.714 200.463H134.014L133.173 207.372L127.496 249.516Z" fill="#DBDBDB"/>
<path d="M134.014 200.463L133.173 207.372H136.559L137.714 200.463H134.014Z" fill="#A6A6A6"/>
<path d="M104.094 249.516H105.349L113.152 207.372L114.306 200.463H110.606L109.765 207.372L104.094 249.516Z" fill="#DBDBDB"/>
<path d="M109.765 207.372H113.152L114.306 200.463H110.606L109.765 207.372Z" fill="#A6A6A6"/>
<path d="M106.083 203.713H163.264V197.687H141.863L134.665 155.832H108.267L106.083 203.713Z" fill="#DBDBDB"/>
<path d="M106.083 203.713H109.203L111.233 155.832H108.267L106.083 203.713Z" fill="#A6A6A6"/>
<path d="M258.168 214.564C258.168 214.564 257.996 234.917 257.996 234.929C257.996 238.825 257.902 242.24 257.694 243.999C257.688 244.41 257.589 244.815 257.404 245.183C256.22 245.964 225.128 246.769 224.033 246.432C222.938 246.094 223.814 242.951 224.998 241.956C226.182 240.962 237.957 235.326 237.957 235.326L238.324 214.979L258.168 214.564Z" fill="#AD6359"/>
<path d="M258.02 230.756L257.985 234.9C257.985 238.795 257.89 242.211 257.683 243.969C257.629 244.373 257.532 244.77 257.393 245.153C256.209 245.935 225.117 246.74 224.022 246.402C222.926 246.065 223.803 242.921 224.987 241.927C226.171 240.932 237.945 235.296 237.945 235.296V231.052L258.02 230.756Z" fill="white"/>
<path d="M236.027 235.409C238.099 235.065 240.615 235.438 242.166 236.942C242.225 237.001 242.166 237.084 242.072 237.06C240.115 236.381 238.09 235.915 236.033 235.669C235.999 235.67 235.965 235.657 235.94 235.633C235.915 235.609 235.901 235.577 235.9 235.542C235.899 235.507 235.912 235.474 235.936 235.449C235.96 235.424 235.993 235.41 236.027 235.409Z" fill="#263238"/>
<path d="M234.518 236.273C236.59 235.93 239.112 236.303 240.657 237.806C240.716 237.866 240.657 237.948 240.562 237.925C238.604 237.248 236.58 236.782 234.524 236.534C234.507 236.534 234.49 236.531 234.474 236.525C234.458 236.519 234.443 236.509 234.431 236.498C234.418 236.486 234.408 236.472 234.401 236.456C234.395 236.44 234.391 236.423 234.39 236.406C234.39 236.389 234.393 236.372 234.399 236.356C234.405 236.34 234.415 236.326 234.426 236.313C234.438 236.301 234.452 236.291 234.468 236.284C234.484 236.277 234.501 236.273 234.518 236.273Z" fill="#263238"/>
<path d="M233.008 237.137C235.08 236.8 237.602 237.167 239.147 238.671C239.206 238.73 239.147 238.813 239.058 238.795C237.099 238.113 235.073 237.642 233.014 237.392C232.985 237.386 232.958 237.371 232.939 237.348C232.92 237.325 232.909 237.297 232.908 237.267C232.908 237.237 232.917 237.208 232.935 237.185C232.953 237.161 232.979 237.144 233.008 237.137Z" fill="#263238"/>
<path d="M224.01 246.509C225.105 246.846 256.214 246.035 257.381 245.254C257.831 244.964 257.973 240.423 257.973 234.935V234.758L237.892 235.059V235.397C237.892 235.397 226.123 241.033 224.933 242.027C223.743 243.022 222.914 246.171 224.01 246.509Z" fill="#37474F"/>
<path d="M258.02 234.758V234.935C258.02 240.423 257.854 244.964 257.428 245.254C257.002 245.544 250.158 245.97 242.871 246.231C234.151 246.538 224.655 246.692 224.057 246.509C222.962 246.171 223.844 243.022 225.022 242.027C226.2 241.033 237.981 235.397 237.981 235.397V235.059L244.676 234.959L258.02 234.758Z" fill="#37474F"/>
<path d="M224.329 245.289C229.575 245.023 250.739 244.455 255.936 244.591C255.978 244.591 255.978 244.591 255.936 244.591C250.75 244.97 229.58 245.372 224.335 245.348C224.223 245.378 224.223 245.295 224.329 245.289Z" fill="#263238"/>
<path d="M244.611 234.959C244.12 238.321 243.374 243.276 242.835 246.207C234.115 246.515 224.619 246.669 224.022 246.485C222.926 246.148 223.808 242.998 224.986 242.004C226.165 241.009 237.945 235.373 237.945 235.373V235.036L244.611 234.959Z" fill="#263238"/>
<path d="M260.631 235.024L237.176 235.237C237.176 235.237 230.918 152.251 236.483 130.512H253.314C253.314 130.512 257.837 139.742 255.25 150.131L260.631 235.024Z" fill="#455A64"/>
<path d="M259.009 231.105C258.394 231.025 257.775 230.978 257.156 230.963C256.469 230.916 255.782 230.868 255.09 230.839C253.769 230.785 252.443 230.762 251.117 230.756C248.447 230.756 245.789 230.756 243.102 230.844C241.58 230.892 240.059 230.951 238.543 231.034C238.531 231.034 238.519 231.039 238.51 231.048C238.501 231.057 238.496 231.069 238.496 231.081C238.496 231.094 238.501 231.106 238.51 231.115C238.519 231.124 238.531 231.129 238.543 231.129C241.195 231.223 243.871 231.259 246.494 231.312C249.116 231.365 251.822 231.413 254.444 231.36C255.202 231.36 255.96 231.36 256.724 231.3C257.487 231.241 258.257 231.3 258.997 231.194C259.044 231.188 259.062 231.117 259.009 231.105Z" fill="#263238"/>
<path d="M238.916 210.87C238.65 204.808 238.46 198.746 238.289 192.678C237.957 180.554 237.87 168.422 238.028 156.282C238.117 149.474 238.295 142.666 238.502 135.864C238.502 135.787 238.383 135.793 238.378 135.864C237.732 148.041 237.49 160.248 237.478 172.45C237.466 184.651 237.714 196.722 238.312 208.84C238.65 215.642 239.064 222.456 239.704 229.228C239.704 229.288 239.798 229.288 239.798 229.228C239.526 223.113 239.177 216.992 238.916 210.87Z" fill="#263238"/>
<path d="M217.237 238.049C219.309 237.706 221.831 238.079 223.376 239.582C223.435 239.642 223.376 239.724 223.282 239.701C221.325 239.022 219.3 238.555 217.243 238.31C217.209 238.31 217.175 238.297 217.15 238.274C217.125 238.25 217.111 238.217 217.11 238.182C217.109 238.148 217.122 238.114 217.146 238.089C217.17 238.064 217.203 238.05 217.237 238.049Z" fill="#263238"/>
<path d="M215.728 238.913C217.8 238.576 220.321 238.943 221.867 240.447C221.926 240.506 221.867 240.589 221.778 240.565C219.818 239.887 217.792 239.419 215.733 239.168C215.704 239.162 215.678 239.147 215.659 239.124C215.639 239.101 215.628 239.073 215.628 239.043C215.627 239.013 215.637 238.984 215.655 238.961C215.673 238.937 215.699 238.92 215.728 238.913Z" fill="#263238"/>
<path d="M214.212 239.76C216.284 239.423 218.8 239.79 220.345 241.293C220.404 241.352 220.345 241.441 220.256 241.418C218.297 240.745 216.27 240.285 214.212 240.044C214.174 240.044 214.138 240.029 214.112 240.003C214.085 239.976 214.07 239.94 214.07 239.902C214.07 239.864 214.085 239.828 214.112 239.802C214.138 239.775 214.174 239.76 214.212 239.76Z" fill="#263238"/>
<path d="M205.22 249.149C206.315 249.487 237.424 248.675 238.591 247.894C239.041 247.604 239.183 243.063 239.183 237.575V237.392L219.102 237.688V238.025C219.102 238.025 207.333 243.661 206.143 244.656C204.953 245.65 204.148 248.812 205.22 249.149Z" fill="#37474F"/>
<path d="M205.539 247.93C210.784 247.669 231.948 247.095 237.146 247.231C237.187 247.231 237.187 247.261 237.146 247.261C231.96 247.64 210.79 248.042 205.545 248.018C205.433 248.048 205.433 247.936 205.539 247.93Z" fill="#263238"/>
<path d="M243.06 152.085C243.06 152.085 241.409 185.746 241.349 186.545C241.349 186.853 240.58 238.795 240.58 238.795L217.131 239.008C217.131 239.008 220.339 190.316 220.683 185.562C220.724 185.012 222.05 152.274 227.615 130.536H252.822C252.822 130.536 252.603 141.92 247.429 150.155C245.938 150.715 244.479 151.36 243.06 152.085Z" fill="#455A64"/>
<path d="M241.237 152.736C242.48 152.061 243.747 151.451 245.049 150.895C246.352 150.338 247.678 149.835 248.974 149.261C249.022 149.261 249.063 149.308 249.016 149.332C247.743 149.989 246.494 150.694 245.203 151.315C243.938 151.924 242.632 152.447 241.296 152.878C241.277 152.886 241.256 152.886 241.237 152.878C241.218 152.87 241.203 152.855 241.195 152.837C241.188 152.818 241.187 152.797 241.195 152.778C241.203 152.759 241.218 152.744 241.237 152.736Z" fill="#263238"/>
<path d="M242.965 152.049C242.965 152.002 243.048 152.014 243.042 152.049C242.196 158.36 241.053 233.36 240.858 235.154C240.858 235.182 240.847 235.21 240.827 235.23C240.807 235.25 240.78 235.261 240.751 235.261C240.723 235.261 240.696 235.25 240.676 235.23C240.656 235.21 240.645 235.182 240.645 235.154C240.603 231.981 240.751 173.036 242.965 152.049Z" fill="#263238"/>
<path d="M231.38 132.922C230.735 136.166 230.285 139.434 229.799 142.725C229.314 146.017 228.846 149.285 228.408 152.57C227.544 159.035 226.774 165.509 226.099 171.994C224.742 185.116 223.755 198.271 223.139 211.456C222.788 218.868 222.575 226.288 222.5 233.716C222.5 233.775 222.595 233.769 222.595 233.716C223.045 220.526 223.684 207.342 224.684 194.182C225.685 181.022 226.999 167.933 228.604 154.861C229.049 151.238 229.515 147.619 230.001 144.004C230.504 140.322 231.096 136.651 231.522 132.957C231.504 132.868 231.38 132.833 231.38 132.922Z" fill="#263238"/>
<path d="M239.307 235.557C238.692 235.475 238.074 235.425 237.454 235.409C236.767 235.361 236.081 235.314 235.394 235.284C234.068 235.231 232.748 235.207 231.422 235.207C228.746 235.207 226.094 235.207 223.4 235.296C221.884 235.344 220.363 235.403 218.842 235.486C218.782 235.486 218.788 235.575 218.842 235.575C221.488 235.669 224.14 235.711 226.792 235.758C229.444 235.805 232.09 235.859 234.737 235.811C235.5 235.811 236.258 235.811 237.016 235.746C237.774 235.681 238.555 235.746 239.295 235.64C239.342 235.616 239.36 235.563 239.307 235.557Z" fill="#263238"/>
<path d="M221.819 124.681C224.276 123.444 233.866 118.951 234.251 118.258C234.636 117.565 238.33 104.186 239.319 101.717C240.307 99.2488 243.238 100.61 243.22 104.506C243.202 108.401 243.469 121.887 242.906 124.042C242.344 126.197 231.824 134.698 229.882 136.521C228.42 137.972 220.446 125.368 221.819 124.681Z" fill="#AD6359"/>
<path d="M231.842 134.715C230.497 136.059 229.065 137.313 227.556 138.469C226.33 139.333 222.725 141.719 221.636 140.458C220.896 139.599 222.82 137.954 224.199 136.752C224.915 136.124 225.644 134.899 225.211 134.449C224.465 133.662 222.642 135.331 221.517 136.634C219.333 139.15 216.681 143.234 214.544 142.423C213.738 142.115 214.141 140.914 214.887 139.617C213.525 141.299 211.986 142.82 211.074 142.512C210.837 142.434 210.639 142.268 210.522 142.047C210.405 141.826 210.378 141.568 210.447 141.328C210.263 141.505 210.031 141.622 209.78 141.667C209.529 141.711 209.271 141.68 209.038 141.577C208.274 141.18 208.251 140.215 208.558 139.108C208.449 139.134 208.334 139.132 208.225 139.105C208.116 139.077 208.015 139.023 207.931 138.948C206.119 137.539 210.299 130.27 212.205 129.074C216.022 126.787 220.136 125.036 224.43 123.87C227.485 124.977 231.848 134.71 231.842 134.715Z" fill="#AD6359"/>
<path d="M220.967 132.105C219.59 132.82 218.39 133.831 217.45 135.065C216.361 136.527 215.674 138.238 214.757 139.801C214.757 139.842 214.804 139.884 214.822 139.836C215.248 139.061 215.751 138.315 216.201 137.551C216.651 136.787 217.065 136.042 217.557 135.331C218.444 134.026 219.616 132.938 220.984 132.152C220.984 132.152 220.984 132.099 220.967 132.105Z" fill="#263238"/>
<path d="M218.948 129.914C217.458 130.851 216.069 131.941 214.804 133.164C213.46 134.544 212.655 136.326 211.844 138.048C211.359 139.086 210.899 140.132 210.465 141.186C210.465 141.233 210.506 141.269 210.53 141.222C211.341 139.446 212.199 137.67 213.111 135.982C213.95 134.379 215.096 132.957 216.485 131.797C217.284 131.14 218.125 130.536 218.972 129.944C218.983 129.932 218.948 129.903 218.948 129.914Z" fill="#263238"/>
<path d="M216.479 128.245C215.051 128.97 213.766 129.947 212.685 131.128C211.492 132.682 210.498 134.378 209.725 136.178C209.292 137.137 208.896 138.108 208.511 139.09C208.511 139.126 208.564 139.155 208.582 139.09C209.488 136.923 210.535 134.817 211.714 132.786C212.26 131.81 212.953 130.923 213.768 130.157C214.617 129.441 215.524 128.795 216.479 128.227C216.479 128.227 216.485 128.239 216.479 128.245Z" fill="#263238"/>
<path d="M223.483 122.574L235.388 134.55C235.388 134.55 242.598 127.582 243.374 124.065C244.149 120.549 244.173 107.022 243.374 102.949C242.575 98.8758 239.946 97.5379 238.182 103.15C236.418 108.762 234.275 117.553 234.109 117.879C233.943 118.205 223.483 122.574 223.483 122.574Z" fill="#FC2A58"/>
<path d="M237.46 130.832C236.713 129.986 235.923 129.18 235.092 128.417C234.287 127.623 233.458 126.866 232.623 126.102C230.954 124.58 229.237 123.1 227.479 121.68C227.425 121.632 227.343 121.68 227.396 121.757C228.976 123.396 230.616 124.995 232.286 126.54C233.115 127.304 233.949 128.061 234.808 128.795C235.63 129.549 236.491 130.258 237.389 130.921C237.448 130.939 237.501 130.862 237.46 130.832Z" fill="#263238"/>
<path d="M236.051 105.429C237.413 105.536 240.325 103.061 241.497 100.977C241.459 99.7892 241.36 98.6037 241.201 97.4254C241.101 96.2888 241.018 95.0219 241.03 93.8734C241.03 93.6307 240.213 94.0629 240.213 94.0629L238.709 94.4181L233.724 95.6021C234.13 97.0589 234.354 98.56 234.393 100.072C234.388 100.231 234.371 100.389 234.34 100.545C234.34 100.545 234.34 100.593 234.34 100.628C234.174 101.504 233.926 105.264 236.051 105.429Z" fill="#AD6359"/>
<path d="M234.34 100.522C234.34 100.522 234.34 100.569 234.34 100.604C234.589 100.637 234.841 100.651 235.092 100.646C240 100.575 240.663 94.3352 240.663 94.3352L238.721 94.4062L233.736 95.5902C234.142 97.047 234.366 98.5482 234.405 100.06C234.396 100.215 234.374 100.37 234.34 100.522Z" fill="#263238"/>
<path d="M241.231 84.0048C242.308 86.4853 241.823 94.0688 240.159 95.9277C237.791 98.6272 233.476 99.3494 231.072 96.3954C228.746 93.536 229.586 83.6733 231.457 81.9387C234.21 79.3813 239.668 80.3403 241.231 84.0048Z" fill="#AD6359"/>
<path d="M229.965 86.0827C229.965 86.0827 229.373 88.9243 228.781 91.7481L229.74 91.6238L229.521 92.9025C229.865 92.9802 230.222 92.9845 230.568 92.9151C230.913 92.8458 231.241 92.7043 231.528 92.5L229.965 86.0827Z" fill="#AD6359"/>
<path d="M230.995 89.167C230.995 89.167 231.037 89.167 231.031 89.2144C230.96 89.7235 230.966 90.3155 231.41 90.5345C230.847 90.422 230.847 89.6347 230.995 89.167Z" fill="#263238"/>
<path d="M231.51 88.6816C232.333 88.6816 232.221 90.357 231.457 90.3333C230.693 90.3096 230.818 88.6638 231.51 88.6816Z" fill="#263238"/>
<path d="M232.209 88.0896C231.99 88.0185 231.794 87.912 231.617 87.8232C231.381 87.759 231.174 87.6197 231.025 87.4265C230.991 87.3575 230.982 87.2791 230.998 87.204C231.014 87.1289 231.055 87.0613 231.114 87.0121C231.243 86.928 231.393 86.8803 231.547 86.8741C231.701 86.8678 231.854 86.9032 231.99 86.9766C232.286 87.0817 232.532 87.2926 232.682 87.5686C232.719 87.6366 232.734 87.7144 232.725 87.7911C232.715 87.8679 232.682 87.9399 232.63 87.9971C232.578 88.0543 232.51 88.094 232.434 88.1105C232.359 88.1271 232.28 88.1198 232.209 88.0896Z" fill="#263238"/>
<path d="M231.457 93.9681C231.327 94.0806 231.191 94.2345 231.007 94.2405C230.816 94.2216 230.631 94.1653 230.462 94.0747C230.528 94.1811 230.622 94.2672 230.734 94.3236C230.846 94.38 230.971 94.4045 231.096 94.3944C231.201 94.3747 231.298 94.3242 231.375 94.2495C231.452 94.1747 231.505 94.0789 231.528 93.9741L231.457 93.9681Z" fill="#263238"/>
<path d="M231.67 92.4052C231.456 92.6558 231.177 92.8432 230.864 92.9475C230.551 93.0518 230.216 93.069 229.894 92.9972C229.859 92.9972 229.841 92.9499 229.853 92.9499C230.491 92.9375 231.111 92.731 231.629 92.3579C231.688 92.352 231.706 92.352 231.67 92.4052Z" fill="#263238"/>
<path d="M230.533 83.6555C228.817 83.1405 227.621 79.3517 228.219 77.9486C228.817 76.5456 230.226 78.7597 230.226 78.7597C230.226 78.7597 230.368 77.4336 230.972 77.2856C231.575 77.1376 232.7 78.9609 232.7 78.9609C232.7 78.9609 238.466 79.328 239.698 79.772C240.929 80.216 241.302 81.8736 241.302 81.8736C241.815 82.1013 242.273 82.4388 242.642 82.8622C243.011 83.2856 243.283 83.7847 243.439 84.3245C244.031 86.2425 242.125 93.4472 240.935 94.424C239.745 95.4008 236.448 89.9189 236.448 89.9189C236.448 89.9189 235.56 90.0373 235.192 88.2613C234.654 85.6269 234.506 83.9515 233.197 83.6851C232.313 83.5861 231.42 83.5762 230.533 83.6555Z" fill="#263238"/>
<path d="M236.175 90.2326C236.175 90.2326 237.632 87.6752 238.78 88.1725C239.929 88.6698 238.987 92.2691 237.75 92.867C237.597 92.9547 237.428 93.0105 237.253 93.0311C237.077 93.0517 236.9 93.0366 236.731 92.9869C236.561 92.9371 236.404 92.8536 236.268 92.7415C236.132 92.6293 236.02 92.4908 235.938 92.3342L236.175 90.2326Z" fill="#AD6359"/>
<path d="M238.484 89.1966C238.484 89.1966 238.514 89.1966 238.484 89.2321C238.091 89.4756 237.753 89.7991 237.493 90.1815C237.233 90.564 237.056 90.9969 236.974 91.4521C237.018 91.3566 237.081 91.2717 237.161 91.2032C237.24 91.1348 237.333 91.0844 237.434 91.0557C237.535 91.027 237.641 91.0205 237.745 91.0369C237.848 91.0532 237.947 91.0919 238.034 91.1502V91.2035C237.872 91.1668 237.703 91.182 237.55 91.2468C237.397 91.3116 237.268 91.4227 237.182 91.5646C237.035 91.8008 236.916 92.0531 236.826 92.3164C236.791 92.4052 236.643 92.3756 236.661 92.275C236.524 91.1147 237.264 89.4275 238.484 89.1966Z" fill="#263238"/>
<path d="M235.731 107.922C231.197 116.648 223.175 126.451 215.355 130.11C210.589 132.33 207.067 131.134 205.652 129.364C203.597 126.824 207.599 110.503 210.684 105.583C211.69 103.991 226.597 108.17 225.596 109.917C224.596 111.663 229.148 106.436 234.068 102.511C239.117 98.4555 238.484 102.653 235.731 107.922Z" fill="#AD6359"/>
<path d="M215.455 96.8808C217.231 95.5547 219.203 93.8852 221.452 93.24C223.702 92.5947 226.467 94.9804 226.727 95.8211C226.987 96.6617 227.763 102.209 225.543 102.895C223.323 103.582 223.412 99.1126 223.175 98.6745C222.938 98.2364 222.678 97.6681 222.269 97.8398C221.861 98.0115 215.544 103.76 215.544 103.76L215.455 96.8808Z" fill="#AD6359"/>
<path d="M215.692 97.1472C215.816 97.1117 221.085 92.9026 223.341 92.2573C225.596 91.612 228.355 93.9978 228.615 94.8443C228.876 95.6909 229.651 101.226 227.431 101.913C225.211 102.6 225.3 98.1299 225.063 97.6919C224.827 97.2538 224.572 96.6854 224.164 96.863C223.755 97.0406 217.439 102.783 217.439 102.783L215.692 97.1472Z" fill="#AD6359"/>
<path d="M226.567 101.865C226.21 101.544 225.941 101.136 225.786 100.681C225.591 100.218 225.471 99.7262 225.431 99.2251C225.431 98.7848 225.395 98.3453 225.324 97.9108C225.193 97.4975 224.961 97.1233 224.649 96.8216C224.377 96.5611 224.057 96.7683 223.832 96.9577C223.462 97.2416 223.112 97.5501 222.784 97.8812L221.707 98.9232C221.324 99.2704 220.964 99.6422 220.629 100.036C220.629 100.066 220.629 100.113 220.677 100.089C221.017 99.8208 221.343 99.5343 221.654 99.231C222.017 98.8995 222.384 98.5739 222.755 98.2542C223.098 97.9523 223.43 97.6326 223.779 97.3366C223.903 97.23 224.14 96.9932 224.318 96.9755C224.495 96.9577 224.714 97.3603 224.791 97.4846C225.01 97.8565 225.113 98.2852 225.087 98.716C225.09 99.1518 225.137 99.5863 225.229 100.012C225.312 100.415 225.464 100.799 225.679 101.149C225.924 101.446 226.202 101.714 226.508 101.948C226.549 101.966 226.609 101.895 226.567 101.865Z" fill="#263238"/>
<path d="M210.613 105.755C210.613 105.755 213.283 99.308 215.811 96.129C218.042 93.311 220.914 91.0614 223.329 90.2918C225.744 89.5222 231.735 95.7974 229.746 96.8038C227.651 97.8458 224.856 94.649 223.992 95.4422C223.027 96.3302 221.896 97.8102 222.352 99.0534C222.808 100.297 224.72 102.215 226.763 101.516C228.805 100.818 228.592 98.0352 230.403 97.1117C232.215 96.1882 232.683 99.4146 231.954 101.848C231.139 104.242 229.661 106.357 227.692 107.945C226.099 109.171 221.257 113.273 221.257 113.273L210.613 105.755Z" fill="#AD6359"/>
<path d="M228.959 97.0051C228.169 97.0357 227.386 96.8537 226.691 96.4782C226.022 96.1073 225.33 95.7791 224.619 95.4955C224.55 95.4698 224.475 95.4602 224.401 95.4673C224.328 95.4745 224.256 95.4983 224.193 95.5369C224.048 95.6374 223.913 95.7524 223.791 95.8803C223.53 96.152 223.292 96.4451 223.08 96.7565C222.678 97.3485 222.287 98.1003 222.488 98.7456C222.71 99.446 223.12 100.072 223.672 100.557C224.211 101.066 224.897 101.392 225.632 101.487C225.998 101.508 226.365 101.464 226.715 101.356C227.068 101.225 227.39 101.024 227.662 100.764C228.211 100.224 228.633 99.5689 228.9 98.8462C228.708 99.6147 228.336 100.327 227.816 100.924C227.532 101.216 227.189 101.445 226.81 101.593C226.432 101.737 226.03 101.807 225.626 101.8C224.804 101.736 224.028 101.396 223.424 100.835C222.789 100.311 222.314 99.62 222.05 98.8403C221.94 98.4168 221.975 97.9684 222.151 97.5675C222.304 97.1896 222.503 96.8318 222.743 96.5019C222.973 96.1749 223.23 95.868 223.512 95.5843C223.662 95.4358 223.827 95.3029 224.004 95.1876C224.111 95.1338 224.228 95.1019 224.348 95.0937C224.468 95.0856 224.588 95.1014 224.702 95.1403C225.079 95.2828 225.44 95.4633 225.78 95.679L226.786 96.271C227.437 96.6945 228.184 96.947 228.959 97.0051Z" fill="#263238"/>
<path d="M208.807 106.329L225.922 109.52L225.685 110.059C225.685 110.059 232.7 102.783 235.749 100.492C239.301 97.8161 239.123 101.623 237.448 105.542C235.773 109.461 225.608 127.197 216.213 132.028C212.933 133.709 205.888 131.513 205.107 129.015C203.686 124.539 208.807 106.329 208.807 106.329Z" fill="#FC2A58"/>
<path d="M225.726 109.964C224.949 110.563 224.212 111.212 223.518 111.906C222.607 112.764 221.713 113.634 220.819 114.511C219.031 116.251 217.255 118.013 215.491 119.797C215.272 120.022 215.059 120.253 214.845 120.478C214.472 120.644 214.117 120.839 213.756 121.023C213.395 121.206 212.892 121.472 212.448 121.686C212.439 121.692 212.433 121.702 212.431 121.712C212.429 121.723 212.43 121.734 212.435 121.744C212.44 121.754 212.448 121.761 212.458 121.766C212.468 121.77 212.479 121.771 212.489 121.768C212.927 121.579 213.371 121.396 213.798 121.176C214.042 121.058 214.285 120.934 214.526 120.804C213.863 121.49 213.2 122.177 212.548 122.875C212.513 122.917 212.548 122.976 212.619 122.941C216.284 119.62 219.836 116.156 223.275 112.598C223.767 112.089 225.33 110.58 225.756 110.017C225.803 109.994 225.768 109.934 225.726 109.964Z" fill="#263238"/>
<path d="M222.855 112.314C221.777 111.984 220.682 111.709 219.576 111.491C218.474 111.237 217.367 111.018 216.26 110.811C214.04 110.384 211.803 110.023 209.565 109.727C209.488 109.727 209.458 109.822 209.565 109.84C211.767 110.432 213.999 110.911 216.231 111.355C217.338 111.574 218.445 111.787 219.564 111.947C220.658 112.16 221.763 112.314 222.873 112.409C222.909 112.427 222.909 112.332 222.855 112.314Z" fill="#263238"/>
<path d="M235.678 109.035C233.103 113.084 230.48 117.098 227.65 120.975C226.822 122.106 226.016 123.254 225.176 124.385C225.176 124.432 225.205 124.498 225.247 124.45C228.326 120.731 231.126 116.79 233.624 112.658C234.352 111.474 235.056 110.29 235.713 109.058L235.678 109.035Z" fill="#263238"/>
<path d="M257.085 140.961C257.008 141.044 224.714 141.666 224.412 141.34C223.992 140.878 229.273 108.502 234.405 101.445C235.69 99.6691 240.272 98.4851 242.178 100.261C247.707 105.453 248.868 109.81 250.306 113.374C251.708 117.222 252.883 121.15 253.823 125.137C255.753 132.75 257.345 140.653 257.085 140.961Z" fill="#FC2A58"/>
<path d="M232.025 107.022C231.078 109.49 230.249 112.012 229.486 114.546C228.722 117.08 228.041 119.59 227.538 122.165C227.396 122.893 227.26 123.621 227.135 124.35C227.011 125.078 226.91 125.865 226.721 126.605C226.721 126.664 226.798 126.682 226.81 126.605C227.041 125.313 227.349 124.036 227.733 122.781C228.071 121.49 228.426 120.206 228.752 118.909C229.379 116.363 230.072 113.836 230.806 111.32C231.232 109.881 231.682 108.454 232.126 107.022C232.144 106.98 232.049 106.963 232.025 107.022Z" fill="#263238"/>
<path d="M85.0613 209.876L86.3104 217.394L94.8056 263.257H96.1731L89.9986 217.394L89.0869 209.876H85.0613Z" fill="#DBDBDB"/>
<path d="M89.0869 209.876H85.0613L86.3104 217.394H89.9986L89.0869 209.876Z" fill="#A6A6A6"/>
<path d="M58.3916 263.257H59.7591L68.2543 217.394L69.5034 209.876H65.4778L64.5662 217.394L58.3916 263.257Z" fill="#DBDBDB"/>
<path d="M65.4778 209.876L64.5662 217.394H68.2543L69.5034 209.876H65.4778Z" fill="#A6A6A6"/>
<path d="M32.9238 263.257H34.2913L42.7806 217.394L44.0357 209.876H40.0101L39.0984 217.394L32.9238 263.257Z" fill="#DBDBDB"/>
<path d="M39.0984 217.394H42.7806L44.0357 209.876H40.0101L39.0984 217.394Z" fill="#A6A6A6"/>
<path d="M35.0906 213.41H97.3157V206.851H74.0205L66.1943 161.308H37.4645L35.0906 213.41Z" fill="#DBDBDB"/>
<path d="M35.0906 213.41H38.4827L40.6968 161.308H37.4645L35.0906 213.41Z" fill="#A6A6A6"/>
<path d="M163.85 257.976C162.696 258.372 129.71 258.485 128.449 257.692C127.963 257.396 127.667 252.589 127.478 246.775L110.482 226.795L135.772 226.653L148.749 246.639C148.749 246.639 161.394 252.245 162.69 253.264C163.987 254.282 164.999 257.591 163.85 257.976Z" fill="#DD6A57"/>
<path d="M163.851 257.976C162.696 258.372 129.71 258.485 128.449 257.692C128.017 257.431 127.739 253.631 127.549 248.723C130.716 249.273 157.445 253.867 158.712 253.163C159.979 252.458 155.953 249.919 155.953 249.919H156.001C159.079 251.34 162.092 252.79 162.69 253.258C163.969 254.276 164.999 257.591 163.851 257.976Z" fill="#263238"/>
<path d="M146.239 252.257C146.239 252.257 149.631 248.32 155.953 249.919L146.239 252.257Z" fill="#263238"/>
<path d="M150.951 246.414L138.099 247.675L125.412 248.924C125.412 248.924 99.956 212.735 98.4109 211.155C94.8589 207.603 66.2712 201.837 58.5575 194.17C50.3879 186.054 53.9517 175.789 53.9517 175.789H75.2637C75.2637 175.789 77.9632 182.632 79.0999 182.987C91.4075 186.812 107.8 191.619 113.128 196.319C122.683 204.767 150.951 246.414 150.951 246.414Z" fill="#263238"/>
<path d="M146.949 242.495C143.332 242.833 144.362 242.685 140.757 243.087C138.981 243.271 127.383 244.508 125.767 244.976C125.726 244.976 125.767 245.047 125.767 245.047C127.448 245.129 139.028 243.691 140.792 243.472C144.397 243.016 143.356 243.111 146.955 242.619C146.971 242.619 146.987 242.611 146.998 242.599C147.009 242.587 147.015 242.571 147.014 242.554C147.013 242.538 147.006 242.522 146.994 242.511C146.982 242.5 146.965 242.494 146.949 242.495Z" fill="#455A64"/>
<path d="M126.093 242.797C121.913 237.084 117.639 231.182 113.365 225.534L106.953 217.063C105.88 215.646 104.806 214.235 103.733 212.83C102.83 211.562 101.809 210.383 100.684 209.308C99.5127 208.326 98.1994 207.528 96.7887 206.94C95.3028 206.277 93.7755 205.708 92.2363 205.164C89.0395 204.062 85.7835 203.169 82.5452 202.204C76.5364 200.428 70.4507 198.48 65.2766 194.857C60.6235 191.595 56.74 186.752 55.6329 181.075C55.4959 180.355 55.4207 179.624 55.408 178.891C55.408 178.878 55.403 178.866 55.3941 178.857C55.3852 178.848 55.3732 178.843 55.3606 178.843C55.348 178.843 55.336 178.848 55.3271 178.857C55.3182 178.866 55.3132 178.878 55.3132 178.891C55.4296 181.648 56.1447 184.347 57.4089 186.8C58.7357 189.311 60.516 191.555 62.66 193.418C67.2776 197.509 73.1206 199.871 78.934 201.706C82.1545 202.719 85.446 203.595 88.6488 204.577C90.2886 205.081 91.9107 205.608 93.515 206.2C95.0533 206.732 96.551 207.375 97.9964 208.124C99.4027 208.885 100.655 209.9 101.691 211.119C102.786 212.404 103.757 213.801 104.769 215.151C106.9 217.98 109.037 220.806 111.18 223.628C115.484 229.317 119.758 235.036 124.127 240.678C124.672 241.382 125.223 242.075 125.767 242.773C125.915 242.998 126.27 243.04 126.093 242.797Z" fill="#455A64"/>
<path d="M109.464 264.825C108.309 265.198 75.3229 264.772 74.0797 263.955C73.6002 263.659 78.65 231.531 78.65 231.531L100.72 231.75L94.557 253.246C94.557 253.246 107.107 259.053 108.38 260.095C109.653 261.137 110.612 264.458 109.464 264.825Z" fill="#DD6A57"/>
<path d="M109.464 264.825C108.309 265.198 75.3229 264.772 74.0797 263.955C73.9258 263.86 74.3461 260.439 74.9914 255.851C76.3352 246.272 78.644 231.531 78.644 231.531L100.714 231.75L94.551 253.246C94.551 253.246 98.4523 255.051 102.123 256.827C105.035 258.236 107.8 259.628 108.362 260.089C109.647 261.131 110.612 264.458 109.464 264.825Z" fill="#DD6A57"/>
<path d="M109.464 264.825C108.309 265.198 75.3229 264.772 74.0797 263.955C73.9258 263.86 74.3461 260.439 74.9914 255.851C78.2474 256.407 86.0263 257.727 92.8461 258.763L93.6394 258.882C99.441 259.746 104.366 260.368 104.887 260.066C106.196 259.332 102.348 256.952 102.135 256.827C105.047 258.236 107.812 259.628 108.374 260.089C109.647 261.131 110.612 264.458 109.464 264.825Z" fill="#263238"/>
<path d="M92.4258 259.172C92.4258 259.172 95.8179 255.229 102.135 256.804L92.4258 259.172Z" fill="#263238"/>
<path d="M96.0605 252.956L72.9133 252.843C72.9133 252.843 83.7529 211.829 83.2319 208.733C82.9892 207.301 57.2727 209.456 48.0375 199.77C40.0929 191.435 47.41 175.824 47.41 175.824L72.1793 175.232C72.1793 175.232 69.8941 181.933 68.3372 186.089C68.3372 186.089 102.3 188.487 106.113 195.934C110.18 203.891 96.0605 252.956 96.0605 252.956Z" fill="#263238"/>
<path d="M71.54 176.878C71.2914 178.192 71.0782 179.512 70.7763 180.815C70.6342 181.407 70.504 182.052 70.3205 182.656C70.2639 182.922 70.1176 183.16 69.9061 183.331C69.6556 183.471 69.3695 183.535 69.0832 183.514C68.9515 183.533 68.8173 183.522 68.6908 183.48C68.5643 183.439 68.4488 183.37 68.3534 183.277C68.2579 183.185 68.1849 183.071 68.1401 182.946C68.0952 182.821 68.0796 182.687 68.0946 182.555C68.0946 181.336 68.9115 177.18 68.9589 176.836C68.9589 176.771 68.7458 176.742 68.728 176.836C68.136 179.447 67.325 182.756 67.8222 183.413C68.0913 183.742 68.4691 183.963 68.8873 184.037C69.3054 184.111 69.7361 184.032 70.1014 183.816C70.4163 183.56 70.6269 183.198 70.6934 182.798C70.8414 182.206 70.9302 181.614 71.0368 181.063C71.2854 179.69 71.5518 178.322 71.7294 176.919C71.7233 176.901 71.7125 176.884 71.698 176.871C71.6834 176.858 71.6657 176.848 71.6466 176.844C71.6274 176.84 71.6075 176.841 71.5888 176.847C71.5701 176.853 71.5533 176.863 71.54 176.878Z" fill="#455A64"/>
<path d="M68.6983 183.994C68.6557 184.159 68.6221 184.327 68.5976 184.497C68.5621 184.669 68.5266 184.834 68.4852 185C68.4437 185.166 68.4082 185.337 68.3608 185.509C68.3135 185.681 68.2898 185.841 68.2543 186.012C68.2534 186.027 68.2571 186.041 68.265 186.052C68.2728 186.064 68.2843 186.073 68.2978 186.078C68.3112 186.083 68.3258 186.083 68.3393 186.079C68.3528 186.074 68.3646 186.065 68.3727 186.054C68.4502 185.9 68.5194 185.742 68.5799 185.58C68.6332 185.409 68.6864 185.243 68.7338 185.071C68.7812 184.899 68.8167 184.734 68.8522 184.562C68.9028 184.391 68.9326 184.214 68.941 184.035C68.941 183.917 68.7397 183.869 68.6983 183.994Z" fill="#455A64"/>
<path d="M87.2991 207.614C86.8255 206.336 85.4698 206.158 84.2799 206.081C82.5749 205.971 80.8719 205.827 79.1709 205.649C75.7729 205.294 72.3906 204.804 69.0241 204.181C65.8229 203.653 62.659 202.919 59.5521 201.984C56.682 201.153 54.0303 199.7 51.785 197.728C49.6813 195.874 48.2928 193.342 47.8601 190.571C47.7011 188.882 47.7468 187.181 47.9962 185.503C48.1916 183.816 48.4343 182.141 48.7717 180.477C48.9434 179.654 49.1329 178.843 49.3637 178.038C49.3604 178.029 49.3543 178.021 49.3464 178.016C49.3384 178.01 49.329 178.007 49.3193 178.007C49.3097 178.007 49.3002 178.01 49.2923 178.016C49.2844 178.021 49.2783 178.029 49.2749 178.038C48.4176 181.276 47.8236 184.579 47.4989 187.913C47.3517 189.438 47.4739 190.977 47.8601 192.459C48.2457 193.736 48.8463 194.937 49.6361 196.011C53.1407 200.866 59.1732 202.624 64.7498 203.826C68.0887 204.548 71.4434 205.14 74.8138 205.602C76.4537 205.821 78.0994 206.016 79.7452 206.194C81.3909 206.371 83.0781 206.442 84.7417 206.59C85.0968 206.58 85.4502 206.643 85.7794 206.777C86.1086 206.91 86.4064 207.111 86.6538 207.366C86.8328 207.662 86.9515 207.991 87.0034 208.333C87.0552 208.676 87.039 209.025 86.9557 209.361C86.8314 210.136 86.6005 210.9 86.4111 211.664C86.2216 212.427 86.0026 213.292 85.8191 214.103C84.9666 217.493 84.1201 220.889 83.2794 224.291C81.6041 231.058 79.8873 237.824 78.3244 244.62C78.129 245.461 77.9396 246.302 77.762 247.148C77.758 247.164 77.7605 247.18 77.7688 247.194C77.7772 247.208 77.7907 247.218 77.8064 247.222C77.8221 247.226 77.8387 247.224 77.8526 247.215C77.8665 247.207 77.8765 247.193 77.8804 247.178C78.8631 243.821 79.6564 240.411 80.5385 237.019C81.4205 233.627 82.2671 230.235 83.1137 226.843C83.9602 223.45 84.8068 220.1 85.6415 216.725C86.0362 215.024 86.4545 213.325 86.8965 211.628C87.1866 210.379 87.7668 208.864 87.2991 207.614Z" fill="#455A64"/>
<path d="M96.3094 249.025C93.6276 248.859 90.9399 248.794 88.2523 248.705C85.5646 248.616 82.8887 248.581 80.207 248.628C78.6796 248.628 77.1582 248.758 75.6308 248.782C75.5716 248.782 75.5776 248.871 75.6308 248.871C78.3185 248.871 81.0003 249.084 83.688 249.096C86.3756 249.108 89.0515 249.096 91.7332 249.096C93.2547 249.096 94.782 249.149 96.3094 249.137C96.4041 249.125 96.4041 249.031 96.3094 249.025Z" fill="#455A64"/>
<path d="M58.9007 179.441C58.8677 179.558 58.822 179.671 58.7645 179.779C58.7578 179.787 58.7541 179.797 58.7541 179.808C58.7541 179.819 58.7578 179.829 58.7645 179.838C58.214 181.673 57.5213 183.561 55.9111 184.722C55.084 185.309 54.1632 185.751 53.1879 186.03C52.0512 186.362 50.8672 186.456 49.7247 186.77C49.6997 186.782 49.6793 186.801 49.6666 186.825C49.6538 186.85 49.6495 186.877 49.6542 186.904C49.6589 186.931 49.6725 186.956 49.6927 186.975C49.713 186.993 49.7388 187.005 49.7661 187.007C51.0492 187.064 52.3337 186.932 53.5786 186.616C54.6521 186.375 55.6614 185.907 56.5386 185.243C58.3146 183.804 58.8178 181.637 59.0546 179.453C59.0487 179.376 58.9244 179.376 58.9007 179.441Z" fill="#455A64"/>
<path d="M105.426 194.703C104.355 193.264 102.78 192.489 101.11 191.944C89.8625 188.25 76.0748 186.616 68.5505 185.995C68.4913 185.995 68.4676 186.077 68.5505 186.083C76.6846 187.309 97.5052 190.097 103.39 193.608C105.912 195.111 107.019 198.717 106.314 204.648C105.752 209.384 105.13 214.476 104.355 219.158C104.355 219.324 104.438 219.312 104.473 219.158C105.367 214.932 106.137 210.308 106.681 206.022C107.119 202.316 107.818 197.912 105.426 194.703Z" fill="#455A64"/>
<path d="M59.5639 127.742C56.8999 131.122 56.6039 136.19 56.6039 136.19C56.6039 136.19 54.3069 141.518 55.4199 144.14C55.728 144.884 56.2122 145.543 56.831 146.058C57.4497 146.574 58.1844 146.931 58.9719 147.1L58.5457 145.632C58.5457 145.632 59.7297 147.444 63.0981 147.828C66.4666 148.213 70.6284 146.692 72.73 145.289C73.9862 144.468 75.0064 143.333 75.69 141.997L75.098 144.276C76.1428 144.03 77.1106 143.529 77.9152 142.819C78.7198 142.108 79.3362 141.21 79.7097 140.203C81.1778 136.616 75.2105 132.436 74.6303 131.454C74.0501 130.471 72.5524 122.964 64.738 125.232C64.7321 125.238 61.3991 125.421 59.5639 127.742Z" fill="#263238"/>
<path d="M57.8411 147.047C56.87 146.654 56.0432 145.972 55.4731 145.093C54.8647 144.243 54.5602 143.213 54.6088 142.169C54.7534 140.929 55.1225 139.725 55.698 138.617C56.219 137.433 56.8229 136.314 57.3201 135.136C57.3201 135.071 57.2491 135.029 57.2077 135.083C56.6034 136.002 56.052 136.954 55.556 137.936C55.0297 138.839 54.6123 139.8 54.3128 140.801C54.0406 141.727 54.0406 142.711 54.3128 143.637C54.545 144.391 54.9599 145.077 55.5205 145.632C56.2147 146.227 56.9828 146.731 57.8056 147.13C57.8529 147.148 57.924 147.065 57.8411 147.047Z" fill="#263238"/>
<path d="M79.9582 136.669C78.6677 133.993 75.9445 132.525 74.127 130.281C73.1384 129.062 72.3214 127.683 71.1078 126.67C71.1078 126.641 71.0309 126.67 71.0605 126.724C71.9891 127.701 72.8107 128.775 73.5114 129.926C74.3289 131.018 75.2552 132.023 76.276 132.928C78.0875 134.633 80.2483 136.645 80.2069 139.339C80.2069 140.588 79.6149 142.027 78.4309 142.56C78.3835 142.56 78.4309 142.66 78.4723 142.631C78.9431 142.373 79.356 142.021 79.6859 141.597C80.0157 141.174 80.2555 140.687 80.3904 140.168C80.674 138.988 80.5205 137.745 79.9582 136.669Z" fill="#263238"/>
<path d="M80.1654 137.409C80.1285 136.336 79.7581 135.302 79.1057 134.449C78.4022 133.656 77.536 133.024 76.566 132.596C75.4886 132.052 74.3638 131.554 73.606 130.577C73.606 130.536 73.5172 130.577 73.5468 130.631C74.7663 132.241 76.7732 132.821 78.2414 134.124C79.9227 135.615 80.2127 138.043 79.4254 140.044C78.9179 141.284 78.1248 142.388 77.1107 143.264C77.1107 143.264 77.1107 143.305 77.1107 143.264C78.8689 141.867 80.3015 139.771 80.1654 137.409Z" fill="#263238"/>
<path d="M72.6055 154.512C76.9981 158.478 92.6506 170.585 98.3871 169.188C102.146 168.27 115.253 160.254 116.041 155.844C116.384 153.926 109.83 144.886 108.191 146.171C106.551 147.455 96.2263 154.275 94.6812 154.542C93.136 154.808 77.3 148.03 72.0964 147C63.1216 145.176 70.2434 152.375 72.6055 154.512Z" fill="#DD6A57"/>
<path d="M109.937 141.825C111.843 140.641 113.939 139.179 116.242 138.741C118.545 138.303 121.079 140.932 121.262 141.796C121.446 142.66 121.712 148.249 119.415 148.728C117.118 149.208 117.639 144.768 117.456 144.312C117.272 143.856 117.053 143.264 116.633 143.4C116.212 143.536 109.393 148.728 109.393 148.728L109.937 141.825Z" fill="#DD6A57"/>
<path d="M110.15 142.11C110.28 142.11 115.91 138.374 118.213 137.936C120.516 137.498 123.05 140.126 123.227 140.997C123.405 141.867 123.677 147.444 121.386 147.923C119.095 148.403 119.61 143.963 119.421 143.507C119.231 143.051 119.024 142.459 118.598 142.595C118.172 142.731 111.364 147.923 111.364 147.923L110.15 142.11Z" fill="#DD6A57"/>
<path d="M120.546 147.799C120.218 147.439 119.989 147.001 119.883 146.526C119.732 146.047 119.656 145.548 119.658 145.046C119.693 144.607 119.693 144.165 119.658 143.726C119.56 143.301 119.356 142.908 119.066 142.583C118.823 142.293 118.509 142.477 118.237 142.636C117.846 142.89 117.47 143.167 117.112 143.465C116.716 143.773 116.331 144.093 115.928 144.407C115.513 144.718 115.118 145.054 114.744 145.413C114.744 145.443 114.744 145.496 114.786 145.472C115.159 145.247 115.49 144.963 115.839 144.703C116.189 144.442 116.627 144.111 117.023 143.832C117.42 143.554 117.752 143.276 118.13 143.009C118.261 142.921 118.521 142.702 118.722 142.702C118.924 142.702 119.078 143.116 119.149 143.252C119.332 143.643 119.393 144.081 119.326 144.507C119.292 144.941 119.302 145.378 119.356 145.81C119.393 146.223 119.51 146.625 119.699 146.994C119.915 147.314 120.168 147.608 120.451 147.87C120.522 147.893 120.587 147.834 120.546 147.799Z" fill="#263238"/>
<path d="M104.141 149.646C104.141 149.646 109.274 142.542 110.357 141.103C112.524 138.244 122.742 131.341 124.263 130.85C125.785 130.358 127.016 133.431 120.119 138.333C116.485 140.92 116.254 143.359 116.567 144.608C116.881 145.857 118.616 147.97 120.711 147.467C122.807 146.964 123.565 143.56 125.447 142.802C127.33 142.044 126.791 145.91 125.844 148.272C124.815 150.584 123.15 152.555 121.043 153.956C119.344 155.033 114.152 158.692 114.152 158.692L104.141 149.646Z" fill="#DD6A57"/>
<path d="M123.109 145.413C122.44 146.2 121.694 147.189 120.646 147.461C119.598 147.734 118.705 147.171 118.012 146.384C117.27 145.627 116.846 144.614 116.828 143.554C116.881 142.581 117.214 141.643 117.787 140.855C118.489 139.896 119.327 139.045 120.273 138.327C120.279 138.324 120.284 138.32 120.288 138.315C120.292 138.31 120.295 138.304 120.296 138.297C120.297 138.291 120.297 138.285 120.295 138.278C120.293 138.272 120.29 138.267 120.286 138.262C120.282 138.257 120.276 138.253 120.27 138.251C120.264 138.249 120.258 138.248 120.252 138.248C120.245 138.249 120.239 138.251 120.234 138.254C120.228 138.257 120.223 138.262 120.22 138.268C119.326 138.907 116.538 140.801 116.49 143.625C116.516 144.706 116.955 145.735 117.716 146.502C118.367 147.254 119.226 147.929 120.279 147.799C121.558 147.633 122.428 146.384 123.174 145.431C123.216 145.383 123.145 145.372 123.109 145.413Z" fill="#263238"/>
<path d="M103.68 147.485L111.204 162.208C111.204 162.208 101.27 169.501 95.729 169.963C89.0039 170.555 72.4812 156.247 69.9948 153.796C65.9218 149.77 65.1463 146.585 68.1833 146.1C69.3673 145.904 71.1433 146.1 73.5113 146.863C75.9799 147.639 90.6793 153.251 94.7759 153.736C97.0255 154.003 103.68 147.485 103.68 147.485Z" fill="#455A64"/>
<path d="M103.674 147.485L111.204 162.208C111.204 162.208 109.558 163.392 107.226 164.878C103.834 167.009 99.0088 169.685 95.7291 169.957C89.0099 170.549 72.4754 156.241 69.9949 153.79C67.0349 150.877 65.8509 148.403 66.5317 147.076C66.7094 146.793 66.9518 146.557 67.239 146.386C67.5262 146.215 67.8499 146.115 68.1834 146.094C69.3674 145.904 71.1434 146.094 73.5114 146.863C75.98 147.639 90.6794 153.251 94.776 153.736C97.0256 154.003 103.674 147.485 103.674 147.485Z" fill="#455A64"/>
<path d="M111.204 162.208C111.204 162.208 109.558 163.392 107.226 164.878C105.74 165.807 103.993 166.843 102.212 167.737C99.9146 168.886 97.5762 169.803 95.6996 169.957C88.9804 170.549 72.4458 156.241 69.9653 153.79C67.0053 150.877 65.8213 148.403 66.5021 147.076C66.5859 146.912 66.7028 146.767 66.8455 146.65C67.2185 146.342 67.673 146.149 68.1538 146.094C69.3378 145.904 71.1138 146.094 73.4818 146.863C75.9505 147.639 90.6498 153.251 94.7465 153.736C97.0257 154.009 103.674 147.491 103.674 147.491L111.204 162.208Z" fill="#455A64"/>
<path d="M108.131 162.913C106.947 160.769 102.46 151.836 101.619 149.835C101.56 149.699 101.619 149.628 101.714 149.764C105.396 156.093 107.166 160.704 108.226 162.865C108.244 162.918 108.161 162.966 108.131 162.913Z" fill="#263238"/>
<path d="M102.205 167.731C99.9085 168.88 97.5701 169.797 95.6935 169.951C88.9743 170.543 72.4397 156.235 69.9592 153.784C66.9992 150.871 65.8152 148.397 66.496 147.071C66.5797 146.906 66.6967 146.761 66.8394 146.644L102.205 167.731Z" fill="#263238"/>
<path d="M44.7402 182.265C47.1082 182.608 52.7618 183.117 58.7825 183.627C68.3847 184.42 78.9697 185.189 78.9697 185.189L77.1937 166.837C77.1937 166.837 79.6505 163.285 79.2006 159.846C78.6796 155.962 72.4754 147.976 71.8124 147.361C69.5687 145.271 66.3305 144.028 63.2284 145.697C62.5796 146.05 61.982 146.491 61.4524 147.005C61.414 147.038 61.3783 147.074 61.3458 147.112C61.1742 147.278 60.9906 147.455 60.819 147.651C53.1052 155.98 44.7402 182.265 44.7402 182.265Z" fill="#455A64"/>
<path d="M58.6167 149.717C52.2823 158.336 44.0357 174.397 46.9306 176.949C53.265 182.549 66.4666 189.162 72.8424 189.706C74.7072 189.866 78.1705 177.665 76.9095 176.09C75.6485 174.516 59.7415 170.082 59.5994 168.868C59.5047 168.175 61.5826 160.497 63.3705 153.085C65.4365 144.578 60.4282 147.248 58.6167 149.717Z" fill="#DD6A57"/>
<path d="M73.6357 175.197C73.6357 175.197 79.3367 175.037 83.0663 175.108C85.1442 175.149 88.7081 175.534 90.2236 176.262C92.4909 177.351 101.27 183.366 99.8613 185.521C98.5826 187.475 91.6917 181.377 91.6917 181.377C91.6917 181.377 99.1924 186.93 97.221 189.008C95.2497 191.086 88.3884 183.129 88.3884 183.129C88.3884 183.129 95.966 189.014 93.5921 190.825C91.8161 192.199 85.1797 185.349 85.1797 185.349C85.1797 185.349 91.6681 190.441 89.8921 191.932C87.9089 193.584 81.3968 187.664 81.3968 187.664C76.2287 190.695 72.5169 190.032 69.9594 189.233C69.3378 189.014 73.6357 175.197 73.6357 175.197Z" fill="#DD6A57"/>
<path d="M89.223 179.269C90.1287 179.891 91.0463 180.513 91.8929 181.211C92.7394 181.91 93.5623 182.638 94.3378 183.413C95.3731 184.408 96.2926 185.516 97.0788 186.717C95.4521 184.792 93.6485 183.024 91.6916 181.436C90.851 180.738 90.0399 179.998 89.1934 179.299L89.223 179.269Z" fill="#263238"/>
<path d="M86.642 182.277C87.7668 183.123 88.9094 183.917 89.9927 184.811C91.0761 185.705 92.0174 186.634 93.0297 187.593C93.1067 187.67 93.0297 187.688 92.9587 187.593C91.9108 186.675 90.863 185.906 89.8033 185C88.7436 184.094 87.7135 183.141 86.6183 182.277C86.6065 182.289 86.6243 182.265 86.642 182.277Z" fill="#263238"/>
<path d="M83.9721 184.461C85.7202 185.713 87.335 187.142 88.791 188.724C88.8679 188.801 88.791 188.812 88.7022 188.724C87.1215 187.279 85.8961 186.131 83.9306 184.509C83.8892 184.497 83.9247 184.438 83.9721 184.461Z" fill="#263238"/>
<path d="M66.4903 189.718L75.0921 174.516C75.0921 174.516 60.4045 169.383 60.0375 168.909C59.6705 168.436 62.5949 158.845 63.8263 152.535C65.0577 146.224 62.2042 144.72 57.5274 150.676C52.8506 156.631 44.2429 172.379 45.6874 176.215C47.1319 180.051 66.4903 189.718 66.4903 189.718Z" fill="#455A64"/>
<path d="M71.9663 174.362C71.6184 174.83 71.3038 175.323 71.0251 175.836L70.0423 177.446C69.3793 178.541 68.7399 179.648 68.1124 180.761C66.8751 182.969 65.6497 185.189 64.4065 187.392C64.4065 187.445 64.4539 187.486 64.4894 187.439C65.851 185.296 67.1948 183.153 68.4913 180.969C69.1366 179.891 69.7582 178.802 70.3443 177.695C70.6403 177.138 70.9363 176.582 71.2204 176.025C71.5225 175.5 71.7876 174.954 72.0137 174.391C72.0255 174.362 71.9841 174.344 71.9663 174.362Z" fill="#263238"/>
<path d="M66.4311 189.606C63.7375 188.179 61.1031 186.646 58.451 185.107C55.7988 183.567 53.123 182.016 50.6188 180.282C49.9084 179.79 49.1921 179.305 48.4935 178.796C47.795 178.287 47.1556 177.73 46.4334 177.286C46.3801 177.251 46.3327 177.328 46.3742 177.363C46.9062 177.907 47.4824 178.406 48.0969 178.855C48.6889 179.34 49.3283 179.814 49.9558 180.282C51.1398 181.188 52.4363 182.058 53.715 182.845C56.2843 184.491 58.9601 185.965 61.6774 187.35C63.2403 188.144 64.8327 188.884 66.4134 189.689C66.4219 189.686 66.4296 189.682 66.4357 189.676C66.4418 189.669 66.4461 189.661 66.4479 189.653C66.4497 189.644 66.4491 189.635 66.4462 189.627C66.4432 189.619 66.438 189.611 66.4311 189.606Z" fill="#263238"/>
<path d="M75.0921 174.409C73.766 173.894 60.7598 168.939 60.2211 168.838C60.2211 168.436 61.3695 163.789 61.6241 162.711C61.6833 162.457 61.7366 162.208 61.7899 161.959C61.9852 161.468 62.1747 160.971 62.3819 160.473C62.6486 159.8 62.957 159.143 63.3054 158.508C63.3117 158.497 63.3133 158.484 63.31 158.472C63.3067 158.46 63.2986 158.449 63.2876 158.443C63.2766 158.437 63.2636 158.435 63.2514 158.438C63.2392 158.442 63.2288 158.45 63.2225 158.461C62.8851 159.112 62.5417 159.769 62.2339 160.432L62.074 160.781L62.3582 159.538C62.6009 158.437 62.8851 157.33 63.0449 156.211C63.0413 156.201 63.0345 156.192 63.0254 156.185C63.0164 156.179 63.0056 156.175 62.9946 156.175C62.9835 156.175 62.9727 156.179 62.9637 156.185C62.9547 156.192 62.9479 156.201 62.9443 156.211C62.5476 157.324 62.2694 158.478 61.9556 159.615C61.6419 160.752 59.8363 168.945 59.9014 168.998C60.3809 169.353 73.8015 174.042 75.0862 174.522C75.0921 174.516 75.1276 174.427 75.0921 174.409Z" fill="#263238"/>
<path d="M98.9615 191.767H68.5327V193.134H98.9615V191.767Z" fill="#FC2A58"/>
<path opacity="0.1" d="M98.9615 191.767H83.6465V193.134H98.9615V191.767Z" fill="black"/>
<path d="M85.2981 193.128H114.951L118.829 172.988H89.1698L85.2981 193.128Z" fill="#FC2A58"/>
<path d="M100.258 183.058C100.237 183.286 100.264 183.515 100.338 183.731C100.412 183.947 100.53 184.145 100.685 184.313C100.84 184.48 101.029 184.613 101.239 184.703C101.449 184.793 101.675 184.838 101.904 184.834C102.39 184.825 102.857 184.64 103.219 184.314C103.58 183.987 103.811 183.542 103.869 183.058C103.894 182.828 103.869 182.596 103.796 182.376C103.724 182.156 103.606 181.954 103.45 181.784C103.294 181.613 103.103 181.477 102.891 181.386C102.678 181.294 102.449 181.249 102.218 181.253C101.727 181.262 101.256 181.451 100.895 181.783C100.534 182.116 100.307 182.57 100.258 183.058Z" fill="white"/>
<path d="M64.1518 146.224C64.3353 146.692 67.1118 149.498 69.2845 149.077C69.9949 148.935 69.4147 145.01 69.4147 145.01V144.709L69.7403 140.511L64.5248 138.143L63.7729 137.835C63.7729 137.835 63.7729 138.99 63.7729 140.428V140.636C63.7729 140.713 63.7729 140.789 63.7729 140.866C63.7729 141.08 63.7729 141.299 63.7729 141.518C63.7729 141.737 63.7729 141.849 63.7729 142.021C63.7729 142.193 63.7729 142.37 63.7729 142.542C63.8189 143.776 63.9454 145.006 64.1518 146.224Z" fill="#DD6A57"/>
<path d="M63.7847 140.417C64.3583 141.5 65.1613 142.445 66.1377 143.187C67.1141 143.928 68.2405 144.447 69.4383 144.709L69.7639 140.511L64.5483 138.143L63.7965 137.835C63.7965 137.835 63.7847 138.978 63.7847 140.417Z" fill="#263238"/>
<path d="M74.3697 133.2C76.0806 140.387 71.9662 142.222 70.4151 142.589C69.0062 142.921 64.1754 143.88 61.7305 136.906C59.2855 129.932 62.0857 126.842 65.2825 125.93C68.4793 125.019 72.6588 126.025 74.3697 133.2Z" fill="#DD6A57"/>
<path d="M73.399 132.016C73.2294 132.025 73.0595 132.025 72.8899 132.016C72.7092 132.032 72.5283 131.988 72.3748 131.892C72.3325 131.853 72.3043 131.801 72.2947 131.744C72.2851 131.687 72.2945 131.629 72.3215 131.578C72.3893 131.487 72.4796 131.416 72.5835 131.371C72.6874 131.327 72.8012 131.31 72.9135 131.323C73.1525 131.318 73.3848 131.403 73.5647 131.56C73.5969 131.598 73.6185 131.643 73.6274 131.692C73.6363 131.74 73.6321 131.79 73.6152 131.837C73.5983 131.883 73.5694 131.924 73.5314 131.956C73.4934 131.987 73.4477 132.008 73.399 132.016Z" fill="#263238"/>
<path d="M68.7458 132.898C68.9069 132.846 69.065 132.784 69.2194 132.715C69.3963 132.675 69.5547 132.577 69.6693 132.436C69.6979 132.385 69.7081 132.325 69.6984 132.267C69.6888 132.209 69.6597 132.156 69.616 132.117C69.5206 132.051 69.4094 132.012 69.2939 132.004C69.1784 131.995 69.0628 132.018 68.9589 132.069C68.7337 132.145 68.5428 132.298 68.4202 132.501C68.3946 132.55 68.3838 132.605 68.3893 132.659C68.3948 132.714 68.4163 132.766 68.4511 132.808C68.4859 132.85 68.5324 132.882 68.5849 132.898C68.6373 132.914 68.6933 132.914 68.7458 132.898Z" fill="#263238"/>
<path d="M70.0186 134.579C70.0186 134.579 69.989 134.579 69.989 134.633C70.1015 135.124 70.1429 135.704 69.7285 135.953C70.2672 135.799 70.2021 135.029 70.0186 134.579Z" fill="#263238"/>
<path d="M69.4799 134.147C68.6748 134.236 68.8879 135.846 69.6634 135.757C70.439 135.669 70.1548 134.07 69.4799 134.147Z" fill="#263238"/>
<path d="M69.1721 134.277C69.0477 134.39 68.9353 134.573 68.7636 134.615C68.5919 134.656 68.4025 134.514 68.2485 134.372C68.29 134.68 68.4557 134.964 68.7932 134.964C69.1306 134.964 69.2727 134.656 69.3023 134.337C69.2905 134.313 69.2313 134.236 69.1721 134.277Z" fill="#263238"/>
<path d="M72.7239 133.97C72.7239 133.97 72.7653 133.97 72.7653 134.005C72.8186 134.508 72.9666 135.071 73.4402 135.189C72.9015 135.201 72.7239 134.449 72.7239 133.97Z" fill="#263238"/>
<path d="M73.1087 133.384C73.902 133.212 74.1921 134.81 73.458 134.97C72.7239 135.13 72.4457 133.532 73.1087 133.384Z" fill="#263238"/>
<path d="M73.464 133.431C73.6061 133.49 73.76 133.62 73.908 133.603C74.056 133.585 74.1862 133.389 74.2691 133.2C74.3342 133.502 74.2691 133.839 74.0086 133.952C73.7481 134.064 73.5054 133.828 73.3811 133.532C73.3811 133.496 73.4048 133.407 73.464 133.431Z" fill="#263238"/>
<path d="M70.4686 138.439C70.6047 138.546 70.7409 138.694 70.9244 138.688C71.1087 138.666 71.2863 138.606 71.4454 138.51C71.4454 138.51 71.4809 138.51 71.4454 138.51C71.3865 138.615 71.3003 138.701 71.196 138.761C71.0918 138.82 70.9733 138.85 70.8534 138.848C70.7486 138.832 70.6509 138.785 70.5729 138.713C70.4949 138.642 70.44 138.548 70.4153 138.445C70.4153 138.439 70.4508 138.427 70.4686 138.439Z" fill="#263238"/>
<path d="M72.2564 136.308C72.3674 136.662 72.4603 137.022 72.5346 137.385C72.5346 137.421 72.4576 137.445 72.3392 137.474C72.0475 137.577 71.733 137.598 71.4302 137.534C71.1274 137.471 70.848 137.325 70.6224 137.113C70.5928 137.084 70.6224 137.042 70.6698 137.06C71.1651 137.29 71.7208 137.356 72.2564 137.249C72.2564 137.149 71.836 136.018 71.8893 136.006C72.1648 135.987 72.4415 136.005 72.7122 136.059C72.2978 134.532 71.6348 133.099 71.244 131.566C71.2431 131.556 71.2454 131.546 71.2505 131.537C71.2556 131.529 71.2633 131.522 71.2725 131.518C71.2818 131.514 71.292 131.513 71.3018 131.516C71.3115 131.518 71.3203 131.523 71.3269 131.531C72.0765 133.058 72.6714 134.656 73.1029 136.302C73.168 136.492 72.4103 136.349 72.2564 136.308Z" fill="#263238"/>
<path d="M72.2681 137.208C72.1459 137.534 71.9421 137.824 71.6761 138.048C71.5218 138.164 71.336 138.23 71.1433 138.238C70.723 138.238 70.6105 137.883 70.5987 137.557C70.5929 137.382 70.6068 137.208 70.6401 137.036C71.1515 137.262 71.7209 137.322 72.2681 137.208Z" fill="#263238"/>
<path d="M71.6465 138.049C71.4922 138.164 71.3064 138.23 71.1137 138.238C70.6934 138.238 70.5809 137.883 70.5691 137.557C70.7778 137.506 70.9978 137.526 71.1934 137.615C71.389 137.704 71.5487 137.857 71.6465 138.049Z" fill="#FFA2BE"/>
<path d="M61.7898 136.947C62.6186 136.764 64.4123 134.112 63.8144 130.068C63.8144 130.068 64.0986 133.733 63.9151 134.307C63.7315 134.881 64.9155 132.815 64.4775 129.571C65.6223 130.137 66.8424 130.536 68.1005 130.755C69.7048 130.933 70.6402 130.755 70.729 130.637C70.8178 130.518 68.4498 130.163 67.7216 129.559C67.7216 129.559 72.1143 130.785 74.0205 130.619C74.2395 130.619 73.7659 126.084 70.5395 124.663C67.3131 123.243 63.0507 126.055 62.0088 127.452C62.0088 127.452 60.588 127.902 59.3626 130.311C58.1371 132.72 60.884 137.149 61.7898 136.947Z" fill="#263238"/>
<path d="M72.4162 134.384C72.1617 133.147 72.6175 132.016 73.4404 131.827C74.2633 131.637 75.1394 132.525 75.3999 133.768C75.6604 135.012 75.1986 136.136 74.3758 136.332C73.5529 136.527 72.6767 135.598 72.4162 134.384ZM72.7181 134.325C72.9431 135.396 73.6594 136.16 74.3106 136.03C74.9618 135.9 75.317 134.905 75.098 133.828C74.879 132.75 74.1567 131.992 73.4996 132.129C72.8425 132.265 72.4991 133.2 72.7241 134.295L72.7181 134.325Z" fill="#FC2A58"/>
<path d="M66.7566 135.532C66.6995 135.116 66.7652 134.692 66.9457 134.313C67.1263 133.934 67.4138 133.616 67.7728 133.397C68.1319 133.179 68.5469 133.071 68.9667 133.086C69.3865 133.1 69.7929 133.237 70.1359 133.48C70.4789 133.723 70.7434 134.06 70.8971 134.451C71.0507 134.842 71.0867 135.27 71.0006 135.681C70.9146 136.092 70.7102 136.469 70.4126 136.766C70.1151 137.062 69.7374 137.265 69.3259 137.35C68.7442 137.449 68.1468 137.314 67.665 136.973C67.1832 136.632 66.8565 136.114 66.7566 135.532ZM67.0585 135.467C67.159 135.811 67.3573 136.117 67.6291 136.35C67.901 136.582 68.2347 136.73 68.5894 136.776C68.9441 136.822 69.3045 136.764 69.6266 136.608C69.9486 136.452 70.2184 136.206 70.4029 135.9C70.5874 135.593 70.6786 135.24 70.6654 134.883C70.6523 134.525 70.5353 134.179 70.3287 133.887C70.1222 133.595 69.835 133.37 69.5024 133.238C69.1698 133.107 68.806 133.075 68.4557 133.147C67.9639 133.271 67.5412 133.585 67.2795 134.02C67.0179 134.454 66.9384 134.974 67.0585 135.467Z" fill="#FC2A58"/>
<path d="M70.8178 134.479C71.8656 133.845 72.4517 134.112 72.4576 134.112L72.5938 133.839C72.5938 133.839 71.8656 133.484 70.658 134.212L70.8178 134.479Z" fill="#FC2A58"/>
<path d="M66.8632 135.302V134.976C66.662 134.976 63.2402 135.023 62.7192 135.1C62.1983 135.177 61.0972 136.124 60.9788 136.231L61.18 136.462C61.6407 136.029 62.1685 135.673 62.7429 135.408C63.1632 135.361 65.1524 135.343 66.8632 135.302Z" fill="#FC2A58"/>
<path d="M63.0033 137.202C63.0033 137.202 61.0674 135.16 60.1202 135.882C59.173 136.604 60.8543 139.73 62.1389 140.026C62.3007 140.073 62.4703 140.087 62.6375 140.066C62.8047 140.046 62.966 139.991 63.1116 139.907C63.2572 139.822 63.3841 139.709 63.4846 139.573C63.585 139.438 63.6569 139.284 63.6959 139.12L63.0033 137.202Z" fill="#DD6A57"/>
<path d="M60.6235 136.752C60.6235 136.752 60.6235 136.752 60.6235 136.788C61.0438 136.924 61.4306 137.148 61.759 137.443C62.0874 137.739 62.35 138.101 62.5298 138.504C62.4679 138.426 62.3898 138.362 62.3007 138.317C62.2116 138.272 62.1138 138.247 62.0141 138.244C61.9144 138.24 61.8151 138.259 61.7232 138.298C61.6313 138.336 61.5489 138.395 61.4819 138.469C61.4819 138.469 61.4819 138.516 61.4819 138.51C61.6244 138.439 61.7857 138.414 61.943 138.44C62.1003 138.465 62.2455 138.54 62.3581 138.652C62.5447 138.831 62.7114 139.03 62.8554 139.244C62.9087 139.315 63.0389 139.244 62.9975 139.167C62.8791 138.096 61.8075 136.699 60.6235 136.752Z" fill="#263238"/>
<path d="M69.4502 144.987L68.6687 149.012L63.9682 144.91L62.6599 146.496C62.6599 146.496 68.0945 153.6 68.059 153.239L68.9766 149.723L71.6287 151.534L70.4743 146.473L69.4502 144.987Z" fill="#EBEBEB"/>
<path d="M70.5218 146.514C70.5218 146.484 70.4507 146.479 70.4567 146.514C70.5573 147.378 71.2677 150.409 71.4275 151.25C71.3151 151.167 68.9885 149.675 68.9767 149.711C68.7399 150.303 68.065 152.848 68.0295 153.073C67.0763 152.02 63.6783 147.455 62.6067 146.49C62.6001 146.487 62.5927 146.486 62.5854 146.487C62.5782 146.489 62.5715 146.492 62.5663 146.497C62.5611 146.503 62.5577 146.509 62.5564 146.516C62.5552 146.524 62.5562 146.531 62.5594 146.538C63.4355 147.674 68.0176 153.571 68.0709 153.541C68.4557 152.322 68.7739 151.083 69.024 149.829C69.9096 150.536 70.8411 151.182 71.8123 151.765C71.6643 150.836 70.8059 147.408 70.5218 146.514Z" fill="#263238"/>
</svg>
