<svg width="163" height="45" viewBox="0 0 163 45" fill="none" xmlns="http://www.w3.org/2000/svg">
<g id="Black Logo" clip-path="url(#clip0_83_248)">
<g id="Layer 2">
<g id="Layer 1">
<path id="Vector" d="M62.0984 16.8376C62.0984 21.0357 59.0627 23.7562 54.3606 23.7562H48.3273V9.94556H54.5377C59.1218 9.94556 62.0984 12.6453 62.0984 16.8452M57.3963 16.883C57.3963 14.8341 56.2251 13.4928 54.4387 13.4928H52.9304V20.2146H54.6577C56.3241 20.2146 57.3963 18.9149 57.3963 16.883Z" fill="#444444"/>
<path id="Vector_2" d="M72.4548 21.8114H67.2366L66.5224 23.7638H61.7994L67.6727 9.95312H72.3958L78.0501 23.7638H73.1499L72.4548 21.8114ZM71.3236 18.5403L69.8933 14.4993L68.4269 18.5403H71.3236Z" fill="#444444"/>
<path id="Vector_3" d="M88.8845 9.94556V13.5534H84.9156V23.7638H80.3126V13.5534H76.3627V9.94556H88.8845Z" fill="#444444"/>
<path id="Vector_4" d="M97.8525 21.8114H92.6344L91.9183 23.7638H87.1971L93.0705 9.95312H97.7916L103.448 23.7638H98.5458L97.8525 21.8114ZM96.7213 18.5403L95.293 14.4993L93.8246 18.5403H96.7213Z" fill="#444444"/>
<path id="Vector_5" d="M121.82 9.94556V13.5534H117.851V23.7638H113.248V13.5534H109.3V9.94556H121.82Z" fill="#444444"/>
<path id="Vector_6" d="M130.906 23.7638L129.24 20.1692H127.514V23.7638H122.911V9.95312H129.636C133.407 9.95312 135.57 11.7466 135.57 14.9004C135.57 16.9114 134.795 18.4098 133.367 19.2763L136.105 23.7713L130.906 23.7638ZM127.514 16.7071H129.636C130.63 16.7071 131.205 16.096 131.205 15.0309C131.205 14.0055 130.634 13.4152 129.636 13.4152H127.514V16.7071Z" fill="#444444"/>
<path id="Vector_7" d="M149.061 9.94556V13.4152H141.899V15.1104H148.406V18.5782H141.899V20.2941H149.24V23.7638H137.296V9.94556H149.061Z" fill="#444444"/>
<path id="Vector_8" d="M162.752 9.94556V13.4152H155.59V15.1104H162.097V18.5782H155.59V20.2941H162.93V23.7638H150.985V9.94556H162.752Z" fill="#444444"/>
<path id="Vector_9" d="M55.3262 35.6637H50.8488L49.9309 37.7542H48.931L52.6219 29.5813H53.5988L57.2782 37.7542H56.2556L55.3262 35.6637ZM54.9453 34.7991L53.0751 30.5953L51.2297 34.7991H54.9453Z" fill="#FF2255"/>
<path id="Vector_10" d="M77.9092 29.5793V30.4439H73.6184V33.3744H77.4635V34.2277H73.6184V37.7541H72.6795V29.5793H77.9092Z" fill="#FF2255"/>
<path id="Vector_11" d="M98.7877 37.7542L97.0603 35.1377C96.8965 35.151 96.7194 35.1623 96.5309 35.1623H94.3446V37.7542H93.4038V29.5813H96.5309C98.5877 29.5813 99.7684 30.584 99.7684 32.3245C99.7684 33.6677 99.0981 34.5948 97.9097 34.9637L99.8503 37.7542H98.7877ZM96.5309 34.2977C98.024 34.2977 98.8696 33.6318 98.8696 32.3472C98.8696 31.0986 98.024 30.444 96.5309 30.444H94.3446V34.2977H96.5309Z" fill="#FF2255"/>
<path id="Vector_12" d="M116.952 29.5813H116.012V37.7561H116.952V29.5813Z" fill="#FF2255"/>
<path id="Vector_13" d="M137.077 30.4099C136.647 30.4099 136.221 30.494 135.824 30.6574C135.427 30.8209 135.066 31.0604 134.762 31.3624C134.458 31.6644 134.217 32.0229 134.052 32.4175C133.888 32.812 133.803 33.2349 133.803 33.662C133.803 34.0891 133.888 34.512 134.052 34.9065C134.217 35.3011 134.458 35.6596 134.762 35.9616C135.066 36.2636 135.427 36.5031 135.824 36.6666C136.221 36.83 136.647 36.9141 137.077 36.9141C137.984 36.9044 138.853 36.5536 139.51 35.9322L140.082 36.5509C139.26 37.3305 138.171 37.7731 137.035 37.7901C134.66 37.7901 132.778 35.9682 132.778 33.6563C132.778 31.3445 134.683 29.5566 137.069 29.5566C138.187 29.5636 139.262 29.9892 140.078 30.7485L139.507 31.4258C138.861 30.7834 137.987 30.4186 137.073 30.4099" fill="#FF2255"/>
<path id="Vector_14" d="M161.048 35.6637H156.569L155.653 37.7542H154.653L158.344 29.5813H159.321L163 37.7542H161.977L161.048 35.6637ZM160.667 34.7991L158.799 30.5953L156.953 34.7991H160.667Z" fill="#FF2255"/>
<g id="Clip path group">
<mask id="mask0_83_248" style="mask-type:luminance" maskUnits="userSpaceOnUse" x="0" y="0" width="40" height="46">
<g id="clip-path">
<path id="Vector_15" d="M26.2528 27.5191C26.2526 27.7365 26.2821 27.9529 26.3405 28.1624L21.6803 30.8375C21.4533 30.6086 21.1827 30.4269 20.8844 30.3028C20.5861 30.1788 20.2659 30.1149 19.9425 30.1149C19.619 30.1149 19.2988 30.1788 19.0005 30.3028C18.7022 30.4269 18.4316 30.6086 18.2046 30.8375L13.5445 28.1624C13.6028 27.9529 13.6323 27.7365 13.6321 27.5191C13.632 26.9573 13.4357 26.4128 13.0764 25.9788C12.7172 25.5448 12.2175 25.2482 11.6625 25.1396C11.1076 25.0309 10.5319 25.1171 10.0338 25.3833C9.53571 25.6495 9.14611 26.0792 8.93154 26.5991C8.71698 27.119 8.69077 27.6967 8.85739 28.2337C9.02401 28.7706 9.37312 29.2334 9.84509 29.543C10.3171 29.8527 10.8826 29.9899 11.4451 29.9313C12.0077 29.8727 12.5323 29.622 12.9293 29.2218L17.5895 31.895C17.5036 32.2047 17.4805 32.5283 17.5215 32.847C17.5625 33.1656 17.6668 33.473 17.8284 33.7513C17.99 34.0296 18.2056 34.2732 18.4628 34.468C18.7199 34.6628 19.0135 34.8049 19.3264 34.8861V40.2306C18.7518 40.3794 18.2516 40.7311 17.9193 41.2199C17.5869 41.7087 17.4453 42.301 17.5208 42.886C17.5963 43.471 17.8838 44.0087 18.3296 44.3983C18.7753 44.7879 19.3487 45.0029 19.9425 45.0029C20.5362 45.0029 21.1096 44.7879 21.5553 44.3983C22.0011 44.0087 22.2886 43.471 22.3641 42.886C22.4397 42.301 22.298 41.7087 21.9656 41.2199C21.6333 40.7311 21.1331 40.3794 20.5585 40.2306V34.8842C20.8714 34.803 21.165 34.6609 21.4221 34.4661C21.6793 34.2713 21.8949 34.0277 22.0565 33.7494C22.2181 33.4711 22.3224 33.1637 22.3634 32.8451C22.4044 32.5264 22.3813 32.2028 22.2954 31.8931L26.9556 29.2199C27.3524 29.6196 27.8766 29.87 28.4386 29.9284C29.0007 29.9868 29.5657 29.8496 30.0372 29.5401C30.5087 29.2307 30.8574 28.7683 31.0238 28.2318C31.1903 27.6953 31.1641 27.1181 30.9497 26.5987C30.7353 26.0793 30.3461 25.6499 29.8485 25.3839C29.3508 25.1179 28.7757 25.0318 28.2212 25.1402C27.6668 25.2486 27.1674 25.5449 26.8084 25.9785C26.4494 26.412 26.253 26.9559 26.2528 27.5172M7.43108e-07 22.5C0.000161728 23.0364 0.17932 23.5576 0.509442 23.9821C0.839565 24.4066 1.30203 24.7104 1.82446 24.8459V30.1923C1.46188 30.2874 1.12623 30.4642 0.843588 30.709C0.560943 30.9538 0.33891 31.26 0.194736 31.6039C0.0505625 31.9477 -0.0118715 32.32 0.0122839 32.6917C0.0364392 33.0635 0.146534 33.4247 0.334016 33.7473C0.521498 34.0699 0.781321 34.3452 1.0933 34.5519C1.40528 34.7586 1.76103 34.891 2.1329 34.939C2.50477 34.9869 2.88276 34.949 3.23751 34.8283C3.59225 34.7076 3.91421 34.5072 4.17836 34.2428L8.83855 36.916C8.68049 37.4847 8.73648 38.0911 8.99605 38.6217C9.25561 39.1523 9.70095 39.5707 10.2487 39.7986C10.7964 40.0266 11.409 40.0484 11.9718 39.8599C12.5345 39.6715 13.0089 39.2858 13.306 38.775C13.6031 38.2642 13.7026 37.6634 13.5859 37.0849C13.4692 36.5065 13.1442 35.9902 12.6719 35.6326C12.1996 35.275 11.6123 35.1007 11.0199 35.1423C10.4275 35.1838 9.8707 35.4385 9.45369 35.8585L4.7935 33.1815C4.85188 32.972 4.88135 32.7556 4.88111 32.5383C4.88095 32.0019 4.70179 31.4806 4.37167 31.0562C4.04154 30.6317 3.57908 30.3279 3.05664 30.1923V24.8459C3.49937 24.7333 3.90139 24.4995 4.21697 24.1711C4.53255 23.8428 4.74902 23.433 4.84175 22.9885C4.93447 22.5439 4.89974 22.0824 4.7415 21.6565C4.58325 21.2306 4.30785 20.8574 3.94662 20.5793C3.5854 20.3012 3.15285 20.1294 2.69819 20.0834C2.24352 20.0375 1.78501 20.1192 1.37479 20.3193C0.964581 20.5194 0.619146 20.8299 0.377786 21.2154C0.136427 21.6009 0.0088337 22.046 0.00952299 22.5M35.0133 22.5C35.013 23.0362 35.1918 23.5574 35.5216 23.9819C35.8514 24.4064 36.3136 24.7103 36.8359 24.8459V30.1923C36.5232 30.2735 36.2299 30.4156 35.973 30.6103C35.7161 30.805 35.5007 31.0485 35.3392 31.3266C35.1778 31.6047 35.0736 31.9118 35.0327 32.2303C34.9918 32.5487 35.015 32.872 35.1009 33.1815L30.4407 35.8547C30.0243 35.4356 29.4683 35.1816 28.8769 35.1402C28.2855 35.0989 27.6993 35.2731 27.2278 35.6301C26.7564 35.9872 26.4321 36.5027 26.3156 37.0802C26.1992 37.6576 26.2986 38.2575 26.5952 38.7674C26.8918 39.2773 27.3653 39.6624 27.927 39.8505C28.4888 40.0387 29.1004 40.017 29.6472 39.7896C30.1941 39.5622 30.6388 39.1446 30.898 38.6149C31.1573 38.0853 31.2134 37.48 31.0559 36.9123L35.7065 34.2428C35.9703 34.5084 36.2922 34.7099 36.6471 34.8316C37.0021 34.9533 37.3805 34.992 37.753 34.9446C38.1255 34.8972 38.4819 34.7651 38.7946 34.5584C39.1072 34.3518 39.3676 34.0763 39.5555 33.7533C39.7434 33.4303 39.8536 33.0686 39.8778 32.6963C39.9019 32.324 39.8391 31.9513 39.6944 31.607C39.5498 31.2628 39.327 30.9564 39.0436 30.7117C38.7602 30.4669 38.4237 30.2905 38.0604 30.1961V24.8459C38.5032 24.7333 38.9052 24.4995 39.2208 24.1711C39.5363 23.8428 39.7528 23.433 39.8455 22.9885C39.9383 22.5439 39.9035 22.0824 39.7453 21.6565C39.587 21.2306 39.3116 20.8574 38.9504 20.5793C38.5892 20.3012 38.1566 20.1294 37.702 20.0834C37.2473 20.0375 36.7888 20.1192 36.3786 20.3193C35.9684 20.5194 35.6229 20.8299 35.3816 21.2154C35.1402 21.6009 35.0126 22.046 35.0133 22.5ZM26.2528 17.4809C26.2526 17.6982 26.2821 17.9146 26.3405 18.1241L21.6803 20.7973C21.4533 20.5685 21.1827 20.3867 20.8844 20.2627C20.5861 20.1386 20.2659 20.0747 19.9425 20.0747C19.619 20.0747 19.2988 20.1386 19.0005 20.2627C18.7022 20.3867 18.4316 20.5685 18.2046 20.7973L13.5445 18.1241C13.6413 17.7897 13.6645 17.4385 13.6125 17.0944C13.5605 16.7503 13.4345 16.4213 13.2431 16.1299C13.0517 15.8385 12.7994 15.5914 12.5033 15.4055C12.2072 15.2196 11.8743 15.0992 11.5271 15.0526C11.18 15.0059 10.8269 15.034 10.4917 15.135C10.1565 15.2361 9.84711 15.4076 9.58461 15.638C9.32211 15.8684 9.11264 16.1522 8.97043 16.4702C8.82822 16.7882 8.75661 17.1329 8.76047 17.4809C8.75992 17.9621 8.90359 18.4325 9.17317 18.8323C9.44275 19.2321 9.82604 19.5432 10.2742 19.7258C10.7224 19.9084 11.2151 19.9544 11.6896 19.8578C12.1642 19.7612 12.5991 19.5265 12.9388 19.1836L17.599 21.8549C17.5055 22.1886 17.485 22.5385 17.5389 22.8808C17.5929 23.2231 17.72 23.5499 17.9118 23.8393C18.1036 24.1287 18.3556 24.3739 18.6508 24.5584C18.946 24.7429 19.2776 24.8625 19.6233 24.909C19.9689 24.9555 20.3205 24.9279 20.6545 24.8281C20.9885 24.7282 21.2971 24.5585 21.5595 24.3302C21.8219 24.102 22.032 23.8205 22.1757 23.5048C22.3194 23.1891 22.3933 22.8465 22.3925 22.5C22.3928 22.2826 22.3633 22.0662 22.3049 21.8568L26.9651 19.1836C27.3619 19.5832 27.8861 19.8336 28.4482 19.892C29.0102 19.9504 29.5752 19.8132 30.0467 19.5038C30.5182 19.1943 30.8669 18.7319 31.0334 18.1954C31.1998 17.659 31.1736 17.0817 30.9592 16.5623C30.7448 16.0429 30.3556 15.6136 29.858 15.3476C29.3604 15.0816 28.7852 14.9954 28.2307 15.1038C27.6763 15.2123 27.1769 15.5086 26.8179 15.9421C26.4589 16.3756 26.2626 16.9195 26.2624 17.4809M7.43108e-07 12.4617C-0.000375985 12.9415 0.142495 13.4106 0.410542 13.8097C0.678589 14.2088 1.05977 14.52 1.50586 14.7038C1.95196 14.8877 2.44292 14.936 2.91665 14.8426C3.39038 14.7493 3.8256 14.5184 4.16724 14.1793C4.50888 13.8402 4.7416 13.408 4.83596 12.9375C4.93032 12.467 4.88208 11.9792 4.69734 11.5359C4.51261 11.0926 4.19968 10.7137 3.79813 10.4471C3.39659 10.1806 2.92447 10.0383 2.44151 10.0383C1.79431 10.0383 1.17359 10.2935 0.715774 10.748C0.257958 11.2024 0.000505577 11.8188 7.43108e-07 12.4617ZM35.0038 12.4617C35.0034 12.9416 35.1463 13.4108 35.4145 13.8099C35.6826 14.2091 36.0639 14.5202 36.5101 14.704C36.9563 14.8878 37.4474 14.936 37.9212 14.8425C38.3949 14.749 38.8301 14.5179 39.1717 14.1786C39.5133 13.8393 39.7458 13.407 39.84 12.9363C39.9341 12.4657 39.8856 11.9779 39.7006 11.5346C39.5156 11.0914 39.2023 10.7126 38.8005 10.4462C38.3987 10.1799 37.9264 10.0379 37.4434 10.0383C36.7965 10.0388 36.1763 10.2943 35.7189 10.7486C35.2615 11.203 35.0043 11.8191 35.0038 12.4617ZM26.2433 7.44261C26.2432 7.66059 26.2727 7.87759 26.3309 8.08774L21.6803 10.761C21.4533 10.5321 21.1827 10.3504 20.8844 10.2263C20.5861 10.1023 20.2659 10.0384 19.9425 10.0384C19.619 10.0384 19.2988 10.1023 19.0005 10.2263C18.7022 10.3504 18.4316 10.5321 18.2046 10.761L13.5445 8.08774C13.7025 7.51909 13.6465 6.9127 13.387 6.3821C13.1274 5.8515 12.6821 5.43307 12.1343 5.20515C11.5866 4.97722 10.974 4.95543 10.4112 5.14385C9.84848 5.33226 9.37415 5.71797 9.07704 6.22877C8.77993 6.73956 8.68042 7.34042 8.79712 7.91884C8.91383 8.49727 9.23876 9.01361 9.71109 9.37121C10.1834 9.7288 10.7707 9.90312 11.3631 9.86154C11.9555 9.81995 12.5123 9.56532 12.9293 9.1453L17.5895 11.8185C17.5311 12.028 17.5017 12.2444 17.5019 12.4617C17.4928 12.7858 17.5492 13.1084 17.6677 13.4105C17.7863 13.7125 17.9646 13.9879 18.1921 14.2204C18.4196 14.4528 18.6918 14.6375 18.9924 14.7637C19.293 14.8899 19.6161 14.9549 19.9425 14.9549C20.2688 14.9549 20.5919 14.8899 20.8925 14.7637C21.1931 14.6375 21.4653 14.4528 21.6928 14.2204C21.9203 13.9879 22.0986 13.7125 22.2172 13.4105C22.3357 13.1084 22.3921 12.7858 22.383 12.4617C22.3833 12.2444 22.3538 12.028 22.2954 11.8185L26.9556 9.1453C27.3524 9.54496 27.8766 9.79537 28.4386 9.85377C29.0007 9.91217 29.5657 9.77494 30.0372 9.46551C30.5087 9.15608 30.8574 8.69364 31.0238 8.15718C31.1903 7.62071 31.1641 7.04348 30.9497 6.52408C30.7353 6.00468 30.3461 5.57531 29.8485 5.30931C29.3508 5.0433 28.7757 4.95716 28.2212 5.06559C27.6668 5.17402 27.1674 5.4703 26.8084 5.90383C26.4494 6.33736 26.253 6.88125 26.2528 7.44261M17.5019 2.42538C17.5019 2.90515 17.6451 3.37415 17.9135 3.77304C18.1819 4.17193 18.5633 4.4828 19.0095 4.66631C19.4558 4.84983 19.9468 4.89775 20.4204 4.80401C20.8941 4.71027 21.3291 4.47909 21.6705 4.13971C22.0119 3.80032 22.2442 3.36799 22.3382 2.89738C22.4322 2.42678 22.3836 1.93906 22.1985 1.49591C22.0134 1.05277 21.7002 0.674106 21.2984 0.40783C20.8967 0.141554 20.4245 -0.000373501 19.9415 7.38198e-07C19.2943 0.000502238 18.6738 0.256254 18.2163 0.711046C17.7589 1.16584 17.5019 1.78245 17.5019 2.42538Z" fill="white"/>
</g>
</mask>
<g mask="url(#mask0_83_248)">
<g id="Group">
<path id="Vector_16" d="M39.8849 0H0V45H39.8849V0Z" fill="url(#paint0_linear_83_248)"/>
</g>
</g>
</g>
</g>
</g>
</g>
<defs>
<linearGradient id="paint0_linear_83_248" x1="-0.0904804" y1="21.9331" x2="39.7944" y2="21.9331" gradientUnits="userSpaceOnUse">
<stop stop-color="#559999"/>
<stop offset="1" stop-color="#FF2255"/>
</linearGradient>
<clipPath id="clip0_83_248">
<rect width="163" height="45" fill="white"/>
</clipPath>
</defs>
</svg>
