<svg width="1281" height="572" viewBox="0 0 1281 572" fill="none" xmlns="http://www.w3.org/2000/svg">
<g opacity="0.3" clip-path="url(#clip0_165_4546)">
<path d="M1408 0H-155V628H1408V0Z" fill="#444444"/>
<path d="M922.005 576.818C924.447 575.876 946.231 570.067 947.013 570.931C947.501 571.48 943.203 589.614 942.519 590.163C942.324 590.398 926.889 580.508 922.005 576.818ZM1042.94 179.843C1042.94 179.765 1038.16 172.464 1036.1 168.696C1036.01 168.461 1035.81 167.833 1035.71 167.44C1035.62 167.126 1035.42 166.891 1035.13 166.734C1034.83 166.577 1034.54 166.655 1034.35 166.812L1021.55 176.468C1021.35 176.625 1021.26 176.86 1021.16 177.096C1021.16 177.331 1021.16 177.645 1021.35 177.881C1021.45 177.959 1022.72 179.843 1023.4 180.707C1025.75 183.611 1029.75 190.205 1029.75 190.284C1029.95 190.519 1030.14 190.676 1030.44 190.755C1030.73 190.755 1030.93 190.676 1031.12 190.519C1031.12 190.519 1032.88 188.557 1033.76 187.693C1035.22 186.437 1036.69 185.181 1038.25 184.004C1039.43 183.062 1039.82 182.905 1040.3 182.748C1040.79 182.512 1041.38 182.355 1042.75 181.256C1043.14 180.864 1043.24 180.236 1042.94 179.843ZM-122.763 604.686C-122.763 604.136 -123.252 603.743 -123.935 603.743C-124.033 603.743 -124.228 603.744 -124.326 603.822C-125.889 603.979 -138.295 603.901 -146.013 603.822C-146.306 603.822 -146.599 603.901 -146.892 604.136C-147.087 604.293 -147.283 604.529 -147.283 604.843C-147.283 605 -147.283 608.689 -147.185 609.474L-146.794 620.15C-146.794 620.386 -146.599 620.621 -146.404 620.857C-146.208 621.014 -145.915 621.092 -145.622 621.092H-145.524C-138.393 620.543 -131.164 620.385 -124.033 620.621C-123.74 620.621 -123.349 620.543 -123.154 620.385C-122.959 620.229 -122.763 619.915 -122.763 619.679C-122.861 614.891 -122.861 609.317 -122.763 604.686Z" fill="#FFFF77"/>
<path d="M12.1433 300.969C13.4132 299.006 26.1126 283.699 27.3826 284.013C28.1641 284.248 38.6166 300.655 38.6166 301.361C38.5189 301.597 18.7861 301.44 12.1433 300.969ZM427.608 558.763C427.511 558.684 421.063 552.326 418.133 548.95C417.937 548.715 417.644 548.165 417.449 547.773C417.253 547.459 417.058 547.223 416.765 547.145C416.472 547.066 416.179 547.145 415.983 547.38L405.726 558.92C405.531 559.077 405.531 559.312 405.531 559.626C405.531 559.862 405.726 560.176 405.922 560.333C406.019 560.411 407.68 562.06 408.657 562.766C411.685 565.2 417.253 571.009 417.351 571.087C417.547 571.323 417.84 571.401 418.133 571.401C418.426 571.401 418.621 571.244 418.719 571.009C418.719 571.009 419.891 568.811 420.672 567.79C421.747 566.299 422.919 564.886 424.092 563.473C424.971 562.374 425.361 562.138 425.752 561.903C426.241 561.589 426.729 561.353 427.804 560.019C428.097 559.783 427.999 559.155 427.608 558.763ZM555.677 141.221C556.263 141.378 556.947 141.065 557.044 140.594C557.044 140.515 557.044 140.436 557.044 140.279C557.24 139.18 559.78 130.388 561.44 124.972C561.538 124.736 561.44 124.501 561.245 124.344C561.049 124.108 560.756 124.03 560.463 123.951C560.268 123.951 555.872 123.088 554.895 122.931L541.805 120.811C541.512 120.733 541.121 120.812 540.926 120.969C540.73 121.126 540.535 121.282 540.437 121.439V121.518C539.656 126.621 538.288 131.801 536.628 136.747C536.53 136.982 536.628 137.218 536.823 137.454C537.018 137.689 537.311 137.768 537.604 137.846C543.27 138.867 550.011 140.122 555.677 141.221Z" fill="#55FFFF"/>
<path d="M528.422 371.069C526.956 371.069 525.686 370.441 525.003 369.264C524.221 367.772 525.003 365.967 526.859 365.339C530.473 364.083 533.501 361.649 535.064 358.666C536.627 355.683 536.725 352.308 535.26 349.325C534.967 348.618 534.478 347.912 534.088 347.127C533.306 345.792 532.329 344.222 531.841 342.495C530.961 339.277 531.645 335.744 533.794 332.447C535.455 330.014 537.8 327.659 541.219 325.304C542.782 324.205 545.126 324.362 546.396 325.618C547.764 326.874 547.568 328.758 546.005 329.778C543.27 331.741 541.414 333.468 540.242 335.273C538.874 337.314 538.386 339.434 538.972 341.239C539.265 342.338 539.949 343.437 540.633 344.615C541.121 345.478 541.609 346.342 542.098 347.205C544.149 351.601 544.052 356.625 541.805 361.021C539.558 365.339 535.162 368.95 529.789 370.834C529.399 370.991 528.91 371.069 528.422 371.069ZM568.278 330.799C569.744 330.642 571.209 331.191 571.99 332.29C573.065 333.703 572.381 335.587 570.623 336.451C567.008 338.099 564.371 340.847 563.198 343.908C562.026 347.048 562.417 350.502 564.273 353.407C564.664 354.113 565.25 354.741 565.836 355.526C566.813 356.861 567.985 358.274 568.767 360.001C570.134 363.141 569.939 366.83 568.18 370.363C566.813 373.032 564.761 375.544 561.538 378.291C560.072 379.547 557.728 379.626 556.165 378.448C554.602 377.349 554.504 375.387 555.97 374.209C558.509 372.011 560.17 370.049 561.147 368.165C562.222 365.967 562.417 363.769 561.635 361.963C561.147 360.943 560.366 359.844 559.486 358.745C558.9 357.96 558.216 357.096 557.63 356.233C554.895 351.994 554.309 346.891 555.97 342.26C557.728 337.628 561.635 333.625 566.911 331.27C567.301 330.956 567.79 330.799 568.278 330.799ZM100.257 463.857C105.826 469.195 109.049 476.181 109.44 481.44C109.928 487.171 107.095 494.315 99.4758 497.455C96.5452 498.632 92.9308 499.182 88.5348 499.182C80.8175 499.103 75.9331 496.905 73.4909 492.587C71.4395 488.898 71.2441 483.638 75.2493 480.106C78.3753 477.358 82.8689 476.887 86.1903 478.85C87.3626 479.557 87.6556 480.97 86.7764 481.912C85.8973 482.854 84.1389 483.089 82.9666 482.382C81.2083 481.362 79.4499 482.853 79.2545 483.01C76.91 485.051 77.2031 488.506 78.473 490.782C79.9383 493.451 83.0643 494.707 88.6325 494.785C92.1493 494.785 94.8845 494.393 97.0336 493.53C101.625 491.646 104.556 486.779 104.067 481.755C103.579 476.024 98.8897 467.467 91.3678 462.993C87.2649 460.559 83.0643 459.775 78.7661 460.56C75.7378 461.109 72.7094 462.443 69.2904 464.484C62.843 468.488 57.8609 473.747 55.4188 479.4C52.7812 485.444 53.3673 491.802 57.2748 498.161C57.9586 499.26 57.3725 500.594 56.0049 501.065C54.6373 501.615 52.9766 501.144 52.3904 500.045C47.8968 492.666 47.1153 484.973 50.2413 477.908C53.0743 471.471 58.6424 465.426 65.969 460.952C69.9742 458.519 73.784 456.949 77.4961 456.242C83.3574 455.143 89.2186 456.242 94.5914 459.382C96.6429 460.717 98.5966 462.208 100.257 463.857Z" fill="white"/>
<path d="M835.258 126.385C839.089 126.385 842.194 123.89 842.194 120.811C842.194 117.733 839.089 115.238 835.258 115.238C831.428 115.238 828.322 117.733 828.322 120.811C828.322 123.89 831.428 126.385 835.258 126.385Z" fill="white"/>
<path d="M845.613 109.272C849.444 109.272 852.549 106.777 852.549 103.699C852.549 100.62 849.444 98.125 845.613 98.125C841.783 98.125 838.677 100.62 838.677 103.699C838.677 106.777 841.783 109.272 845.613 109.272Z" fill="white"/>
<path d="M858.312 122.46C862.143 122.46 865.248 119.965 865.248 116.886C865.248 113.808 862.143 111.313 858.312 111.313C854.482 111.313 851.376 113.808 851.376 116.886C851.376 119.965 854.482 122.46 858.312 122.46Z" fill="white"/>
<path d="M1318.81 233.302C1314.12 229.063 1309.34 224.824 1304.35 220.585C1309.82 216.189 1315.2 211.557 1319.59 206.298C1320.76 204.963 1320.28 203.079 1318.62 202.216C1316.96 201.274 1314.61 201.666 1313.54 203.001C1309.43 207.868 1304.65 212.107 1299.37 216.267C1294.68 212.342 1289.9 208.417 1285.01 204.571C1283.55 203.393 1281.2 203.393 1279.83 204.571C1278.37 205.748 1278.37 207.632 1279.83 208.731C1284.62 212.499 1289.31 216.424 1294 220.349C1292.92 221.213 1291.75 222.076 1290.58 222.861C1286.57 225.844 1282.37 228.984 1278.47 232.281C1277.1 233.459 1277.1 235.264 1278.47 236.442C1279.93 237.541 1282.28 237.541 1283.64 236.363C1287.45 233.223 1291.56 230.162 1295.46 227.179C1296.64 226.315 1297.71 225.452 1298.88 224.588C1303.67 228.749 1308.46 232.909 1313.15 237.07C1313.24 237.148 1313.24 237.148 1313.34 237.227C1314.71 238.326 1316.96 238.404 1318.42 237.384C1320.08 236.442 1320.18 234.558 1318.81 233.302ZM165.024 195.151L164.633 193.11C163.168 184.396 162.484 174.898 162.386 164.065C162.386 159.747 162.386 155.037 162.582 149.542C162.582 148.993 162.582 148.365 162.582 147.737C162.582 143.812 162.582 138.945 166.392 137.139C168.541 136.119 171.374 136.354 174.695 137.846C180.263 140.279 187.59 144.675 191.79 149.542C197.163 155.665 198.922 162.809 196.675 169.717C193.549 179.372 182.022 194.052 167.369 194.915L165.024 195.151ZM169.42 140.672C169.225 140.672 169.127 140.672 169.029 140.75C168.932 140.829 168.345 141.143 167.955 142.87C167.662 144.361 167.662 146.167 167.662 147.815C167.662 148.443 167.662 149.15 167.662 149.699C167.466 155.116 167.466 159.747 167.466 164.065C167.564 173.877 168.15 182.512 169.42 190.519C180.166 188.4 189.348 176.311 191.888 168.696C193.744 163.044 192.279 157.078 187.785 151.976C183.975 147.658 177.137 143.655 172.253 141.535C170.885 140.907 169.908 140.672 169.42 140.672ZM349.36 47.728C349.263 47.728 349.165 47.728 348.97 47.6495C346.625 47.1 345.062 46.943 342.425 47.1C341.741 47.1 341.155 46.7075 341.057 46.158C341.057 45.6085 341.545 45.1375 342.229 45.059C345.257 44.902 347.016 45.059 349.653 45.687C350.337 45.844 350.728 46.3935 350.533 46.943C350.337 47.414 349.849 47.728 349.36 47.728ZM339.396 55.3425C338.908 55.3425 338.419 55.107 338.224 54.7145C337.442 53.066 337.052 51.339 336.954 49.5335C336.954 48.984 337.442 48.513 338.126 48.513C338.81 48.513 339.396 48.9055 339.396 49.455C339.494 51.025 339.885 52.5165 340.471 54.008C340.666 54.5575 340.373 55.107 339.689 55.264C339.689 55.3425 339.494 55.3425 339.396 55.3425ZM327.674 50.554C327.283 50.554 326.892 50.397 326.697 50.1615C326.306 49.6905 326.404 49.0625 326.892 48.7485C328.651 47.6495 330.507 46.7075 332.558 45.9225C333.144 45.687 333.926 45.9225 334.219 46.3935C334.512 46.8645 334.219 47.4925 333.633 47.728C331.777 48.4345 330.018 49.298 328.455 50.3185C328.26 50.4755 327.967 50.554 327.674 50.554ZM333.926 43.4105C333.437 43.4105 333.047 43.175 332.753 42.861C332.265 42.076 331.581 41.3695 330.409 40.192C330.116 39.878 329.725 39.4855 329.334 39.093C328.944 38.622 329.041 37.994 329.53 37.68C330.116 37.366 330.897 37.4445 331.288 37.837C331.679 38.2295 332.07 38.622 332.363 38.936C333.633 40.192 334.414 40.977 335 41.9975C335.293 42.4685 335 43.0965 334.414 43.332C334.316 43.4105 334.121 43.4105 333.926 43.4105ZM339.982 43.175C339.689 43.175 339.494 43.0965 339.201 43.018C338.615 42.704 338.517 42.076 338.908 41.605C340.08 40.2705 341.155 38.936 342.131 37.523C342.425 37.052 343.206 36.8165 343.792 37.1305C344.378 37.366 344.671 37.994 344.281 38.465C343.304 39.9565 342.131 41.448 340.862 42.861C340.666 43.018 340.373 43.175 339.982 43.175ZM850.497 300.498C850.4 300.498 850.302 300.498 850.107 300.419C847.762 299.87 846.199 299.713 843.561 299.87C842.878 299.87 842.292 299.477 842.194 298.928C842.194 298.378 842.682 297.907 843.366 297.829C846.394 297.672 848.153 297.829 850.79 298.457C851.474 298.614 851.865 299.163 851.669 299.713C851.474 300.184 850.986 300.498 850.497 300.498ZM840.533 308.112C840.045 308.112 839.556 307.877 839.361 307.484C838.579 305.836 838.189 304.109 838.091 302.303C838.091 301.754 838.579 301.283 839.263 301.283C839.947 301.283 840.533 301.675 840.533 302.225C840.631 303.795 841.022 305.286 841.608 306.778C841.803 307.327 841.51 307.877 840.826 308.034C840.826 308.112 840.631 308.112 840.533 308.112ZM828.811 303.324C828.42 303.324 828.029 303.167 827.834 302.931C827.443 302.46 827.541 301.832 828.029 301.518C829.787 300.419 831.643 299.477 833.695 298.692C834.281 298.457 835.063 298.692 835.356 299.163C835.649 299.634 835.356 300.262 834.77 300.498C832.914 301.204 831.155 302.068 829.592 303.088C829.397 303.245 829.104 303.324 828.811 303.324ZM835.063 296.18C834.574 296.18 834.183 295.945 833.89 295.631C833.402 294.846 832.718 294.139 831.546 292.962C831.253 292.648 830.862 292.255 830.471 291.863C830.081 291.392 830.178 290.764 830.667 290.45C831.253 290.136 832.034 290.214 832.425 290.607C832.816 290.999 833.207 291.392 833.5 291.706C834.77 292.962 835.551 293.747 836.137 294.767C836.43 295.238 836.137 295.866 835.551 296.102C835.453 296.18 835.258 296.18 835.063 296.18ZM841.119 295.945C840.826 295.945 840.631 295.866 840.338 295.788C839.752 295.474 839.654 294.846 840.045 294.375C841.217 293.04 842.292 291.706 843.268 290.293C843.561 289.822 844.343 289.586 844.929 289.9C845.515 290.136 845.808 290.764 845.417 291.235C844.441 292.726 843.268 294.218 841.998 295.631C841.803 295.788 841.51 295.945 841.119 295.945ZM1143.95 450.119C1142.58 450.119 1141.12 449.962 1139.55 449.569C1131.35 447.45 1123.34 439.6 1121.29 433.869C1120.9 432.77 1120.6 431.593 1120.41 430.415C1112.5 433.006 1105.27 438.736 1105.36 446.9C1105.36 448.078 1104.19 449.02 1102.73 449.098C1101.26 449.098 1100.09 448.156 1100.09 446.979C1099.99 441.719 1102.43 436.852 1106.93 432.849C1110.44 429.709 1115.13 427.275 1120.31 425.941C1120.8 420.838 1123.34 415.814 1127.54 412.282C1134.38 406.473 1145.32 405.295 1154.21 404.353L1154.89 404.275C1156.36 404.118 1157.72 404.981 1157.92 406.08C1158.12 407.258 1157.04 408.357 1155.67 408.514L1154.99 408.592C1146.59 409.534 1137.01 410.555 1131.54 415.186C1128.61 417.698 1126.66 421.231 1125.98 424.92C1133.69 424.135 1143.27 425.941 1149.71 429.395C1153.91 431.671 1156.65 435.518 1156.75 439.364C1156.94 442.74 1155.09 445.88 1151.67 448.078C1149.32 449.334 1146.78 450.119 1143.95 450.119ZM1125.68 429.159C1125.78 430.337 1126.07 431.514 1126.46 432.613C1128.13 437.166 1134.96 443.76 1141.22 445.409C1143.95 446.115 1146.2 445.801 1148.25 444.545C1150.89 442.897 1151.37 440.777 1151.28 439.364C1151.18 436.852 1149.32 434.34 1146.59 432.849C1141.02 429.787 1132.23 428.296 1125.68 429.159Z" fill="white"/>
</g>
<defs>
<clipPath id="clip0_165_4546">
<rect width="1563" height="628" fill="white" transform="translate(-155)"/>
</clipPath>
</defs>
</svg>
