<svg width="390" height="342" viewBox="0 0 390 342" fill="none" xmlns="http://www.w3.org/2000/svg">
<path d="M136.353 208.128L133.087 207.59C133.233 205.823 133.177 204.08 132.929 202.386L136.146 201.642C137.152 201.409 137.779 200.405 137.546 199.399C137.313 198.393 136.309 197.766 135.303 197.999L132.082 198.744C131.539 197.047 130.803 195.426 129.894 193.913L132.583 191.985C133.422 191.383 133.615 190.215 133.013 189.375C132.411 188.536 131.243 188.343 130.403 188.945L127.715 190.873C126.594 189.551 125.322 188.354 123.92 187.309L125.67 184.506C126.217 183.63 125.95 182.476 125.074 181.929C124.198 181.382 123.044 181.649 122.497 182.525L120.749 185.325C119.199 184.525 117.537 183.895 115.783 183.459L116.32 180.196C116.488 179.177 115.798 178.215 114.779 178.047C113.76 177.879 112.798 178.569 112.63 179.588L112.093 182.85C110.326 182.703 108.582 182.76 106.888 183.008L106.145 179.796C105.912 178.79 104.908 178.163 103.902 178.396C102.896 178.629 102.269 179.633 102.502 180.639L103.246 183.856C101.549 184.4 99.9281 185.136 98.4141 186.046L96.4871 183.359C95.8851 182.52 94.7171 182.327 93.8771 182.929C93.0381 183.531 92.8451 184.699 93.4471 185.539L95.3751 188.227C94.0531 189.349 92.8571 190.621 91.8131 192.023L89.0091 190.273C88.1331 189.726 86.9791 189.993 86.4321 190.869C85.8851 191.745 86.1521 192.899 87.0281 193.446L89.8311 195.195C89.0321 196.745 88.4031 198.407 87.9671 200.16L84.6991 199.622C83.6801 199.454 82.7181 200.144 82.5501 201.164C82.3821 202.183 83.0721 203.145 84.0911 203.313L87.3591 203.851C87.2131 205.617 87.2691 207.36 87.5171 209.054L84.2991 209.799C83.2931 210.032 82.6661 211.036 82.8991 212.042C83.1321 213.048 84.1361 213.675 85.1421 213.442L88.3641 212.697C88.9071 214.394 89.6421 216.014 90.5521 217.528L87.8631 219.457C87.0241 220.059 86.8311 221.227 87.4331 222.067C88.0351 222.906 89.2031 223.098 90.0421 222.497L92.7301 220.569C93.8511 221.891 95.1231 223.088 96.5251 224.133L94.7751 226.936C94.2281 227.812 94.4951 228.966 95.3711 229.513C96.2471 230.06 97.4011 229.793 97.9481 228.917L99.6961 226.117C101.246 226.917 102.908 227.546 104.662 227.982L104.124 231.247C103.956 232.266 104.646 233.228 105.666 233.396C106.685 233.564 107.647 232.874 107.815 231.854L108.353 228.589C110.12 228.735 111.863 228.678 113.557 228.43L114.301 231.646C114.534 232.652 115.538 233.279 116.544 233.046C117.55 232.813 118.177 231.809 117.944 230.803L117.199 227.582C118.896 227.039 120.516 226.303 122.029 225.393L123.958 228.083C124.56 228.922 125.728 229.115 126.568 228.513C127.407 227.911 127.6 226.743 126.998 225.903L125.069 223.213C126.391 222.092 127.587 220.82 128.632 219.418L131.437 221.169C132.313 221.716 133.467 221.449 134.014 220.573C134.561 219.697 134.294 218.543 133.418 217.996L130.615 216.247C131.415 214.697 132.044 213.035 132.48 211.282L135.747 211.82C136.766 211.988 137.728 211.298 137.896 210.278C138.064 209.258 137.373 208.296 136.353 208.128ZM108.347 217.084C102.077 216.052 97.8271 210.127 98.8601 203.849C99.8941 197.572 105.818 193.322 112.089 194.354C118.366 195.388 122.616 201.312 121.583 207.59C120.55 213.868 114.625 218.117 108.347 217.084Z" stroke="#123E6B" stroke-width="2" stroke-miterlimit="10" stroke-linecap="round"/>
<path d="M115.786 206.636C115.28 209.709 112.379 211.79 109.306 211.284C106.233 210.778 104.152 207.877 104.658 204.804C105.164 201.731 108.065 199.65 111.138 200.156C114.211 200.662 116.292 203.563 115.786 206.636Z" stroke="#123E6B" stroke-width="2" stroke-miterlimit="10" stroke-linecap="round"/>
<path d="M310.408 264.716H309.26C308.924 262.171 307.918 259.843 306.42 257.907L307.245 257.082C307.572 256.754 307.572 256.223 307.245 255.896L305.831 254.482C305.503 254.154 304.972 254.154 304.645 254.482L303.814 255.313C301.877 253.827 299.552 252.83 297.011 252.501V251.32C297.011 250.857 296.636 250.481 296.172 250.481H294.172C293.709 250.481 293.333 250.857 293.333 251.32V252.501C290.792 252.83 288.467 253.827 286.53 255.313L285.699 254.482C285.371 254.154 284.84 254.154 284.513 254.482L283.099 255.896C282.771 256.224 282.771 256.755 283.099 257.082L283.924 257.907C282.427 259.843 281.421 262.171 281.084 264.716H279.936C279.473 264.716 279.097 265.091 279.097 265.555V267.555C279.097 268.018 279.473 268.394 279.936 268.394H281.072C281.395 270.95 282.396 273.289 283.89 275.236L283.098 276.028C282.77 276.356 282.77 276.887 283.098 277.214L284.512 278.628C284.839 278.956 285.371 278.956 285.698 278.628L286.484 277.842C288.43 279.347 290.772 280.356 293.332 280.687V281.79C293.332 282.253 293.708 282.629 294.171 282.629H296.171C296.634 282.629 297.01 282.253 297.01 281.79V280.687C299.57 280.356 301.912 279.347 303.858 277.842L304.644 278.628C304.972 278.956 305.503 278.956 305.83 278.628L307.244 277.214C307.572 276.886 307.572 276.355 307.244 276.028L306.452 275.236C307.946 273.289 308.947 270.95 309.27 268.394H310.406C310.869 268.394 311.245 268.018 311.245 267.555V265.555C311.247 265.091 310.871 264.716 310.408 264.716Z" fill="#123E6B"/>
<path d="M299.147 275.042C303.816 272.854 305.826 267.296 303.638 262.627C301.45 257.959 295.892 255.948 291.224 258.136C286.555 260.324 284.545 265.883 286.733 270.551C288.921 275.219 294.479 277.23 299.147 275.042Z" fill="#FC2A58"/>
<path d="M300.045 266.593C300.045 269.284 297.864 271.465 295.173 271.465C292.482 271.465 290.301 269.284 290.301 266.593C290.301 263.902 292.482 261.721 295.173 261.721C297.864 261.721 300.045 263.903 300.045 266.593Z" fill="#F8F8F8"/>
<path d="M331.583 237.299L330.51 237.707C329.291 235.448 327.524 233.629 325.436 232.352L325.914 231.287C326.104 230.864 325.915 230.368 325.492 230.178L323.668 229.359C323.245 229.169 322.749 229.358 322.559 229.781L322.078 230.853C319.739 230.152 317.211 230.046 314.72 230.642L314.3 229.538C314.135 229.105 313.651 228.887 313.218 229.052L311.349 229.763C310.916 229.928 310.698 230.412 310.863 230.845L311.283 231.949C309.025 233.159 307.206 234.918 305.923 236.995L304.851 236.514C304.428 236.324 303.932 236.513 303.742 236.936L302.923 238.76C302.733 239.183 302.922 239.679 303.345 239.869L304.41 240.347C303.698 242.689 303.586 245.222 304.175 247.72L303.102 248.128C302.669 248.293 302.451 248.777 302.616 249.21L303.327 251.079C303.492 251.512 303.976 251.73 304.409 251.565L305.471 251.161C306.682 253.435 308.448 255.266 310.537 256.555L310.078 257.577C309.888 258 310.077 258.496 310.5 258.686L312.324 259.505C312.747 259.695 313.243 259.506 313.433 259.083L313.888 258.069C316.242 258.784 318.789 258.896 321.3 258.295L321.692 259.326C321.857 259.759 322.341 259.977 322.774 259.812L324.643 259.101C325.076 258.936 325.294 258.452 325.129 258.019L324.737 256.988C327.012 255.769 328.843 253.993 330.127 251.895L331.141 252.351C331.564 252.541 332.06 252.352 332.25 251.929L333.069 250.105C333.259 249.682 333.07 249.186 332.647 248.996L331.625 248.537C332.329 246.186 332.434 243.644 331.828 241.14L332.89 240.736C333.323 240.571 333.541 240.087 333.376 239.654L332.665 237.785C332.501 237.352 332.016 237.135 331.583 237.299Z" fill="#123E6B"/>
<path d="M326.736 241.151C328.568 245.97 326.147 251.362 321.327 253.194C316.508 255.026 311.116 252.605 309.284 247.785C307.452 242.966 309.873 237.574 314.693 235.742C319.512 233.91 324.904 236.332 326.736 241.151Z" fill="#FC2A58"/>
<path d="M322.563 242.737C323.519 245.252 322.256 248.066 319.74 249.022C317.225 249.978 314.411 248.714 313.455 246.199C312.499 243.684 313.763 240.87 316.278 239.914C318.793 238.958 321.607 240.222 322.563 242.737Z" fill="#F8F8F8"/>
<path d="M215.938 289.646H183.938V338.146H215.938V289.646Z" fill="#123E6B"/>
<path d="M291.188 204.979H108.688V317.979H291.188V204.979Z" fill="#123E6B"/>
<path d="M288.771 206.812H111.104V315.479H288.771V206.812Z" fill="#FC2A58"/>
<path d="M261.188 206.812L254.219 315.479L251.604 206.812H261.188Z" fill="#FF4670"/>
<path d="M227.771 337.375H172.104V341.479H227.771V337.375Z" fill="#123E6B"/>
<path d="M254.218 172.646H154.156V315.479H254.218V172.646Z" fill="#F8F8F8"/>
<path d="M164.817 194.604H163.068L168.127 180.827H169.849L174.908 194.604H173.159L169.042 183.006H168.934L164.817 194.604ZM165.463 189.223H172.513V190.703H165.463V189.223ZM179.88 194.847C179.225 194.847 178.631 194.723 178.097 194.477C177.563 194.226 177.14 193.864 176.826 193.394C176.512 192.918 176.355 192.344 176.355 191.671C176.355 191.079 176.471 190.599 176.704 190.232C176.938 189.859 177.249 189.568 177.64 189.357C178.03 189.146 178.46 188.989 178.931 188.886C179.407 188.778 179.884 188.693 180.364 188.63C180.992 188.55 181.501 188.489 181.891 188.449C182.286 188.404 182.573 188.33 182.752 188.227C182.936 188.124 183.028 187.944 183.028 187.689V187.635C183.028 186.971 182.847 186.455 182.483 186.087C182.125 185.72 181.58 185.536 180.849 185.536C180.091 185.536 179.496 185.702 179.066 186.034C178.635 186.366 178.333 186.72 178.158 187.097L176.651 186.558C176.92 185.931 177.279 185.442 177.727 185.092C178.18 184.738 178.673 184.491 179.207 184.352C179.745 184.208 180.275 184.137 180.795 184.137C181.127 184.137 181.508 184.177 181.938 184.258C182.374 184.334 182.793 184.493 183.197 184.735C183.605 184.977 183.943 185.343 184.212 185.832C184.481 186.321 184.616 186.976 184.616 187.796V194.604H183.028V193.205H182.948C182.84 193.429 182.661 193.669 182.409 193.925C182.158 194.181 181.824 194.398 181.407 194.578C180.99 194.757 180.481 194.847 179.88 194.847ZM180.122 193.42C180.75 193.42 181.279 193.297 181.71 193.05C182.145 192.804 182.472 192.485 182.692 192.095C182.916 191.705 183.028 191.295 183.028 190.864V189.411C182.961 189.492 182.813 189.566 182.584 189.633C182.36 189.696 182.1 189.752 181.804 189.801C181.512 189.846 181.228 189.886 180.95 189.922C180.676 189.954 180.454 189.98 180.284 190.003C179.871 190.057 179.485 190.144 179.126 190.265C178.772 190.382 178.485 190.559 178.265 190.797C178.05 191.03 177.942 191.348 177.942 191.752C177.942 192.304 178.146 192.721 178.555 193.003C178.967 193.281 179.49 193.42 180.122 193.42Z" fill="#038982"/>
<path d="M246.521 201.979H162.584V229.979H246.521V201.979Z" fill="#9E044C"/>
<path d="M246.521 300.812H162.584V302.979H246.521V300.812Z" fill="#123E6B"/>
<path d="M246.521 294.229H162.584V296.396H246.521V294.229Z" fill="#123E6B"/>
<path d="M246.521 287.646H162.584V289.813H246.521V287.646Z" fill="#123E6B"/>
<path d="M246.521 281.062H162.584V283.229H246.521V281.062Z" fill="#123E6B"/>
<path d="M246.521 274.479H162.584V276.646H246.521V274.479Z" fill="#123E6B"/>
<path d="M246.521 267.896H162.584V270.063H246.521V267.896Z" fill="#123E6B"/>
<path d="M246.521 261.312H200.813V263.479H246.521V261.312Z" fill="#123E6B"/>
<path d="M246.521 254.729H200.813V256.896H246.521V254.729Z" fill="#123E6B"/>
<path d="M246.521 248.146H200.813V250.313H246.521V248.146Z" fill="#123E6B"/>
<path d="M246.521 241.563H200.813V243.73H246.521V241.563Z" fill="#123E6B"/>
<path d="M246.521 234.979H200.813V237.146H246.521V234.979Z" fill="#123E6B"/>
<path d="M196.688 234.979H162.584V263.646H196.688V234.979Z" fill="#FC2A58"/>
<path d="M254.218 167.479H154.156V172.646H254.218V167.479Z" fill="#FF93AB"/>
<path d="M254.218 167.479H244.25V172.646H254.218V167.479Z" fill="#123E6B"/>
<path d="M246.896 168.387H247.738L251.125 171.634H250.248L246.896 168.387Z" fill="white"/>
<path d="M251.125 168.387H250.283L246.896 171.634H247.773L251.125 168.387Z" fill="white"/>
<path d="M383.604 166.521H337.937C334.715 166.521 332.104 163.909 332.104 160.688V95.521C332.104 92.299 334.716 89.688 337.937 89.688H383.604C386.826 89.688 389.437 92.3 389.437 95.521V160.688C389.437 163.909 386.826 166.521 383.604 166.521Z" fill="#123E6B"/>
<path d="M387.907 95.6401V160.57C387.907 162.96 385.967 164.9 383.577 164.9H337.967C335.577 164.9 333.637 162.96 333.637 160.57V95.6401C333.637 93.2501 335.577 91.3101 337.967 91.3101H383.577C384.527 91.3101 385.397 91.6101 386.097 92.1201C387.197 92.9101 387.907 94.1901 387.907 95.6401Z" fill="#9E044C"/>
<path d="M386.097 92.1201L384.267 159.52L378.577 91.3101H383.577C384.527 91.3101 385.397 91.6101 386.097 92.1201Z" fill="#FF4670"/>
<path d="M384.271 60.271H337.271V159.521H384.271V60.271Z" fill="#F8F8F8"/>
<path d="M341.684 64.3975V63.46H348.229V64.3975H345.485V72.1873H344.428V64.3975H341.684Z" fill="#FF93AB"/>
<path d="M380.77 63.854H350.937V72.187H380.77V63.854Z" fill="#FC2A58"/>
<path d="M380.771 75.688H341.104V76.855H380.771V75.688Z" fill="#123E6B"/>
<path d="M380.771 79.5869H341.104V80.7539H380.771V79.5869Z" fill="#123E6B"/>
<path d="M380.771 83.488H341.104V84.655H380.771V83.488Z" fill="#123E6B"/>
<path d="M380.771 87.387H341.104V88.554H380.771V87.387Z" fill="#123E6B"/>
<path d="M380.771 91.2881H341.104V92.4551H380.771V91.2881Z" fill="#123E6B"/>
<path d="M380.771 95.188H341.104V96.355H380.771V95.188Z" fill="#123E6B"/>
<path d="M380.771 99.0869H341.104V100.254H380.771V99.0869Z" fill="#123E6B"/>
<path d="M380.771 102.988H341.104V104.155H380.771V102.988Z" fill="#123E6B"/>
<path d="M380.771 106.887H341.104V108.054H380.771V106.887Z" fill="#123E6B"/>
<path d="M380.771 110.788H341.104V111.955H380.771V110.788Z" fill="#123E6B"/>
<path d="M380.771 114.688H341.104V115.855H380.771V114.688Z" fill="#123E6B"/>
<path d="M380.771 118.587H341.104V119.754H380.771V118.587Z" fill="#123E6B"/>
<path d="M380.771 122.488H341.104V123.655H380.771V122.488Z" fill="#123E6B"/>
<path d="M380.771 126.387H341.104V127.554H380.771V126.387Z" fill="#123E6B"/>
<path d="M380.771 130.288H341.104V131.455H380.771V130.288Z" fill="#123E6B"/>
<path d="M380.771 134.188H341.104V135.355H380.771V134.188Z" fill="#123E6B"/>
<path d="M380.771 138.087H341.104V139.254H380.771V138.087Z" fill="#123E6B"/>
<path d="M380.771 141.988H341.104V143.155H380.771V141.988Z" fill="#123E6B"/>
<path d="M380.771 145.887H341.104V147.054H380.771V145.887Z" fill="#123E6B"/>
<path d="M380.771 149.788H341.104V150.955H380.771V149.788Z" fill="#123E6B"/>
<path d="M380.771 153.688H341.104V154.855H380.771V153.688Z" fill="#123E6B"/>
<path d="M45.477 231.863H40.136C37.217 231.863 34.843 229.488 34.843 226.57C34.843 223.652 37.218 221.277 40.136 221.277H45.477C48.396 221.277 50.77 223.652 50.77 226.57C50.77 229.488 48.396 231.863 45.477 231.863ZM40.136 224.137C38.795 224.137 37.704 225.228 37.704 226.569C37.704 227.91 38.795 229.001 40.136 229.001H45.477C46.818 229.001 47.909 227.91 47.909 226.569C47.909 225.228 46.818 224.137 45.477 224.137H40.136Z" fill="#123E6B"/>
<path d="M61.989 231.863H56.648C53.729 231.863 51.355 229.488 51.355 226.57C51.355 223.652 53.729 221.277 56.648 221.277H61.989C64.908 221.277 67.282 223.652 67.282 226.57C67.282 229.488 64.908 231.863 61.989 231.863ZM56.648 224.137C55.307 224.137 54.216 225.228 54.216 226.569C54.216 227.91 55.307 229.001 56.648 229.001H61.989C63.33 229.001 64.421 227.91 64.421 226.569C64.421 225.228 63.33 224.137 61.989 224.137H56.648Z" fill="#123E6B"/>
<path d="M59.319 228H42.807C42.017 228 41.376 227.36 41.376 226.569C41.376 225.778 42.017 225.138 42.807 225.138H59.319C60.109 225.138 60.75 225.779 60.75 226.569C60.75 227.359 60.109 228 59.319 228Z" fill="#123E6B"/>
<path d="M95.688 109.438H6.43799V162.209H95.688V109.438Z" fill="#123E6B"/>
<path d="M97.063 166.708H5.06299C2.57799 166.708 0.562988 164.693 0.562988 162.208H101.563C101.563 164.694 99.548 166.708 97.063 166.708Z" fill="#E2E2E2"/>
<path d="M65.813 163.917H36.313V165H65.813V163.917Z" fill="#123E6B"/>
<path d="M93.313 111.625H8.81299V156.875H93.313V111.625Z" fill="#9E044C"/>
<path d="M76.396 156.875L83.438 111.625H74.063L76.396 156.875Z" fill="#038982"/>
<path d="M76.396 78.875H25.729V156.875H76.396V78.875Z" fill="#F8F8F8"/>
<path d="M76.396 73.792H25.729V78.875H76.396V73.792Z" fill="#038982"/>
<path d="M29.563 76.333C29.563 76.862 29.134 77.291 28.605 77.291C28.076 77.291 27.647 76.862 27.647 76.333C27.647 75.804 28.076 75.375 28.605 75.375C29.133 75.375 29.563 75.804 29.563 76.333Z" fill="#FF93AB"/>
<path d="M33.146 76.333C33.146 76.862 32.717 77.291 32.188 77.291C31.659 77.291 31.23 76.862 31.23 76.333C31.23 75.804 31.659 75.375 32.188 75.375C32.717 75.375 33.146 75.804 33.146 76.333Z" fill="#9E044C"/>
<path d="M36.729 76.333C36.729 76.862 36.3 77.291 35.771 77.291C35.242 77.291 34.813 76.862 34.813 76.333C34.813 75.804 35.242 75.375 35.771 75.375C36.3 75.375 36.729 75.804 36.729 76.333Z" fill="#FC2A58"/>
<path d="M72.896 82.292H28.604V99.125H72.896V82.292Z" fill="#FF4670"/>
<path d="M56.73 102.625H29.563V104.125H56.73V102.625Z" fill="#123E6B"/>
<path d="M56.73 107.004H29.563V108.504H56.73V107.004Z" fill="#123E6B"/>
<path d="M56.73 111.383H29.563V112.883H56.73V111.383Z" fill="#123E6B"/>
<path d="M56.73 115.761H29.563V117.261H56.73V115.761Z" fill="#123E6B"/>
<path d="M56.73 120.14H29.563V121.64H56.73V120.14Z" fill="#123E6B"/>
<path d="M56.73 124.519H29.563V126.019H56.73V124.519Z" fill="#123E6B"/>
<path d="M56.73 128.898H29.563V130.398H56.73V128.898Z" fill="#123E6B"/>
<path d="M56.73 133.277H29.563V134.777H56.73V133.277Z" fill="#123E6B"/>
<path d="M56.73 137.655H29.563V139.155H56.73V137.655Z" fill="#123E6B"/>
<path d="M56.73 142.034H29.563V143.534H56.73V142.034Z" fill="#123E6B"/>
<path d="M56.73 146.413H29.563V147.913H56.73V146.413Z" fill="#123E6B"/>
<path d="M56.73 150.792H29.563V152.292H56.73V150.792Z" fill="#123E6B"/>
<path d="M72.896 102.625H59.313V119.417H72.896V102.625Z" fill="#FC2A58"/>
<path d="M173.354 134.479H142.521C140.174 134.479 138.271 132.576 138.271 130.229V69.8957C138.271 67.5487 140.174 65.6458 142.521 65.6458H173.354C175.701 65.6458 177.604 67.5487 177.604 69.8957V130.229C177.604 132.576 175.701 134.479 173.354 134.479Z" fill="#123E6B"/>
<path d="M173.625 132.104H142.25C141.272 132.104 140.479 131.311 140.479 130.333V69.7908C140.479 68.8128 141.272 68.0198 142.25 68.0198H173.625C174.603 68.0198 175.396 68.8128 175.396 69.7908V130.333C175.396 131.311 174.603 132.104 173.625 132.104Z" fill="#FC2A58"/>
<path d="M172.104 127.187L173.627 68.0198H171.313L172.104 127.187Z" fill="#FF4670"/>
<path d="M172.104 45.3079H143.604V127.187H172.104V45.3079Z" fill="#F8F8F8"/>
<path d="M170.268 53.0278H145.475V70.3388H170.268V53.0278Z" fill="#9E044C"/>
<path d="M150.985 46.9749H145.305V47.5869H150.985V46.9749Z" fill="#FF4670"/>
<path d="M150.985 48.3689H145.305V48.9809H150.985V48.3689Z" fill="#FF4670"/>
<path d="M150.985 49.7629H145.305V50.3749H150.985V49.7629Z" fill="#FF4670"/>
<path d="M157.375 71.8118H145.475V98.9068H157.375V71.8118Z" fill="#FF93AB"/>
<path d="M170.267 71.8118H158.367V98.9068H170.267V71.8118Z" fill="#FF93AB"/>
<path d="M170.268 100.812H145.475V102.785H170.268V100.812Z" fill="#FF4670"/>
<path d="M170.268 105.097H145.475V107.07H170.268V105.097Z" fill="#FF4670"/>
<path d="M170.268 109.382H145.475V111.355H170.268V109.382Z" fill="#FF4670"/>
<path d="M170.268 113.667H145.475V115.639H170.268V113.667Z" fill="#FF4670"/>
<path d="M170.268 117.952H145.475V119.925H170.268V117.952Z" fill="#FF4670"/>
<path d="M170.268 122.238H145.475V124.211H170.268V122.238Z" fill="#FF4670"/>
<path d="M173.357 65.6499H142.517C140.177 65.6499 138.267 67.5499 138.267 69.8999V130.23C138.267 132.58 140.177 134.48 142.517 134.48H173.357C175.697 134.48 177.607 132.58 177.607 130.23V69.8999C177.607 67.5499 175.697 65.6499 173.357 65.6499ZM175.397 130.33C175.397 131.31 174.607 132.1 173.627 132.1H142.247C141.267 132.1 140.477 131.31 140.477 130.33V69.7899C140.477 68.8099 141.267 68.0199 142.247 68.0199H173.627C174.607 68.0199 175.397 68.8099 175.397 69.7899V130.33Z" fill="#123E6B"/>
<path d="M164.646 71.8118H151.229C150.055 71.8118 149.104 70.8608 149.104 69.6868V67.3118H166.771V69.6868C166.771 70.8608 165.819 71.8118 164.646 71.8118Z" fill="#123E6B"/>
<path d="M249.938 125.333V145.833H265.938V125.333H249.938ZM259.527 140.833C259.527 141.703 258.817 142.413 257.937 142.413C257.067 142.413 256.357 141.703 256.357 140.833V130.333C256.357 129.463 257.067 128.753 257.937 128.753C258.817 128.753 259.527 129.463 259.527 130.333V140.833Z" fill="#FF93AB"/>
<path d="M297.031 134.791H218.843C217.33 134.791 216.103 133.564 216.103 132.051V76.2798C216.103 74.7668 217.33 73.5398 218.843 73.5398H297.031C298.544 73.5398 299.771 74.7668 299.771 76.2798V132.051C299.771 133.565 298.544 134.791 297.031 134.791Z" fill="#123E6B"/>
<path d="M297.854 75.3328H218.021V127.187H297.854V75.3328Z" fill="#FF93AB"/>
<path d="M289.938 127.187L293.438 75.3328H288.438L289.938 127.187Z" fill="#FF4670"/>
<path d="M289.938 37.1868H226.938V127.187H289.938V37.1868Z" fill="#F8F8F8"/>
<path d="M286.771 40.6868H230.104V62.8538H286.771V40.6868Z" fill="#FC2A58"/>
<path d="M264.604 65.8538H230.104V67.1868H264.604V65.8538Z" fill="#123E6B"/>
<path d="M264.604 70.5679H230.104V71.9009H264.604V70.5679Z" fill="#123E6B"/>
<path d="M264.604 75.2808H230.104V76.6138H264.604V75.2808Z" fill="#123E6B"/>
<path d="M264.604 79.9949H230.104V81.3279H264.604V79.9949Z" fill="#123E6B"/>
<path d="M264.604 84.7078H230.104V86.0408H264.604V84.7078Z" fill="#123E6B"/>
<path d="M264.604 89.4219H230.104V90.7549H264.604V89.4219Z" fill="#123E6B"/>
<path d="M264.604 94.1348H230.104V95.4678H264.604V94.1348Z" fill="#123E6B"/>
<path d="M264.604 98.8489H230.104V100.182H264.604V98.8489Z" fill="#123E6B"/>
<path d="M264.604 103.562H230.104V104.895H264.604V103.562Z" fill="#123E6B"/>
<path d="M264.604 108.276H230.104V109.609H264.604V108.276Z" fill="#123E6B"/>
<path d="M264.604 112.99H230.104V114.323H264.604V112.99Z" fill="#123E6B"/>
<path d="M264.604 117.703H230.104V119.036H264.604V117.703Z" fill="#123E6B"/>
<path d="M264.604 122.417H230.104V123.75H264.604V122.417Z" fill="#123E6B"/>
<path d="M286.771 65.8538H267.271V91.6868H286.771V65.8538Z" fill="#9E044C"/>
<path d="M289.938 31.6868H226.938V37.1868H289.938V31.6868Z" fill="#FF4670"/>
<path d="M270.563 35.2808H246.313C245.847 35.2808 245.469 34.9028 245.469 34.4368C245.469 33.9708 245.847 33.5928 246.313 33.5928H270.563C271.029 33.5928 271.407 33.9708 271.407 34.4368C271.406 34.9028 271.029 35.2808 270.563 35.2808Z" fill="#FF93AB"/>
<path d="M278.188 145.833H237.688V147.333H278.188V145.833Z" fill="#123E6B"/>
<path d="M51.063 173.51V175.51" stroke="#FC2A58" stroke-miterlimit="10" stroke-linecap="round"/>
<path d="M51.063 179.785V211.842" stroke="#FC2A58" stroke-miterlimit="10" stroke-linecap="round" stroke-dasharray="4.27 4.27"/>
<path d="M51.063 213.979V215.979" stroke="#FC2A58" stroke-miterlimit="10" stroke-linecap="round"/>
<path d="M50.387 236.063V243.892C50.387 252.42 57.301 259.334 65.829 259.334H103.938" stroke="#FC2A58" stroke-miterlimit="10" stroke-linecap="round" stroke-dasharray="4 4"/>
<path d="M47.9089 69.562V40.687C47.9089 31.471 55.3799 24 64.5959 24H141.68C150.896 24 158.367 31.471 158.367 40.687" stroke="#FC2A58" stroke-miterlimit="10" stroke-linecap="round" stroke-dasharray="4 4"/>
<path d="M180.438 101.26H214.438" stroke="#FC2A58" stroke-miterlimit="10" stroke-linecap="round" stroke-dasharray="4 4"/>
<path d="M301.438 101.26H306.818C311.717 101.26 315.688 105.231 315.688 110.13V174.75C315.688 180.687 320.501 185.5 326.438 185.5H352.438C357.132 185.5 360.938 181.694 360.938 177V170.062" stroke="#FC2A58" stroke-miterlimit="10" stroke-linecap="round" stroke-dasharray="4 4"/>
<path d="M330.083 33.584C335.986 33.584 340.771 28.7988 340.771 22.896C340.771 16.9932 335.986 12.208 330.083 12.208C324.18 12.208 319.395 16.9932 319.395 22.896C319.395 28.7988 324.18 33.584 330.083 33.584Z" fill="#9E044C"/>
<path d="M364.271 33.583C369.863 33.583 374.396 29.0499 374.396 23.458C374.396 17.8661 369.863 13.333 364.271 13.333C358.679 13.333 354.146 17.8661 354.146 23.458C354.146 29.0499 358.679 33.583 364.271 33.583Z" fill="#9E044C"/>
<path d="M348.354 33.584C356.592 33.584 363.271 26.9054 363.271 18.667C363.271 10.4286 356.592 3.75 348.354 3.75C340.116 3.75 333.437 10.4286 333.437 18.667C333.437 26.9054 340.116 33.584 348.354 33.584Z" fill="#9E044C"/>
<path d="M364.271 19.458H328.771V33.583H364.271V19.458Z" fill="#9E044C"/>
<path d="M329.708 317.896C335.611 317.896 340.396 313.111 340.396 307.208C340.396 301.305 335.611 296.52 329.708 296.52C323.805 296.52 319.02 301.305 319.02 307.208C319.02 313.111 323.805 317.896 329.708 317.896Z" fill="#9E044C"/>
<path d="M363.896 317.896C369.488 317.896 374.021 313.363 374.021 307.771C374.021 302.179 369.488 297.646 363.896 297.646C358.304 297.646 353.771 302.179 353.771 307.771C353.771 313.363 358.304 317.896 363.896 317.896Z" fill="#9E044C"/>
<path d="M347.979 317.896C356.217 317.896 362.896 311.217 362.896 302.979C362.896 294.741 356.217 288.062 347.979 288.062C339.741 288.062 333.062 294.741 333.062 302.979C333.062 311.217 339.741 317.896 347.979 317.896Z" fill="#9E044C"/>
<path d="M363.896 303.771H328.396V317.896H363.896V303.771Z" fill="#9E044C"/>
<path d="M95.1489 4.41089C95.1489 6.26389 93.6469 7.76488 91.7949 7.76488C89.9429 7.76488 88.4409 6.26289 88.4409 4.41089C88.4409 2.55889 89.9429 1.05688 91.7949 1.05688C93.6469 1.05688 95.1489 2.55889 95.1489 4.41089Z" stroke="#123E6B" stroke-width="2" stroke-miterlimit="10"/>
<path d="M103.069 12.3318C103.069 14.1838 101.567 15.6858 99.7148 15.6858C97.8618 15.6858 96.3608 14.1838 96.3608 12.3318C96.3608 10.4788 97.8628 8.97778 99.7148 8.97778C101.567 8.97778 103.069 10.4788 103.069 12.3318Z" stroke="#123E6B" stroke-width="2" stroke-miterlimit="10"/>
<path d="M110.632 4.76879C110.632 6.62079 109.13 8.1228 107.278 8.1228C105.425 8.1228 103.924 6.62079 103.924 4.76879C103.924 2.91579 105.426 1.41479 107.278 1.41479C109.13 1.41479 110.632 2.91679 110.632 4.76879Z" stroke="#123E6B" stroke-width="2" stroke-miterlimit="10"/>
<path d="M102.086 9.96091L104.908 7.13892" stroke="#123E6B" stroke-width="2" stroke-miterlimit="10"/>
<path d="M94.167 6.78296L97.168 9.78497" stroke="#123E6B" stroke-width="2" stroke-miterlimit="10"/>
<path d="M330.211 200.083H346.346L341.68 195.417" stroke="#123E6B" stroke-width="2" stroke-miterlimit="10" stroke-linecap="round"/>
<path d="M348.831 204.208H332.695L337.362 208.875" stroke="#123E6B" stroke-width="2" stroke-miterlimit="10" stroke-linecap="round"/>
<path d="M118.632 38.5239V77.8819H89.2151V45.4539L96.1451 38.5239H118.632Z" fill="#EDEDED"/>
<path d="M96.1451 38.5239V45.4539H89.2151L96.1451 38.5239Z" fill="#9E044C"/>
<path d="M116.47 58.6538H91.3V59.5808H116.47V58.6538Z" fill="#9E044C"/>
<path d="M116.47 61.3428H91.3V62.2698H116.47V61.3428Z" fill="#9E044C"/>
<path d="M116.47 64.0327H91.3V64.9597H116.47V64.0327Z" fill="#9E044C"/>
<path d="M116.47 66.7219H91.3V67.6489H116.47V66.7219Z" fill="#9E044C"/>
<path d="M116.47 69.4109H91.3V70.3379H116.47V69.4109Z" fill="#9E044C"/>
<path d="M116.47 72.1008H91.3V73.0278H116.47V72.1008Z" fill="#9E044C"/>
<path d="M116.47 74.7898H91.3V75.7168H116.47V74.7898Z" fill="#9E044C"/>
<path d="M116.47 48.5388H100.333V56.4138H116.47V48.5388Z" fill="#FC2A58"/>
<path d="M92.6085 49.0789V48.2103H98.6729V49.0789H96.1303V56.2961H95.1511V49.0789H92.6085Z" fill="#FF4670"/>
<path d="M44.615 271.525V316.933H10.676V279.521L18.672 271.525H44.615Z" fill="#EDEDED"/>
<path d="M18.672 271.525V279.521H10.676L18.672 271.525Z" fill="#FC2A58"/>
<path d="M42.1211 294.749H13.0811V295.818H42.1211V294.749Z" fill="#FC2A58"/>
<path d="M42.1211 297.852H13.0811V298.921H42.1211V297.852Z" fill="#FC2A58"/>
<path d="M42.1211 300.955H13.0811V302.024H42.1211V300.955Z" fill="#FC2A58"/>
<path d="M42.1211 304.058H13.0811V305.127H42.1211V304.058Z" fill="#FC2A58"/>
<path d="M42.1211 307.161H13.0811V308.23H42.1211V307.161Z" fill="#FC2A58"/>
<path d="M42.1211 310.264H13.0811V311.333H42.1211V310.264Z" fill="#FC2A58"/>
<path d="M42.1211 313.367H13.0811V314.436H42.1211V313.367Z" fill="#FC2A58"/>
<path d="M42.1209 283.08H23.5039V292.166H42.1209V283.08Z" fill="#FF4670"/>
<path d="M14.5922 284.011V283.009H21.5889V284.011H18.6553V292.338H17.5257V284.011H14.5922Z" fill="#9E044C"/>
<path d="M381.661 236.313H352.418V265.556H381.661V236.313Z" fill="#FC2A58"/>
<path d="M356.279 247.398V246.461H362.825V247.398H360.08V255.188H359.024V247.398H356.279ZM364.967 246.461L367.217 250.091H367.285L369.535 246.461H370.78L368.035 250.824L370.78 255.188H369.535L367.285 251.625H367.217L364.967 255.188H363.723L366.535 250.824L363.723 246.461H364.967ZM371.678 247.398V246.461H378.223V247.398H375.479V255.188H374.422V247.398H371.678Z" fill="white"/>
<path d="M363.817 231.808V228.556C363.817 226.779 365.263 225.333 367.04 225.333C368.817 225.333 370.263 226.779 370.263 228.556V231.808C370.263 233.585 368.817 235.031 367.04 235.031C365.263 235.031 363.817 233.585 363.817 231.808ZM368.521 228.556C368.521 227.74 367.857 227.075 367.04 227.075C366.223 227.075 365.559 227.739 365.559 228.556V231.808C365.559 232.624 366.223 233.289 367.04 233.289C367.857 233.289 368.521 232.625 368.521 231.808V228.556Z" fill="#123E6B"/>
<path d="M366.169 240.236V230.182C366.169 229.701 366.559 229.311 367.04 229.311C367.521 229.311 367.911 229.701 367.911 230.182V240.236C367.911 240.717 367.521 241.107 367.04 241.107C366.559 241.107 366.169 240.717 366.169 240.236Z" fill="#123E6B"/>
<path d="M190.504 44.8888V44.18H195.452V44.8888H193.377V50.7778H192.578V44.8888H190.504ZM197.072 44.18L198.773 46.9248H198.824L200.525 44.18H201.466L199.391 47.4789L201.466 50.7778H200.525L198.824 48.0846H198.773L197.072 50.7778H196.131L198.257 47.4789L196.131 44.18H197.072ZM202.145 44.8888V44.18H207.093V44.8888H205.018V50.7778H204.219V44.8888H202.145Z" fill="#123E6B"/>
<path d="M210.557 39.7119H186.72V55.4619H210.557V39.7119Z" stroke="#123E6B" stroke-width="2" stroke-miterlimit="10"/>
<path d="M9.50943 182.802V182.093H14.4578V182.802H12.3831V188.691H11.5841V182.802H9.50943ZM16.0774 182.093L17.7784 184.838H17.83L19.531 182.093H20.4717L18.397 185.392L20.4717 188.691H19.531L17.83 185.998H17.7784L16.0774 188.691H15.1367L17.263 185.392L15.1367 182.093H16.0774ZM21.1506 182.802V182.093H26.099V182.802H24.0243V188.691H23.2253V182.802H21.1506Z" fill="#123E6B"/>
<path d="M29.5631 177.625H5.72607V193.375H29.5631V177.625Z" stroke="#123E6B" stroke-width="2" stroke-miterlimit="10"/>
<path d="M74.0139 298.686V282.837" stroke="#123E6B" stroke-width="2" stroke-miterlimit="10"/>
<path d="M67.2888 289.554L74.0138 282.829L80.7378 289.554" stroke="#123E6B" stroke-width="2" stroke-miterlimit="10"/>
<path d="M83.6059 294.025V302.161H64.4209V294.025" stroke="#123E6B" stroke-width="2" stroke-miterlimit="10"/>
</svg>
