<svg width="36" height="36" viewBox="0 0 36 36" fill="none" xmlns="http://www.w3.org/2000/svg">
<rect width="36" height="36" rx="18" fill="white"/>
<path d="M24.5 12.5H11.5C11.2234 12.5 11 12.7234 11 13V23C11 23.2766 11.2234 23.5 11.5 23.5H24.5C24.7766 23.5 25 23.2766 25 23V13C25 12.7234 24.7766 12.5 24.5 12.5ZM23.875 14.2312V22.375H12.125V14.2312L11.6938 13.8953L12.3078 13.1063L12.9766 13.6266H23.025L23.6938 13.1063L24.3078 13.8953L23.875 14.2312ZM23.025 13.625L18 17.5312L12.975 13.625L12.3063 13.1047L11.6922 13.8937L12.1234 14.2297L17.4609 18.3797C17.6144 18.4989 17.8033 18.5637 17.9977 18.5637C18.192 18.5637 18.3809 18.4989 18.5344 18.3797L23.875 14.2312L24.3062 13.8953L23.6922 13.1063L23.025 13.625Z" fill="#FC2A58"/>
</svg>
