<svg width="851" height="967" viewBox="0 0 851 967" fill="none" xmlns="http://www.w3.org/2000/svg">
<g clip-path="url(#clip0_2_58)">
<mask id="mask0_2_58" style="mask-type:luminance" maskUnits="userSpaceOnUse" x="0" y="0" width="852" height="968">
<path d="M560.141 591.356C560.136 596.026 560.765 600.676 562.01 605.178L462.579 662.663C457.736 657.745 451.963 653.84 445.598 651.174C439.232 648.508 432.401 647.135 425.5 647.135C418.599 647.135 411.768 648.508 405.402 651.174C399.037 653.84 393.265 657.745 388.421 662.663L288.99 605.178C290.235 600.676 290.864 596.026 290.859 591.356C290.859 579.282 286.669 567.582 279.004 558.256C271.34 548.93 260.677 542.555 248.836 540.221C236.996 537.887 224.713 539.738 214.085 545.459C203.458 551.179 195.145 560.414 190.567 571.585C185.989 582.757 185.43 595.172 188.985 606.71C192.54 618.248 199.989 628.193 210.059 634.847C220.129 641.501 232.196 644.45 244.198 643.191C256.2 641.932 267.393 636.543 275.865 627.944L375.297 685.389C373.463 692.044 372.97 698.997 373.845 705.845C374.72 712.693 376.946 719.298 380.394 725.278C383.842 731.258 388.442 736.492 393.929 740.679C399.416 744.865 405.679 747.919 412.355 749.663V864.511C400.097 867.709 389.423 875.267 382.332 885.77C375.241 896.273 372.219 909.001 373.83 921.573C375.442 934.144 381.577 945.697 391.087 954.07C400.598 962.443 412.832 967.062 425.5 967.062C438.168 967.062 450.402 962.443 459.913 954.07C469.423 945.697 475.558 934.144 477.17 921.573C478.781 909.001 475.759 896.273 468.668 885.77C461.577 875.267 450.903 867.709 438.645 864.511V749.622C445.321 747.878 451.584 744.824 457.071 740.638C462.558 736.452 467.158 731.217 470.606 725.237C474.054 719.257 476.28 712.652 477.155 705.804C478.03 698.957 477.537 692.003 475.703 685.348L575.135 627.904C583.602 636.492 594.786 641.873 606.778 643.128C618.77 644.383 630.825 641.434 640.885 634.785C650.945 628.135 658.386 618.198 661.937 606.67C665.488 595.142 664.929 582.738 660.355 571.577C655.781 560.415 647.476 551.189 636.858 545.472C626.241 539.756 613.969 537.905 602.139 540.235C590.309 542.565 579.654 548.932 571.995 558.248C564.335 567.564 560.145 579.252 560.141 591.315M1.58552e-05 483.5C0.0034507 495.027 3.82604 506.227 10.8697 515.349C17.9133 524.47 27.7805 530.998 38.9275 533.911V648.8C31.1913 650.842 24.0298 654.641 17.9991 659.901C11.9685 665.162 7.23112 671.742 4.15497 679.132C1.07882 686.522 -0.253295 694.521 0.262093 702.509C0.777482 710.498 3.1265 718.26 7.1267 725.192C11.1269 732.125 16.6706 738.041 23.3271 742.482C29.9837 746.924 37.574 749.77 45.5084 750.8C53.4428 751.83 61.5077 751.016 69.0767 748.422C76.6457 745.827 83.5151 741.522 89.1512 735.84L188.583 793.285C185.21 805.505 186.405 818.535 191.943 829.937C197.481 841.339 206.983 850.331 218.67 855.229C230.357 860.126 243.427 860.595 255.435 856.546C267.442 852.497 277.562 844.208 283.901 833.232C290.241 822.256 292.364 809.344 289.874 796.914C287.384 784.484 280.451 773.389 270.373 765.705C260.295 758.02 247.764 754.274 235.125 755.168C222.486 756.062 210.605 761.533 201.708 770.559L102.276 713.033C103.522 708.532 104.15 703.882 104.145 699.211C104.142 687.684 100.319 676.484 93.2756 667.363C86.2319 658.241 76.3647 651.713 65.2178 648.8V533.911C74.6639 531.491 83.2416 526.467 89.9749 519.411C96.7083 512.355 101.327 503.549 103.305 493.996C105.284 484.444 104.543 474.527 101.166 465.375C97.79 456.223 91.914 448.202 84.2067 442.226C76.4994 436.25 67.2704 432.558 57.5696 431.571C47.8687 430.583 38.0856 432.339 29.3331 436.64C20.5807 440.94 13.2103 447.612 8.0606 455.896C2.91086 464.18 0.188479 473.744 0.203186 483.5M747.058 483.5C747.052 495.023 750.866 506.223 757.903 515.345C764.94 524.467 774.802 530.997 785.945 533.911V648.8C779.274 650.544 773.016 653.597 767.534 657.781C762.052 661.965 757.456 667.197 754.012 673.173C750.568 679.149 748.345 685.75 747.472 692.593C746.599 699.435 747.094 706.384 748.927 713.033L649.495 770.478C640.61 761.471 628.748 756.013 616.13 755.125C603.512 754.236 591.003 757.979 580.944 765.652C570.885 773.326 563.965 784.403 561.481 796.812C558.996 809.221 561.117 822.11 567.445 833.068C573.773 844.026 583.876 852.301 595.862 856.344C607.849 860.387 620.897 859.921 632.565 855.034C644.233 850.147 653.721 841.173 659.253 829.792C664.785 818.412 665.982 805.404 662.62 793.203L761.849 735.84C767.476 741.547 774.344 745.876 781.917 748.492C789.491 751.108 797.566 751.939 805.513 750.921C813.461 749.903 821.066 747.063 827.736 742.623C834.407 738.182 839.963 732.261 843.971 725.32C847.98 718.38 850.333 710.607 850.847 702.607C851.362 694.607 850.023 686.597 846.936 679.2C843.849 671.803 839.097 665.218 833.05 659.959C827.003 654.701 819.824 650.909 812.073 648.881V533.911C821.519 531.491 830.096 526.467 836.83 519.411C843.563 512.355 848.182 503.549 850.16 493.996C852.139 484.444 851.398 474.527 848.021 465.375C844.645 456.223 838.769 448.202 831.061 442.226C823.354 436.25 814.125 432.558 804.424 431.571C794.724 430.583 784.94 432.339 776.188 436.64C767.435 440.94 760.065 447.612 754.915 455.896C749.766 464.18 747.043 473.744 747.058 483.5ZM560.141 375.645C560.136 380.315 560.765 384.965 562.01 389.467L462.579 446.911C457.736 441.993 451.963 438.088 445.598 435.422C439.232 432.757 432.401 431.384 425.5 431.384C418.599 431.384 411.768 432.757 405.402 435.422C399.037 438.088 393.265 441.993 388.421 446.911L288.99 389.467C291.056 382.281 291.551 374.734 290.442 367.34C289.332 359.945 286.644 352.876 282.56 346.614C278.477 340.351 273.093 335.042 266.775 331.047C260.457 327.052 253.354 324.466 245.948 323.463C238.541 322.46 231.006 323.064 223.854 325.235C216.703 327.406 210.102 331.092 204.501 336.043C198.9 340.994 194.431 347.094 191.397 353.927C188.362 360.761 186.834 368.168 186.917 375.645C186.905 385.985 189.971 396.095 195.722 404.686C201.474 413.277 209.652 419.961 219.214 423.885C228.776 427.81 239.29 428.797 249.415 426.722C259.54 424.647 268.818 419.603 276.068 412.233L375.5 469.637C373.503 476.809 373.066 484.327 374.217 491.682C375.369 499.038 378.082 506.062 382.174 512.28C386.266 518.499 391.643 523.768 397.942 527.733C404.24 531.698 411.315 534.267 418.689 535.266C426.064 536.266 433.567 535.673 440.693 533.528C447.819 531.382 454.403 527.734 460.001 522.829C465.6 517.924 470.083 511.876 473.149 505.092C476.215 498.308 477.793 490.945 477.776 483.5C477.781 478.829 477.152 474.179 475.907 469.678L575.338 412.233C583.805 420.822 594.99 426.203 606.981 427.458C618.973 428.713 631.028 425.764 641.088 419.114C651.148 412.465 658.589 402.528 662.14 391C665.691 379.472 665.132 367.068 660.558 355.906C655.984 344.745 647.679 335.518 637.062 329.802C626.444 324.086 614.172 322.235 602.342 324.565C590.512 326.895 579.857 333.262 572.198 342.578C564.538 351.894 560.348 363.581 560.344 375.645M1.58552e-05 267.789C-0.00802216 278.099 3.04034 288.179 8.7595 296.756C14.4787 305.332 22.6116 312.018 32.1297 315.969C41.6477 319.92 52.1231 320.958 62.2308 318.952C72.3385 316.945 81.6244 311.985 88.9138 304.698C96.2032 297.41 101.169 288.124 103.182 278.012C105.195 267.901 104.166 257.42 100.224 247.894C96.2828 238.368 89.6059 230.226 81.0384 224.497C72.4709 218.769 62.3977 215.711 52.0929 215.711C38.2841 215.711 25.0402 221.197 15.272 230.962C5.50389 240.727 0.0107872 253.973 1.58552e-05 267.789ZM746.855 267.789C746.847 278.101 749.896 288.183 755.617 296.76C761.338 305.337 769.473 312.023 778.994 315.973C788.514 319.923 798.992 320.959 809.101 318.949C819.209 316.939 828.495 311.974 835.783 304.683C843.071 297.392 848.033 288.101 850.042 277.988C852.05 267.874 851.015 257.391 847.068 247.866C843.12 238.341 836.437 230.201 827.864 224.478C819.291 218.754 809.214 215.703 798.907 215.711C785.105 215.722 771.872 221.212 762.112 230.976C752.353 240.74 746.866 253.98 746.855 267.789ZM559.938 159.934C559.935 164.618 560.564 169.281 561.807 173.797L462.579 231.241C457.736 226.323 451.963 222.418 445.598 219.752C439.232 217.086 432.401 215.713 425.5 215.713C418.599 215.713 411.768 217.086 405.402 219.752C399.037 222.418 393.265 226.323 388.421 231.241L288.99 173.797C292.362 161.577 291.168 148.546 285.629 137.144C280.091 125.742 270.589 116.751 258.903 111.853C247.216 106.955 234.145 106.487 222.138 110.536C210.131 114.584 200.011 122.873 193.671 133.849C187.332 144.826 185.209 157.737 187.699 170.167C190.189 182.597 197.122 193.693 207.2 201.377C217.277 209.061 229.809 212.807 242.448 211.913C255.087 211.02 266.968 205.548 275.865 196.522L375.297 253.967C374.051 258.468 373.422 263.118 373.427 267.789C373.233 274.753 374.436 281.686 376.965 288.177C379.495 294.667 383.299 300.585 388.154 305.58C393.009 310.574 398.815 314.544 405.229 317.255C411.644 319.966 418.537 321.363 425.5 321.363C432.463 321.363 439.356 319.966 445.771 317.255C452.185 314.544 457.991 310.574 462.846 305.58C467.701 300.585 471.505 294.667 474.035 288.177C476.564 281.686 477.767 274.753 477.573 267.789C477.578 263.118 476.949 258.468 475.703 253.967L575.135 196.522C583.602 205.111 594.786 210.492 606.778 211.747C618.77 213.002 630.825 210.053 640.885 203.403C650.945 196.754 658.386 186.817 661.937 175.289C665.488 163.761 664.929 151.357 660.355 140.195C655.781 129.034 647.476 119.807 636.858 114.091C626.241 108.375 613.969 106.524 602.139 108.854C590.309 111.184 579.654 117.551 571.995 126.867C564.335 136.183 560.145 147.87 560.141 159.934M373.427 52.1187C373.427 62.4285 376.484 72.5067 382.21 81.0784C387.935 89.6502 396.074 96.3303 405.595 100.274C415.116 104.217 425.592 105.247 435.698 103.233C445.804 101.219 455.086 96.2507 462.37 88.9577C469.654 81.6647 474.612 72.3743 476.617 62.2616C478.623 52.1489 477.585 41.6683 473.636 32.1455C469.687 22.6228 463.004 14.4858 454.432 8.76382C445.86 3.04184 435.784 -0.00802612 425.48 1.58631e-05C411.671 0.0107925 398.431 5.5066 388.671 15.2796C378.91 25.0526 373.427 38.303 373.427 52.1187Z" fill="white"/>
</mask>
<g mask="url(#mask0_2_58)">
<path d="M851 0H0V967H851V0Z" fill="url(#paint0_linear_2_58)"/>
</g>
</g>
<defs>
<linearGradient id="paint0_linear_2_58" x1="-1.93053" y1="471.317" x2="849.069" y2="471.317" gradientUnits="userSpaceOnUse">
<stop stop-color="#559999"/>
<stop offset="1" stop-color="#FF2255"/>
</linearGradient>
<clipPath id="clip0_2_58">
<rect width="851" height="967" fill="white"/>
</clipPath>
</defs>
</svg>
