<svg width="40" height="40" viewBox="0 0 40 40" fill="none" xmlns="http://www.w3.org/2000/svg">
<path d="M18.1719 18.7695H26.6094C26.6867 18.7695 26.75 18.7063 26.75 18.6289V17.6445C26.75 17.5672 26.6867 17.5039 26.6094 17.5039H18.1719C18.0945 17.5039 18.0312 17.5672 18.0312 17.6445V18.6289C18.0312 18.7063 18.0945 18.7695 18.1719 18.7695ZM18.0312 22.3555C18.0312 22.4328 18.0945 22.4961 18.1719 22.4961H26.6094C26.6867 22.4961 26.75 22.4328 26.75 22.3555V21.3711C26.75 21.2937 26.6867 21.2305 26.6094 21.2305H18.1719C18.0945 21.2305 18.0312 21.2937 18.0312 21.3711V22.3555ZM26.8906 13.8125H13.1094C13.032 13.8125 12.9688 13.8758 12.9688 13.9531V14.9375C12.9688 15.0148 13.032 15.0781 13.1094 15.0781H26.8906C26.968 15.0781 27.0312 15.0148 27.0312 14.9375V13.9531C27.0312 13.8758 26.968 13.8125 26.8906 13.8125ZM26.8906 24.9219H13.1094C13.032 24.9219 12.9688 24.9852 12.9688 25.0625V26.0469C12.9688 26.1242 13.032 26.1875 13.1094 26.1875H26.8906C26.968 26.1875 27.0312 26.1242 27.0312 26.0469V25.0625C27.0312 24.9852 26.968 24.9219 26.8906 24.9219ZM13.5031 22.2869L16.2506 20.123C16.2691 20.1085 16.284 20.09 16.2943 20.0688C16.3046 20.0476 16.3099 20.0244 16.3099 20.0009C16.3099 19.9773 16.3046 19.9541 16.2943 19.933C16.284 19.9118 16.2691 19.8933 16.2506 19.8787L13.5031 17.7131C13.4012 17.6322 13.25 17.7043 13.25 17.8344V22.1639C13.25 22.1932 13.2582 22.222 13.2738 22.2469C13.2894 22.2718 13.3116 22.2918 13.338 22.3046C13.3645 22.3175 13.3939 22.3226 13.4231 22.3195C13.4523 22.3163 13.48 22.3051 13.5031 22.2869Z" fill="#FC2A58"/>
</svg>
