<svg width="109" height="30" viewBox="0 0 109 30" fill="none" xmlns="http://www.w3.org/2000/svg">
<g id="Layer 2">
<g id="Layer 1">
<g id="Clip path group">
<mask id="mask0_184_65" style="mask-type:luminance" maskUnits="userSpaceOnUse" x="-10" y="-50" width="128" height="127">
<g id="clip-path">
<path id="Vector" d="M117.15 -49.7322H-9.03589V76.3924H117.15V-49.7322Z" fill="white"/>
</g>
</mask>
<g mask="url(#mask0_184_65)">
<g id="Group">
<g id="Clip path group_2">
<mask id="mask1_184_65" style="mask-type:luminance" maskUnits="userSpaceOnUse" x="-10" y="-50" width="128" height="127">
<g id="clip-path_2">
<path id="Vector_2" d="M117.15 -49.7322H-9.03589V76.3924H117.15V-49.7322Z" fill="white"/>
</g>
</mask>
<g mask="url(#mask1_184_65)">
<g id="Group_2">
<path id="Vector_3" d="M41.6455 11.2301C41.6455 14.0288 39.6341 15.8425 36.5173 15.8425H32.521V6.63541H36.6359C39.6732 6.63541 41.6455 8.43647 41.6455 11.2352M38.5287 11.2617C38.5287 9.89447 37.7539 9.0015 36.5703 9.0015H35.5709V13.4815H36.7154C37.8195 13.4815 38.5287 12.615 38.5287 11.2617Z" fill="white"/>
<path id="Vector_4" d="M48.5049 14.5409H45.0474L44.5742 15.8425H41.4448L45.3364 6.63541H48.4658L52.2123 15.8425H48.968L48.5049 14.5409ZM47.7554 12.3602L46.8115 9.67249L45.8386 12.3665L47.7554 12.3602Z" fill="white"/>
<path id="Vector_5" d="M59.3936 6.63037V9.03557H56.7639V15.8413H53.714V9.03557H51.0969V6.63037H59.3936Z" fill="white"/>
<path id="Vector_6" d="M65.3357 14.5409H61.8808L61.4076 15.8425H58.2756L62.1672 6.63541H65.2954L69.0431 15.8425H65.7925L65.3357 14.5409ZM64.5862 12.3602L63.6398 9.67249L62.6669 12.3665L64.5862 12.3602Z" fill="white"/>
<path id="Vector_7" d="M81.2161 6.63037V9.03557H78.5864V15.8413H75.5365V9.03557H72.9207V6.63037H81.2161Z" fill="white"/>
<path id="Vector_8" d="M87.2366 15.8425L86.1324 13.4461H84.9892V15.8425H81.9443V6.63541H86.4012C88.8997 6.63541 90.3332 7.83233 90.3332 9.93482C90.3332 11.2743 89.8196 12.2732 88.8732 12.8508L90.6878 15.8475L87.2366 15.8425ZM84.9892 11.1381H86.3949C87.0523 11.1381 87.4347 10.7307 87.4347 10.0218C87.4347 9.33825 87.0561 8.94349 86.3949 8.94349H84.9892V11.1381Z" fill="white"/>
<path id="Vector_9" d="M99.2657 6.63037V8.9435H94.5199V10.0736H98.8317V12.3854H94.5199V13.5294H99.3844V15.8413H91.47V6.63037H99.2657Z" fill="white"/>
<path id="Vector_10" d="M108.337 6.63037V8.9435H103.591V10.0736H107.903V12.3854H103.591V13.5294H108.455V15.8413H100.54V6.63037H108.337Z" fill="white"/>
<path id="Vector_11" d="M37.1585 23.777H34.1906L33.5836 25.1644H32.9211L35.3666 19.7158H36.0127L38.4506 25.1644H37.7793L37.1585 23.777ZM36.9061 23.2006L35.6707 20.3931L34.448 23.1956L36.9061 23.2006Z" fill="white"/>
<path id="Vector_12" d="M52.1216 19.7196V20.296H49.2786V22.2496H51.8263V22.8185H49.2786V25.1694H48.6565V19.7196H52.1216Z" fill="white"/>
<path id="Vector_13" d="M65.9553 25.1694L64.8108 23.4264C64.701 23.4339 64.5849 23.4415 64.46 23.4415H63.0164V25.1694H62.3855V19.7208H64.4575C65.8203 19.7208 66.6026 20.3905 66.6026 21.5496C66.6026 22.4451 66.1585 23.0631 65.3711 23.3154L66.6569 25.1757L65.9553 25.1694ZM64.46 22.8651C65.4493 22.8651 66.0096 22.4224 66.0096 21.566C66.0096 20.7323 65.4493 20.2972 64.46 20.2972H63.0164V22.8651H64.46Z" fill="white"/>
<path id="Vector_14" d="M77.9908 19.7196H77.3674V25.1682H77.9908V19.7196Z" fill="white"/>
<path id="Vector_15" d="M91.3248 20.2732C91.04 20.2732 90.7579 20.3293 90.4947 20.4383C90.2316 20.5472 89.9924 20.7069 89.791 20.9083C89.5896 21.1096 89.4298 21.3486 89.3208 21.6116C89.2118 21.8747 89.1557 22.1566 89.1557 22.4413C89.1557 22.726 89.2118 23.008 89.3208 23.271C89.4298 23.5341 89.5896 23.7731 89.791 23.9744C89.9924 24.1757 90.2316 24.3354 90.4947 24.4444C90.7579 24.5533 91.04 24.6094 91.3248 24.6094C91.9256 24.6027 92.5016 24.3693 92.9375 23.9561L93.316 24.3685C92.7707 24.8873 92.0498 25.1818 91.2971 25.1934C89.7235 25.1934 88.4768 23.9788 88.4768 22.4376C88.4768 20.8963 89.7387 19.7057 91.3198 19.7057C92.0606 19.7099 92.7725 19.9932 93.3135 20.499L92.9349 20.9505C92.5067 20.5227 91.9278 20.2796 91.3223 20.2732" fill="white"/>
<path id="Vector_16" d="M107.208 23.777H104.24L103.633 25.1644H102.971L105.415 19.7208H106.061L108.499 25.1694H107.821L107.208 23.777ZM106.956 23.2006L105.72 20.3931L104.498 23.1956L106.956 23.2006Z" fill="white"/>
<path id="Vector_17" d="M2.11654 6.69216C2.43654 6.69191 2.74943 6.78653 3.01563 6.96405C3.28183 7.14157 3.48937 7.39401 3.612 7.68944C3.73463 7.98487 3.76685 8.31002 3.70457 8.62375C3.6423 8.93749 3.48833 9.22571 3.26214 9.45196C3.03595 9.67822 2.7477 9.83235 2.43386 9.89484C2.12002 9.95733 1.79469 9.92538 1.49902 9.80304C1.20335 9.68069 0.950628 9.47345 0.772817 9.20752C0.595005 8.94159 0.500097 8.62893 0.500097 8.30908C0.500097 7.88047 0.67036 7.46939 0.973465 7.16619C1.27657 6.863 1.68772 6.6925 2.11654 6.69216ZM25.3095 6.69216C25.6295 6.69191 25.9424 6.78653 26.2086 6.96405C26.4748 7.14157 26.6823 7.39401 26.805 7.68944C26.9276 7.98487 26.9598 8.31002 26.8975 8.62375C26.8353 8.93749 26.6813 9.22571 26.4551 9.45196C26.2289 9.67822 25.9407 9.83235 25.6268 9.89484C25.313 9.95733 24.9877 9.92538 24.692 9.80304C24.3963 9.68069 24.1436 9.47345 23.9658 9.20752C23.788 8.94159 23.6931 8.62893 23.6931 8.30908C23.6931 7.88047 23.8633 7.46939 24.1664 7.16619C24.4695 6.863 24.8807 6.6925 25.3095 6.69216ZM18.3605 12.789L15.2727 14.5712C15.3392 14.8113 15.3493 15.0635 15.3022 15.3082C15.2551 15.5529 15.1521 15.7833 15.0012 15.9816C14.8502 16.1799 14.6555 16.3407 14.4322 16.4514C14.2088 16.562 13.9629 16.6196 13.7137 16.6196C13.4644 16.6196 13.2185 16.562 12.9951 16.4514C12.7718 16.3407 12.5771 16.1799 12.4261 15.9816C12.2752 15.7833 12.1722 15.5529 12.1251 15.3082C12.078 15.0635 12.0881 14.8113 12.1546 14.5712L9.06686 12.789C8.79091 13.0684 8.42255 13.2378 8.03071 13.2653C7.63887 13.2929 7.25041 13.1768 6.93804 12.9387C6.62567 12.7007 6.41079 12.357 6.33363 11.972C6.25648 11.5871 6.32232 11.1872 6.51884 10.8472C6.71537 10.5073 7.0291 10.2506 7.40132 10.1251C7.77355 9.9997 8.17875 10.0141 8.54108 10.1658C8.90342 10.3174 9.19806 10.5958 9.36986 10.9489C9.54166 11.3019 9.57884 11.7055 9.47444 12.084L12.5622 13.8661C12.7126 13.7136 12.8919 13.5924 13.0895 13.5097C13.2872 13.427 13.4994 13.3844 13.7137 13.3844C13.9279 13.3844 14.1401 13.427 14.3378 13.5097C14.5355 13.5924 14.7147 13.7136 14.8651 13.8661L17.9529 12.084C17.8481 11.7049 17.8852 11.3006 18.0572 10.9469C18.2292 10.5932 18.5243 10.3142 18.8872 10.1623C19.2501 10.0103 19.656 9.99578 20.0289 10.1214C20.4018 10.247 20.716 10.5041 20.9129 10.8447C21.1098 11.1852 21.1757 11.5858 21.0984 11.9714C21.021 12.357 20.8058 12.7012 20.4928 12.9396C20.1798 13.178 19.7907 13.2942 19.3982 13.2665C19.0057 13.2388 18.6368 13.069 18.3605 12.789ZM18.3605 6.10442L15.2727 7.8853C15.3392 8.12542 15.3493 8.37766 15.3022 8.62233C15.2551 8.867 15.1521 9.09748 15.0012 9.29578C14.8502 9.49408 14.6555 9.65484 14.4322 9.7655C14.2088 9.87617 13.9629 9.93375 13.7137 9.93375C13.4644 9.93375 13.2185 9.87617 12.9951 9.7655C12.7718 9.65484 12.5771 9.49408 12.4261 9.29578C12.2752 9.09748 12.1722 8.867 12.1251 8.62233C12.078 8.37766 12.0881 8.12542 12.1546 7.8853L9.06686 6.10316C8.79091 6.38258 8.42255 6.55192 8.03071 6.57947C7.63887 6.60703 7.25041 6.49092 6.93804 6.25286C6.62567 6.01481 6.41079 5.67114 6.33363 5.28617C6.25648 4.9012 6.32232 4.50132 6.51884 4.16137C6.71537 3.82143 7.0291 3.56471 7.40132 3.43927C7.77355 3.31384 8.17875 3.32828 8.54108 3.4799C8.90342 3.63152 9.19806 3.90992 9.36986 4.263C9.54166 4.61607 9.57884 5.01962 9.47444 5.39812L12.5622 7.18026C12.7126 7.02769 12.8919 6.90653 13.0895 6.82383C13.2872 6.74113 13.4994 6.69854 13.7137 6.69854C13.9279 6.69854 14.1401 6.74113 14.3378 6.82383C14.5355 6.90653 14.7147 7.02769 14.8651 7.18026L17.9529 5.39812C17.8869 5.15823 17.8771 4.90634 17.9244 4.66207C17.9717 4.4178 18.0748 4.18774 18.2256 3.98979C18.3764 3.79183 18.5708 3.63133 18.7938 3.52077C19.0168 3.41022 19.2623 3.3526 19.5113 3.35238C19.7778 3.35218 20.0403 3.41782 20.2754 3.54348C20.5105 3.66914 20.7108 3.85091 20.8587 4.07263C21.0065 4.29435 21.0972 4.54915 21.1228 4.81437C21.1483 5.07959 21.1079 5.347 21.0051 5.59284C20.9023 5.83868 20.7403 6.05531 20.5335 6.22348C20.3267 6.39164 20.0816 6.50613 19.8199 6.55676C19.5582 6.60739 19.288 6.59259 19.0334 6.51367C18.7788 6.43475 18.5476 6.29417 18.3605 6.10442ZM20.6633 23.9107L23.7511 22.1286C23.6943 21.9222 23.6791 21.7066 23.7063 21.4943C23.7334 21.2819 23.8025 21.0771 23.9094 20.8917C24.0163 20.7062 24.159 20.5438 24.3291 20.4138C24.4993 20.2839 24.6936 20.1889 24.9007 20.1345V16.5652C24.5201 16.4658 24.1888 16.2313 23.9687 15.9054C23.7486 15.5796 23.6549 15.1847 23.705 14.7948C23.7551 14.4048 23.9456 14.0465 24.241 13.7868C24.5363 13.5271 24.9162 13.3839 25.3095 13.3839C25.7029 13.3839 26.0827 13.5271 26.378 13.7868C26.6734 14.0465 26.8639 14.4048 26.914 14.7948C26.9641 15.1847 26.8704 15.5796 26.6503 15.9054C26.4302 16.2313 26.0989 16.4658 25.7184 16.5652V20.1282C25.9596 20.1908 26.1831 20.3083 26.3714 20.4714C26.5597 20.6346 26.7078 20.839 26.804 21.0688C26.9002 21.2986 26.9421 21.5475 26.9262 21.7961C26.9104 22.0447 26.8373 22.2862 26.7126 22.5019C26.588 22.7176 26.4152 22.9016 26.2077 23.0396C26.0001 23.1775 25.7635 23.2657 25.5163 23.2972C25.2691 23.3287 25.018 23.3027 24.7825 23.2211C24.547 23.1396 24.3335 23.0048 24.1587 22.8273L21.0709 24.6082C21.1763 24.9875 21.1396 25.3922 20.9679 25.7465C20.7962 26.1008 20.5011 26.3803 20.138 26.5328C19.7749 26.6853 19.3686 26.7002 18.9953 26.5748C18.6219 26.4494 18.3071 26.1923 18.1098 25.8516C17.9125 25.5109 17.8462 25.11 17.9233 24.7239C18.0005 24.3379 18.2158 23.9932 18.5289 23.7544C18.8421 23.5156 19.2316 23.3991 19.6245 23.4267C20.0174 23.4543 20.3867 23.6242 20.6633 23.9044M6.35891 24.6082L3.26862 22.8273C3.09382 23.0048 2.88035 23.1396 2.64485 23.2211C2.40935 23.3027 2.1582 23.3287 1.91098 23.2972C1.66376 23.2657 1.42716 23.1775 1.21965 23.0396C1.01213 22.9016 0.839312 22.7176 0.714667 22.5019C0.590022 22.2862 0.516925 22.0447 0.501077 21.7961C0.485229 21.5475 0.52706 21.2986 0.623306 21.0688C0.719552 20.839 0.867611 20.6346 1.05593 20.4714C1.24425 20.3083 1.46774 20.1908 1.70896 20.1282V16.5652C1.32829 16.466 0.996836 16.2315 0.776632 15.9057C0.556429 15.5798 0.462565 15.1849 0.512607 14.7949C0.56265 14.4049 0.753168 14.0465 1.04851 13.7867C1.34385 13.527 1.72377 13.3837 2.11717 13.3837C2.51057 13.3837 2.89049 13.527 3.18583 13.7867C3.48117 14.0465 3.67169 14.4049 3.72173 14.7949C3.77177 15.1849 3.67791 15.5798 3.45771 15.9057C3.2375 16.2315 2.90605 16.466 2.52538 16.5652V20.1282C2.7327 20.1823 2.9272 20.2771 3.09758 20.4069C3.26797 20.5368 3.41084 20.6992 3.51791 20.8847C3.62497 21.0703 3.6941 21.2752 3.72127 21.4876C3.74845 21.7001 3.73312 21.9158 3.6762 22.1222L6.76397 23.9044C7.03935 23.6262 7.4067 23.4579 7.79728 23.4309C8.18786 23.4038 8.57492 23.52 8.88602 23.7576C9.19712 23.9951 9.41096 24.3379 9.48752 24.7217C9.56409 25.1054 9.49813 25.5039 9.30198 25.8426C9.10584 26.1813 8.79296 26.4369 8.42188 26.5617C8.0508 26.6865 7.64695 26.6719 7.28588 26.5205C6.92482 26.3692 6.63129 26.0916 6.4602 25.7396C6.28912 25.3876 6.25221 24.9854 6.35639 24.6082M13.3054 26.8254V23.2561C13.0981 23.202 12.9036 23.1072 12.7332 22.9774C12.5629 22.8475 12.42 22.6851 12.3129 22.4996C12.2059 22.3141 12.1367 22.1091 12.1096 21.8967C12.0824 21.6843 12.0977 21.4685 12.1546 21.2621L9.06686 19.4812C8.79091 19.7606 8.42255 19.93 8.03071 19.9575C7.63887 19.9851 7.25041 19.869 6.93804 19.6309C6.62567 19.3929 6.41079 19.0492 6.33363 18.6642C6.25648 18.2792 6.32232 17.8794 6.51884 17.5394C6.71537 17.1995 7.0291 16.9427 7.40132 16.8173C7.77355 16.6919 8.17875 16.7063 8.54108 16.8579C8.90342 17.0096 9.19806 17.288 9.36986 17.641C9.54166 17.9941 9.57884 18.3977 9.47444 18.7762L12.5622 20.557C12.7128 20.4048 12.8921 20.2839 13.0897 20.2014C13.2874 20.1189 13.4995 20.0764 13.7137 20.0764C13.9279 20.0764 14.1399 20.1189 14.3376 20.2014C14.5352 20.2839 14.7145 20.4048 14.8651 20.557L17.9529 18.7762C17.8481 18.3971 17.8852 17.9928 18.0572 17.6391C18.2292 17.2853 18.5243 17.0064 18.8872 16.8544C19.2501 16.7025 19.656 16.6879 20.0289 16.8136C20.4018 16.9392 20.716 17.1963 20.9129 17.5368C21.1098 17.8774 21.1757 18.2779 21.0984 18.6636C21.021 19.0492 20.8058 19.3934 20.4928 19.6318C20.1798 19.8702 19.7907 19.9864 19.3982 19.9587C19.0057 19.931 18.6368 19.7612 18.3605 19.4812L15.2727 21.2621C15.3296 21.4685 15.3449 21.6843 15.3178 21.8967C15.2906 22.1091 15.2215 22.3141 15.1144 22.4996C15.0073 22.6851 14.8645 22.8475 14.6941 22.9774C14.5237 23.1072 14.3292 23.202 14.1219 23.2561V26.8254C14.5025 26.9247 14.834 27.1591 15.0542 27.485C15.2744 27.8108 15.3683 28.2057 15.3182 28.5957C15.2682 28.9857 15.0777 29.3441 14.7823 29.6039C14.487 29.8637 14.1071 30.0069 13.7137 30.0069C13.3203 30.0069 12.9403 29.8637 12.645 29.6039C12.3497 29.3441 12.1591 28.9857 12.1091 28.5957C12.059 28.2057 12.1529 27.8108 12.3731 27.485C12.5933 27.1591 12.9248 26.9247 13.3054 26.8254ZM13.713 0.00503589C14.033 0.0047864 14.3459 0.0994053 14.6121 0.276923C14.8783 0.45444 15.0859 0.706881 15.2085 1.00231C15.3311 1.29774 15.3633 1.62289 15.3011 1.93662C15.2388 2.25036 15.0848 2.53858 14.8586 2.76484C14.6324 2.9911 14.3442 3.14522 14.0303 3.20771C13.7165 3.2702 13.3912 3.23825 13.0955 3.11591C12.7998 2.99356 12.5471 2.78632 12.3693 2.5204C12.1915 2.25447 12.0966 1.9418 12.0966 1.62195C12.0966 1.19334 12.2668 0.78226 12.57 0.479065C12.8731 0.175871 13.2842 0.00537023 13.713 0.00503589Z" fill="white"/>
</g>
</g>
</g>
</g>
</g>
</g>
</g>
</g>
</svg>
