<svg width="36" height="36" viewBox="0 0 36 36" fill="none" xmlns="http://www.w3.org/2000/svg">
<rect width="36" height="36" rx="18" fill="white"/>
<path d="M22.4801 12.6667H13.5801C13.4654 12.6613 13.3507 12.6786 13.2427 12.7176C13.1347 12.7566 13.0354 12.8165 12.9506 12.8939C12.8657 12.9713 12.797 13.0647 12.7483 13.1687C12.6996 13.2727 12.6719 13.3853 12.6667 13.5V22.42C12.6735 22.6601 12.7719 22.8886 12.9417 23.0584C13.1115 23.2282 13.34 23.3266 13.5801 23.3334H22.4801C22.7135 23.323 22.9335 23.2215 23.0931 23.0508C23.2526 22.88 23.3389 22.6536 23.3334 22.42V13.5C23.3353 13.3883 23.3144 13.2775 23.2719 13.1742C23.2295 13.0709 23.1663 12.9774 23.0864 12.8993C23.0065 12.8213 22.9115 12.7604 22.8073 12.7204C22.703 12.6804 22.5917 12.6621 22.4801 12.6667ZM16.0001 21.56H14.4467V16.8067H16.0001V21.56ZM15.2601 16.0867C15.1517 16.0904 15.0437 16.0718 14.9429 16.0318C14.842 15.9918 14.7505 15.9315 14.6742 15.8545C14.5978 15.7775 14.5382 15.6855 14.499 15.5843C14.4599 15.4832 14.4421 15.375 14.4467 15.2667C14.442 15.1571 14.4601 15.0478 14.5 14.9457C14.54 14.8436 14.6008 14.751 14.6787 14.6738C14.7565 14.5966 14.8496 14.5365 14.952 14.4974C15.0545 14.4583 15.1639 14.441 15.2734 14.4467C15.3818 14.4429 15.4898 14.4616 15.5906 14.5015C15.6915 14.5415 15.783 14.6019 15.8593 14.6789C15.9357 14.7559 15.9953 14.8478 16.0345 14.949C16.0736 15.0502 16.0914 15.1583 16.0867 15.2667C16.0915 15.3762 16.0734 15.4855 16.0334 15.5876C15.9935 15.6897 15.9327 15.7824 15.8548 15.8596C15.777 15.9368 15.6839 15.9969 15.5815 16.036C15.479 16.0751 15.3696 16.0923 15.2601 16.0867ZM21.5601 21.56H20.0001V18.96C20.0001 18.34 19.7801 17.9134 19.2267 17.9134C19.0549 17.9148 18.8876 17.9694 18.748 18.0697C18.6083 18.17 18.5031 18.311 18.4467 18.4734C18.4034 18.5951 18.3853 18.7244 18.3934 18.8534V21.56H16.8601V16.8067H18.3934V17.4734C18.5297 17.2229 18.7326 17.015 18.9797 16.8726C19.2267 16.7303 19.5083 16.659 19.7934 16.6667C20.8001 16.6667 21.5601 17.3334 21.5601 18.7534V21.56Z" fill="#FC2A58"/>
</svg>
