<svg width="1080" height="1080" viewBox="0 0 1080 1080" fill="none" xmlns="http://www.w3.org/2000/svg">
<rect width="1080" height="1080" rx="70" fill="#FC2A58"/>
<g clip-path="url(#clip0_2_69)">
<mask id="mask0_2_69" style="mask-type:luminance" maskUnits="userSpaceOnUse" x="115" y="56" width="852" height="968">
<path d="M675.141 647.356C675.136 652.026 675.765 656.676 677.01 661.178L577.579 718.663C572.736 713.745 566.963 709.84 560.598 707.174C554.232 704.508 547.401 703.135 540.5 703.135C533.599 703.135 526.768 704.508 520.402 707.174C514.037 709.84 508.265 713.745 503.421 718.663L403.99 661.178C405.235 656.676 405.864 652.026 405.859 647.356C405.859 635.282 401.669 623.582 394.004 614.256C386.34 604.93 375.677 598.555 363.836 596.221C351.996 593.887 339.713 595.738 329.085 601.459C318.458 607.179 310.145 616.414 305.567 627.585C300.989 638.757 300.43 651.172 303.985 662.71C307.54 674.248 314.989 684.193 325.059 690.847C335.129 697.501 347.196 700.45 359.198 699.191C371.2 697.932 382.393 692.543 390.865 683.944L490.297 741.389C488.463 748.044 487.97 754.997 488.845 761.845C489.72 768.693 491.946 775.298 495.394 781.278C498.842 787.258 503.442 792.492 508.929 796.679C514.416 800.865 520.679 803.919 527.355 805.663V920.511C515.097 923.709 504.423 931.267 497.332 941.77C490.241 952.273 487.219 965.001 488.83 977.573C490.442 990.144 496.577 1001.7 506.087 1010.07C515.598 1018.44 527.832 1023.06 540.5 1023.06C553.168 1023.06 565.402 1018.44 574.913 1010.07C584.423 1001.7 590.558 990.144 592.17 977.573C593.781 965.001 590.759 952.273 583.668 941.77C576.577 931.267 565.903 923.709 553.645 920.511V805.622C560.321 803.878 566.584 800.824 572.071 796.638C577.558 792.452 582.158 787.217 585.606 781.237C589.054 775.257 591.28 768.652 592.155 761.804C593.03 754.957 592.537 748.003 590.703 741.348L690.135 683.904C698.602 692.492 709.786 697.873 721.778 699.128C733.77 700.383 745.825 697.434 755.885 690.785C765.945 684.135 773.386 674.198 776.937 662.67C780.488 651.142 779.929 638.738 775.355 627.577C770.781 616.415 762.476 607.189 751.858 601.472C741.241 595.756 728.969 593.905 717.139 596.235C705.309 598.565 694.654 604.932 686.995 614.248C679.335 623.564 675.145 635.252 675.141 647.315M115 539.5C115.003 551.027 118.826 562.227 125.87 571.349C132.913 580.47 142.781 586.998 153.927 589.911V704.8C146.191 706.842 139.03 710.641 132.999 715.901C126.969 721.162 122.231 727.742 119.155 735.132C116.079 742.522 114.747 750.521 115.262 758.509C115.777 766.498 118.127 774.26 122.127 781.192C126.127 788.125 131.671 794.041 138.327 798.482C144.984 802.924 152.574 805.77 160.508 806.8C168.443 807.83 176.508 807.016 184.077 804.422C191.646 801.827 198.515 797.522 204.151 791.84L303.583 849.285C300.21 861.505 301.405 874.535 306.943 885.937C312.481 897.339 321.983 906.331 333.67 911.229C345.357 916.126 358.427 916.595 370.435 912.546C382.442 908.497 392.562 900.208 398.901 889.232C405.241 878.256 407.364 865.344 404.874 852.914C402.384 840.484 395.451 829.389 385.373 821.705C375.295 814.02 362.764 810.274 350.125 811.168C337.486 812.062 325.605 817.533 316.708 826.559L217.276 769.033C218.522 764.532 219.15 759.882 219.145 755.211C219.142 743.684 215.319 732.484 208.276 723.363C201.232 714.241 191.365 707.713 180.218 704.8V589.911C189.664 587.491 198.242 582.467 204.975 575.411C211.708 568.355 216.327 559.549 218.305 549.996C220.284 540.444 219.543 530.527 216.166 521.375C212.79 512.223 206.914 504.202 199.207 498.226C191.499 492.25 182.27 488.558 172.57 487.571C162.869 486.583 153.086 488.339 144.333 492.64C135.581 496.94 128.21 503.612 123.061 511.896C117.911 520.18 115.188 529.744 115.203 539.5M862.058 539.5C862.052 551.023 865.866 562.223 872.903 571.345C879.94 580.467 889.802 586.997 900.945 589.911V704.8C894.274 706.544 888.016 709.597 882.534 713.781C877.052 717.965 872.456 723.197 869.012 729.173C865.568 735.149 863.345 741.75 862.472 748.593C861.599 755.435 862.094 762.384 863.927 769.033L764.495 826.478C755.61 817.471 743.748 812.013 731.13 811.125C718.512 810.236 706.003 813.979 695.944 821.652C685.885 829.326 678.965 840.403 676.481 852.812C673.996 865.221 676.117 878.11 682.445 889.068C688.773 900.026 698.876 908.301 710.862 912.344C722.849 916.387 735.897 915.921 747.565 911.034C759.233 906.147 768.721 897.173 774.253 885.792C779.785 874.412 780.982 861.404 777.62 849.203L876.849 791.84C882.476 797.547 889.344 801.876 896.917 804.492C904.491 807.108 912.566 807.939 920.513 806.921C928.461 805.903 936.066 803.063 942.736 798.623C949.407 794.182 954.963 788.261 958.971 781.32C962.98 774.38 965.333 766.607 965.847 758.607C966.362 750.607 965.023 742.597 961.936 735.2C958.849 727.803 954.097 721.218 948.05 715.959C942.003 710.701 934.824 706.909 927.073 704.881V589.911C936.519 587.491 945.096 582.467 951.83 575.411C958.563 568.355 963.182 559.549 965.16 549.996C967.139 540.444 966.398 530.527 963.021 521.375C959.645 512.223 953.769 504.202 946.061 498.226C938.354 492.25 929.125 488.558 919.424 487.571C909.724 486.583 899.94 488.339 891.188 492.64C882.435 496.94 875.065 503.612 869.915 511.896C864.766 520.18 862.043 529.744 862.058 539.5ZM675.141 431.645C675.136 436.315 675.765 440.965 677.01 445.467L577.579 502.911C572.736 497.993 566.963 494.088 560.598 491.422C554.232 488.757 547.401 487.384 540.5 487.384C533.599 487.384 526.768 488.757 520.402 491.422C514.037 494.088 508.265 497.993 503.421 502.911L403.99 445.467C406.056 438.281 406.551 430.734 405.442 423.34C404.332 415.945 401.644 408.876 397.56 402.614C393.477 396.351 388.093 391.042 381.775 387.047C375.457 383.052 368.354 380.466 360.948 379.463C353.541 378.46 346.006 379.064 338.854 381.235C331.703 383.406 325.102 387.092 319.501 392.043C313.9 396.994 309.431 403.094 306.397 409.927C303.362 416.761 301.834 424.168 301.917 431.645C301.905 441.985 304.971 452.095 310.722 460.686C316.474 469.277 324.652 475.961 334.214 479.885C343.776 483.81 354.29 484.797 364.415 482.722C374.54 480.647 383.818 475.603 391.068 468.233L490.5 525.637C488.503 532.809 488.066 540.327 489.217 547.682C490.369 555.038 493.082 562.062 497.174 568.28C501.266 574.499 506.643 579.768 512.942 583.733C519.24 587.698 526.315 590.267 533.689 591.266C541.064 592.266 548.567 591.673 555.693 589.528C562.819 587.382 569.403 583.734 575.001 578.829C580.6 573.924 585.083 567.876 588.149 561.092C591.215 554.308 592.793 546.945 592.776 539.5C592.781 534.829 592.152 530.179 590.907 525.678L690.338 468.233C698.805 476.822 709.99 482.203 721.981 483.458C733.973 484.713 746.028 481.764 756.088 475.114C766.148 468.465 773.589 458.528 777.14 447C780.691 435.472 780.132 423.068 775.558 411.906C770.984 400.745 762.679 391.518 752.062 385.802C741.444 380.086 729.172 378.235 717.342 380.565C705.512 382.895 694.857 389.262 687.198 398.578C679.538 407.894 675.348 419.581 675.344 431.645M115 323.789C114.992 334.099 118.04 344.179 123.759 352.756C129.479 361.332 137.612 368.018 147.13 371.969C156.648 375.92 167.123 376.958 177.231 374.952C187.339 372.945 196.624 367.985 203.914 360.698C211.203 353.41 216.169 344.124 218.182 334.012C220.195 323.901 219.166 313.42 215.224 303.894C211.283 294.368 204.606 286.226 196.038 280.497C187.471 274.769 177.398 271.711 167.093 271.711C153.284 271.711 140.04 277.197 130.272 286.962C120.504 296.727 115.011 309.973 115 323.789ZM861.855 323.789C861.847 334.101 864.896 344.183 870.617 352.76C876.338 361.337 884.473 368.023 893.994 371.973C903.514 375.923 913.992 376.959 924.101 374.949C934.209 372.939 943.495 367.974 950.783 360.683C958.071 353.392 963.033 344.101 965.042 333.988C967.05 323.874 966.015 313.391 962.068 303.866C958.12 294.341 951.437 286.201 942.864 280.478C934.291 274.754 924.214 271.703 913.907 271.711C900.105 271.722 886.872 277.212 877.112 286.976C867.353 296.74 861.866 309.98 861.855 323.789ZM674.938 215.934C674.935 220.618 675.564 225.281 676.807 229.797L577.579 287.241C572.736 282.323 566.963 278.418 560.598 275.752C554.232 273.086 547.401 271.713 540.5 271.713C533.599 271.713 526.768 273.086 520.402 275.752C514.037 278.418 508.265 282.323 503.421 287.241L403.99 229.797C407.362 217.577 406.168 204.546 400.629 193.144C395.091 181.742 385.589 172.751 373.903 167.853C362.216 162.955 349.145 162.487 337.138 166.536C325.131 170.584 315.011 178.873 308.671 189.849C302.332 200.826 300.209 213.737 302.699 226.167C305.189 238.597 312.122 249.693 322.2 257.377C332.277 265.061 344.809 268.807 357.448 267.913C370.087 267.02 381.968 261.548 390.865 252.522L490.297 309.967C489.051 314.468 488.422 319.118 488.427 323.789C488.233 330.753 489.436 337.686 491.965 344.177C494.495 350.667 498.299 356.585 503.154 361.58C508.009 366.574 513.815 370.544 520.229 373.255C526.644 375.966 533.537 377.363 540.5 377.363C547.463 377.363 554.356 375.966 560.771 373.255C567.185 370.544 572.991 366.574 577.846 361.58C582.701 356.585 586.505 350.667 589.035 344.177C591.564 337.686 592.767 330.753 592.573 323.789C592.578 319.118 591.949 314.468 590.703 309.967L690.135 252.522C698.602 261.111 709.786 266.492 721.778 267.747C733.77 269.002 745.825 266.053 755.885 259.403C765.945 252.754 773.386 242.817 776.937 231.289C780.488 219.761 779.929 207.357 775.355 196.195C770.781 185.034 762.476 175.807 751.858 170.091C741.241 164.375 728.969 162.524 717.139 164.854C705.309 167.184 694.654 173.551 686.995 182.867C679.335 192.183 675.145 203.87 675.141 215.934M488.427 108.119C488.427 118.428 491.484 128.507 497.21 137.078C502.935 145.65 511.074 152.33 520.595 156.274C530.116 160.217 540.592 161.247 550.698 159.233C560.804 157.219 570.086 152.251 577.37 144.958C584.654 137.665 589.612 128.374 591.617 118.262C593.623 108.149 592.585 97.6683 588.636 88.1455C584.687 78.6228 578.004 70.4858 569.432 64.7638C560.86 59.0418 550.784 55.992 540.48 56C526.671 56.0108 513.431 61.5066 503.671 71.2796C493.91 81.0526 488.427 94.303 488.427 108.119Z" fill="white"/>
</mask>
<g mask="url(#mask0_2_69)">
<path d="M966 56H115V1023H966V56Z" fill="white"/>
</g>
</g>
<defs>
<clipPath id="clip0_2_69">
<rect width="851" height="967" fill="white" transform="translate(115 56)"/>
</clipPath>
</defs>
</svg>
