<svg width="146" height="44" viewBox="0 0 146 44" fill="none" xmlns="http://www.w3.org/2000/svg">
<g clip-path="url(#clip0_376_5182)">
<mask id="mask0_376_5182" style="mask-type:luminance" maskUnits="userSpaceOnUse" x="-13" y="-73" width="171" height="186">
<path d="M157.114 -72.9406H-12.3027V112.042H157.114V-72.9406Z" fill="white"/>
</mask>
<g mask="url(#mask0_376_5182)">
<mask id="mask1_376_5182" style="mask-type:luminance" maskUnits="userSpaceOnUse" x="-13" y="-73" width="171" height="186">
<path d="M157.114 -72.9406H-12.3027V112.042H157.114V-72.9406Z" fill="white"/>
</mask>
<g mask="url(#mask1_376_5182)">
<path d="M55.7417 16.4709C55.7417 20.5756 53.0412 23.2357 48.8566 23.2357H43.4912V9.73193H49.0159C53.0937 9.73193 55.7417 12.3735 55.7417 16.4783M51.5571 16.5171C51.5571 14.5119 50.5169 13.2022 48.9278 13.2022H47.586V19.7728H49.1226C50.605 19.7728 51.5571 18.502 51.5571 16.5171Z" fill="white"/>
<path d="M64.951 21.3267H60.309L59.6737 23.2357H55.4722L60.697 9.73193H64.8985L69.9285 23.2357H65.5728L64.951 21.3267ZM63.9447 18.1283L62.6774 14.1863L61.3712 18.1375L63.9447 18.1283Z" fill="white"/>
<path d="M79.5703 9.72461V13.2522H76.0396V23.2339H71.9448V13.2522H68.4312V9.72461H79.5703Z" fill="white"/>
<path d="M87.5477 21.3267H82.9091L82.2738 23.2357H78.0688L83.2937 9.73193H87.4935L92.5251 23.2357H88.161L87.5477 21.3267ZM86.5414 18.1283L85.2707 14.1863L83.9645 18.1375L86.5414 18.1283Z" fill="white"/>
<path d="M108.869 9.72461V13.2522H105.338V23.2339H101.243V13.2522H97.7314V9.72461H108.869Z" fill="white"/>
<path d="M116.952 23.2357L115.47 19.721H113.935V23.2357H109.847V9.73193H115.83C119.185 9.73193 121.109 11.4874 121.109 14.5711C121.109 16.5356 120.42 18.0007 119.149 18.8479L121.586 23.2431L116.952 23.2357ZM113.935 16.3358H115.822C116.705 16.3358 117.218 15.7383 117.218 14.6987C117.218 13.6961 116.71 13.1171 115.822 13.1171H113.935V16.3358Z" fill="white"/>
<path d="M133.102 9.72461V13.1172H126.731V14.7746H132.519V18.1654H126.731V19.8432H133.262V23.2339H122.636V9.72461H133.102Z" fill="white"/>
<path d="M145.282 9.72461V13.1172H138.91V14.7746H144.699V18.1654H138.91V19.8432H145.439V23.2339H134.813V9.72461H145.282Z" fill="white"/>
<path d="M49.7173 34.873H45.7326L44.9178 36.9078H44.0283L47.3116 28.9165H48.179L51.4521 36.9078H50.5508L49.7173 34.873ZM49.3785 34.0276L47.7199 29.9099L46.0783 34.0202L49.3785 34.0276Z" fill="white"/>
<path d="M69.8065 28.9221V29.7675H65.9895V32.6329H69.41V33.4671H65.9895V36.9152H65.1543V28.9221H69.8065Z" fill="white"/>
<path d="M88.3797 36.9152L86.8431 34.3587C86.6957 34.3698 86.5398 34.3809 86.3721 34.3809H84.434V36.9152H83.5869V28.924H86.3687C88.1984 28.924 89.2488 29.9062 89.2488 31.6062C89.2488 32.9196 88.6525 33.826 87.5953 34.196L89.3216 36.9245L88.3797 36.9152ZM86.3721 33.5356C87.7003 33.5356 88.4525 32.8863 88.4525 31.6302C88.4525 30.4075 87.7003 29.7693 86.3721 29.7693H84.434V33.5356H86.3721Z" fill="white"/>
<path d="M104.539 28.9221H103.702V36.9134H104.539V28.9221Z" fill="white"/>
<path d="M122.441 29.7342C122.058 29.7342 121.68 29.8164 121.326 29.9762C120.973 30.136 120.652 30.3702 120.382 30.6655C120.111 30.9608 119.897 31.3113 119.75 31.6971C119.604 32.0829 119.529 32.4964 119.529 32.914C119.529 33.3316 119.604 33.7451 119.75 34.1309C119.897 34.5167 120.111 34.8672 120.382 35.1625C120.652 35.4578 120.973 35.692 121.326 35.8518C121.68 36.0116 122.058 36.0939 122.441 36.0939C123.247 36.084 124.021 35.7417 124.606 35.1357L125.114 35.7406C124.382 36.5014 123.414 36.9333 122.404 36.9503C120.291 36.9503 118.617 35.169 118.617 32.9085C118.617 30.648 120.311 28.9017 122.434 28.9017C123.429 28.9079 124.385 29.3234 125.111 30.0653L124.603 30.7275C124.028 30.1 123.25 29.7434 122.438 29.7342" fill="white"/>
<path d="M143.765 34.873H139.781L138.966 36.9078H138.076L141.358 28.924H142.225L145.498 36.9152H144.589L143.765 34.873ZM143.426 34.0276L141.768 29.9099L140.126 34.0202L143.426 34.0276Z" fill="white"/>
<path d="M2.67037 9.81523C3.10001 9.81487 3.52009 9.95364 3.87749 10.214C4.23488 10.4744 4.51352 10.8446 4.67817 11.2779C4.84282 11.7112 4.88607 12.1881 4.80246 12.6482C4.71884 13.1084 4.51212 13.5311 4.20844 13.8629C3.90476 14.1948 3.51777 14.4208 3.09641 14.5125C2.67505 14.6041 2.23827 14.5573 1.8413 14.3778C1.44434 14.1984 1.10503 13.8945 0.866302 13.5044C0.627574 13.1144 0.500151 12.6558 0.50015 12.1867C0.50015 11.5581 0.728745 10.9552 1.13569 10.5105C1.54264 10.0658 2.09464 9.81572 2.67037 9.81523ZM33.8091 9.81523C34.2387 9.81487 34.6588 9.95364 35.0162 10.214C35.3736 10.4744 35.6522 10.8446 35.8169 11.2779C35.9815 11.7112 36.0248 12.1881 35.9412 12.6482C35.8576 13.1084 35.6508 13.5311 35.3471 13.8629C35.0435 14.1948 34.6565 14.4208 34.2351 14.5125C33.8138 14.6041 33.377 14.5573 32.98 14.3778C32.583 14.1984 32.2437 13.8945 32.005 13.5044C31.7663 13.1144 31.6389 12.6558 31.6389 12.1867C31.6389 11.5581 31.8675 10.9552 32.2744 10.5105C32.6814 10.0658 33.2333 9.81572 33.8091 9.81523ZM24.4793 18.7573L20.3337 21.3711C20.423 21.7233 20.4366 22.0932 20.3734 22.4521C20.3101 22.8109 20.1718 23.149 19.9692 23.4398C19.7666 23.7306 19.5051 23.9664 19.2053 24.1287C18.9054 24.291 18.5753 24.3755 18.2406 24.3755C17.9059 24.3755 17.5757 24.291 17.2759 24.1287C16.976 23.9664 16.7146 23.7306 16.512 23.4398C16.3093 23.149 16.171 22.8109 16.1078 22.4521C16.0445 22.0932 16.0581 21.7233 16.1474 21.3711L12.0018 18.7573C11.6313 19.1671 11.1368 19.4155 10.6107 19.4559C10.0846 19.4963 9.56307 19.326 9.14368 18.9769C8.72429 18.6277 8.43581 18.1237 8.33221 17.5591C8.22862 16.9944 8.31703 16.4079 8.58088 15.9093C8.84473 15.4108 9.26594 15.0342 9.76569 14.8503C10.2654 14.6663 10.8094 14.6875 11.2959 14.9099C11.7824 15.1322 12.178 15.5405 12.4086 16.0584C12.6393 16.5762 12.6892 17.1681 12.549 17.7232L16.6947 20.3371C16.8966 20.1133 17.1372 19.9356 17.4026 19.8143C17.668 19.693 17.9529 19.6305 18.2406 19.6305C18.5283 19.6305 18.8131 19.693 19.0785 19.8143C19.3439 19.9356 19.5846 20.1133 19.7865 20.3371L23.9321 17.7232C23.7915 17.1672 23.8413 16.5743 24.0722 16.0555C24.3031 15.5367 24.6993 15.1276 25.1865 14.9047C25.6738 14.6819 26.2188 14.6605 26.7194 14.8448C27.22 15.029 27.6419 15.4061 27.9062 15.9056C28.1705 16.405 28.2591 16.9925 28.1552 17.5581C28.0514 18.1237 27.7624 18.6285 27.3422 18.9782C26.922 19.3278 26.3996 19.4983 25.8726 19.4576C25.3456 19.417 24.8503 19.168 24.4793 18.7573ZM24.4793 8.95321L20.3337 11.5652C20.423 11.9173 20.4366 12.2873 20.3734 12.6461C20.3101 13.005 20.1718 13.343 19.9692 13.6339C19.7666 13.9247 19.5051 14.1605 19.2053 14.3228C18.9054 14.4851 18.5753 14.5696 18.2406 14.5696C17.9059 14.5696 17.5757 14.4851 17.2759 14.3228C16.976 14.1605 16.7146 13.9247 16.512 13.6339C16.3093 13.343 16.171 13.005 16.1078 12.6461C16.0445 12.2873 16.0581 11.9173 16.1474 11.5652L12.0018 8.95136C11.6313 9.36119 11.1368 9.60954 10.6107 9.64996C10.0846 9.69037 9.56307 9.52007 9.14368 9.17093C8.72429 8.82179 8.43581 8.31774 8.33221 7.75311C8.22862 7.18849 8.31703 6.602 8.58088 6.10341C8.84473 5.60482 9.26594 5.2283 9.76569 5.04433C10.2654 4.86035 10.8094 4.88154 11.2959 5.10391C11.7824 5.32628 12.178 5.73461 12.4086 6.25246C12.6393 6.7703 12.6892 7.36218 12.549 7.91731L16.6947 10.5311C16.8966 10.3073 17.1372 10.1296 17.4026 10.0083C17.668 9.88705 17.9529 9.82458 18.2406 9.82458C18.5283 9.82458 18.8131 9.88705 19.0785 10.0083C19.3439 10.1296 19.5846 10.3073 19.7865 10.5311L23.9321 7.91731C23.8435 7.56546 23.8304 7.19603 23.8939 6.83777C23.9574 6.47951 24.0958 6.14208 24.2982 5.85175C24.5007 5.56141 24.7618 5.32601 25.0612 5.16386C25.3606 5.00172 25.6902 4.9172 26.0244 4.91689C26.3823 4.91659 26.7347 5.01287 27.0503 5.19717C27.3659 5.38146 27.6349 5.64806 27.8334 5.97325C28.0319 6.29844 28.1537 6.67215 28.188 7.06113C28.2223 7.45012 28.168 7.84233 28.03 8.20289C27.892 8.56345 27.6745 8.88118 27.3969 9.12783C27.1193 9.37447 26.7901 9.54239 26.4387 9.61664C26.0874 9.6909 25.7246 9.66919 25.3828 9.55344C25.0409 9.4377 24.7306 9.23151 24.4793 8.95321ZM27.5712 35.0691L31.7168 32.4553C31.6406 32.1526 31.6201 31.8364 31.6566 31.525C31.6931 31.2136 31.7858 30.9132 31.9293 30.6412C32.0728 30.3692 32.2644 30.131 32.4928 29.9403C32.7213 29.7497 32.9821 29.6105 33.2602 29.5307V24.2957C32.7492 24.15 32.3044 23.8059 32.0089 23.328C31.7134 22.8501 31.5876 22.271 31.6549 21.6991C31.7221 21.1271 31.978 20.6016 32.3745 20.2207C32.771 19.8398 33.281 19.6297 33.8091 19.6297C34.3372 19.6297 34.8472 19.8398 35.2437 20.2207C35.6402 20.6016 35.896 21.1271 35.9633 21.6991C36.0306 22.271 35.9047 22.8501 35.6092 23.328C35.3138 23.8059 34.869 24.15 34.358 24.2957V29.5215C34.6819 29.6133 34.9819 29.7855 35.2347 30.0248C35.4876 30.2641 35.6864 30.564 35.8156 30.901C35.9448 31.238 36.001 31.603 35.9797 31.9676C35.9584 32.3322 35.8603 32.6865 35.6929 33.0029C35.5256 33.3193 35.2935 33.5891 35.0149 33.7915C34.7363 33.9938 34.4187 34.1231 34.0868 34.1693C33.7548 34.2155 33.4176 34.1773 33.1015 34.0577C32.7853 33.9382 32.4987 33.7405 32.264 33.4801L28.1184 36.092C28.2598 36.6484 28.2106 37.2419 27.9801 37.7616C27.7495 38.2812 27.3534 38.6912 26.8659 38.9148C26.3783 39.1385 25.8329 39.1604 25.3316 38.9765C24.8304 38.7926 24.4077 38.4154 24.1428 37.9157C23.8779 37.416 23.7889 36.828 23.8925 36.2618C23.9961 35.6956 24.2851 35.1901 24.7055 34.8399C25.126 34.4896 25.6489 34.3188 26.1764 34.3593C26.7039 34.3998 27.1998 34.6488 27.5712 35.0598M8.36615 36.092L4.21714 33.4801C3.98247 33.7405 3.69586 33.9382 3.37968 34.0577C3.0635 34.1773 2.7263 34.2155 2.39439 34.1693C2.06247 34.1231 1.74482 33.9938 1.46621 33.7915C1.18761 33.5891 0.955579 33.3193 0.788231 33.0029C0.620884 32.6865 0.522743 32.3322 0.501466 31.9676C0.480189 31.603 0.536351 31.238 0.66557 30.901C0.794789 30.564 0.993572 30.2641 1.24641 30.0248C1.49924 29.7855 1.7993 29.6133 2.12316 29.5215V24.2957C1.61207 24.1502 1.16707 23.8063 0.871425 23.3284C0.575781 22.8505 0.449761 22.2713 0.516947 21.6993C0.584133 21.1273 0.839921 20.6016 1.23644 20.2206C1.63296 19.8396 2.14304 19.6295 2.67122 19.6295C3.1994 19.6295 3.70948 19.8396 4.106 20.2206C4.50252 20.6016 4.75831 21.1273 4.82549 21.6993C4.89268 22.2713 4.76666 22.8505 4.47101 23.3284C4.17537 23.8063 3.73037 24.1502 3.21928 24.2957V29.5215C3.49763 29.6008 3.75876 29.7398 3.98752 29.9302C4.21627 30.1207 4.40809 30.3589 4.55184 30.631C4.69558 30.9031 4.78839 31.2037 4.82488 31.5152C4.86136 31.8268 4.84079 32.1432 4.76436 32.446L8.90997 35.0598C9.2797 34.6519 9.7729 34.4049 10.2973 34.3653C10.8217 34.3257 11.3413 34.496 11.759 34.8445C12.1767 35.1929 12.4638 35.6956 12.5666 36.2585C12.6694 36.8214 12.5808 37.4058 12.3175 37.9026C12.0542 38.3993 11.6341 38.7742 11.1359 38.9572C10.6377 39.1402 10.0955 39.1188 9.6107 38.8968C9.12594 38.6749 8.73184 38.2677 8.50215 37.7515C8.27245 37.2352 8.2229 36.6453 8.36276 36.092M17.6925 39.344V34.109C17.4142 34.0297 17.153 33.8907 16.9243 33.7002C16.6955 33.5097 16.5037 33.2716 16.36 32.9995C16.2162 32.7274 16.1234 32.4268 16.0869 32.1152C16.0504 31.8036 16.071 31.4873 16.1474 31.1844L12.0018 28.5725C11.6313 28.9823 11.1368 29.2307 10.6107 29.2711C10.0846 29.3115 9.56307 29.1412 9.14368 28.7921C8.72429 28.4429 8.43581 27.9389 8.33221 27.3742C8.22862 26.8096 8.31703 26.2231 8.58088 25.7245C8.84473 25.2259 9.26594 24.8494 9.76569 24.6654C10.2654 24.4815 10.8094 24.5027 11.2959 24.725C11.7824 24.9474 12.178 25.3557 12.4086 25.8736C12.6393 26.3914 12.6892 26.9833 12.549 27.5384L16.6947 30.1504C16.8968 29.9271 17.1375 29.7498 17.4029 29.6287C17.6683 29.5077 17.953 29.4454 18.2406 29.4454C18.5282 29.4454 18.8129 29.5077 19.0782 29.6287C19.3436 29.7498 19.5843 29.9271 19.7865 30.1504L23.9321 27.5384C23.7915 26.9824 23.8413 26.3895 24.0722 25.8707C24.3031 25.3519 24.6993 24.9428 25.1865 24.7199C25.6738 24.497 26.2188 24.4757 26.7194 24.66C27.22 24.8442 27.6419 25.2213 27.9062 25.7208C28.1705 26.2202 28.2591 26.8077 28.1552 27.3733C28.0514 27.9389 27.7624 28.4437 27.3422 28.7934C26.922 29.143 26.3996 29.3135 25.8726 29.2728C25.3456 29.2322 24.8503 28.9832 24.4793 28.5725L20.3337 31.1844C20.4101 31.4873 20.4307 31.8036 20.3942 32.1152C20.3577 32.4268 20.2649 32.7274 20.1212 32.9995C19.9774 33.2716 19.7856 33.5097 19.5569 33.7002C19.3281 33.8907 19.067 34.0297 18.7886 34.109V39.344C19.2997 39.4896 19.7447 39.8335 20.0404 40.3114C20.336 40.7892 20.462 41.3684 20.3948 41.9404C20.3277 42.5125 20.0719 43.0381 19.6754 43.4191C19.2788 43.8001 18.7688 44.0102 18.2406 44.0102C17.7124 44.0102 17.2023 43.8001 16.8058 43.4191C16.4093 43.0381 16.1535 42.5125 16.0863 41.9404C16.0191 41.3684 16.1451 40.7892 16.4408 40.3114C16.7364 39.8335 17.1814 39.4896 17.6925 39.344ZM18.2397 0.00744701C18.6694 0.00708109 19.0894 0.145856 19.4468 0.406214C19.8042 0.666573 20.0829 1.03682 20.2475 1.47012C20.4122 1.90342 20.4554 2.3803 20.3718 2.84044C20.2882 3.30059 20.0815 3.72332 19.7778 4.05516C19.4741 4.387 19.0871 4.61304 18.6658 4.7047C18.2444 4.79635 17.8076 4.7495 17.4107 4.57006C17.0137 4.39062 16.6744 4.08667 16.4357 3.69664C16.1969 3.30661 16.0695 2.84804 16.0695 2.37893C16.0695 1.75029 16.2981 1.14738 16.705 0.70269C17.112 0.258005 17.664 0.00793737 18.2397 0.00744701Z" fill="white"/>
</g>
</g>
</g>
<defs>
<clipPath id="clip0_376_5182">
<rect width="145" height="44" fill="white" transform="translate(0.5)"/>
</clipPath>
</defs>
</svg>
